{
.appVersion = "895";
DisplayStrings = (
"\U00DF"
);
copyright = "Copyright 2009, 2010, 2011 by Daniel Johnson. Released under the terms of the Open Font License.";
customParameters = (
{
name = openTypeNameLicenseURL;
value = "http://scripts.sil.org/OFL";
},
{
name = fsType;
value = (
3
);
}
);
date = "2016-06-29 14:49:48 +0000";
designer = "Daniel Johnson (original version), Alexei Vanyashin (redesign v3)";
designerURL = "http://cyreal.org";
familyName = "Jura-dev01";
featurePrefixes = (
{
automatic = 1;
code = "languagesystem DFLT dflt;\012";
name = Languagesystems;
}
);
fontMaster = (
{
alignmentZones = (
"{674, 16}",
"{633, 16}",
"{461, 16}",
"{0, -16}",
"{-200, -16}"
);
ascender = 674;
capHeight = 633;
customParameters = (
{
name = Filter;
value = "Noodler; 15.0; 1; 1\";";
}
);
descender = -200;
guideLines = (
{
locked = 1;
position = "{363, 441}";
},
{
position = "{-234, -205}";
},
{
locked = 1;
position = "{313, 482}";
},
{
locked = 1;
position = "{395, 22}";
},
{
position = "{313, 744}";
},
{
locked = 1;
position = "{363, 340}";
},
{
locked = 1;
position = "{313, 539}";
},
{
position = "{313, 648}";
},
{
locked = 1;
position = "{50, 623}";
},
{
locked = 1;
position = "{114, -179}";
}
);
horizontalStems = (
40
);
id = "0E6FACCE-B85C-44A4-8B06-9EFDFED90B40";
userData = {
GSCornerRadius = 15;
GSOffsetHorizontal = 20;
GSOffsetMakeStroke = 1;
GSOffsetVertical = 20;
noodleExtremesAndInflections = 1;
noodleRemoveOverlap = 1;
noodleThickness = "42.0";
};
verticalStems = (
40
);
weight = Light;
weightValue = 40;
xHeight = 461;
},
{
alignmentZones = (
"{690, 16}",
"{633, 16}",
"{461, 16}",
"{0, -16}",
"{-200, -16}"
);
ascender = 690;
capHeight = 633;
descender = -200;
guideLines = (
{
locked = 1;
position = "{263, 20}";
},
{
locked = 1;
position = "{263, 623}";
},
{
locked = 1;
position = "{263, 669}";
},
{
locked = 1;
position = "{263, 518}";
},
{
locked = 1;
position = "{131, -82}";
},
{
locked = 1;
position = "{131, -150}";
}
);

glyphs = (
{
color = 4;
glyphname = A;
lastChange = "2016-07-19 23:56:33 +0000";
layers = (
{
background = {
paths = (
{
closed = 1;
nodes = (
"60 -16 OFFCURVE",
"67 -9 OFFCURVE",
"73 4 CURVE",
"145 204 LINE",
"417 204 LINE",
"489 4 LINE SMOOTH",
"494 -9 OFFCURVE",
"502 -16 OFFCURVE",
"511 -16 CURVE SMOOTH",
"525 -16 OFFCURVE",
"532 -9 OFFCURVE",
"532 4 CURVE SMOOTH",
"532 9 OFFCURVE",
"531 13 OFFCURVE",
"529 18 CURVE SMOOTH",
"304 636 LINE",
"258 636 LINE",
"33 18 LINE SMOOTH",
"31 13 OFFCURVE",
"30 9 OFFCURVE",
"30 4 CURVE SMOOTH",
"30 -9 OFFCURVE",
"37 -16 OFFCURVE",
"51 -16 CURVE SMOOTH"
);
},
{
closed = 1;
nodes = (
"280 575 LINE",
"401 246 LINE",
"161 246 LINE"
);
}
);
};
layerId = "0E6FACCE-B85C-44A4-8B06-9EFDFED90B40";
paths = (
{
closed = 0;
nodes = (
"465 200 LINE",
"108 200 LINE"
);
},
{
closed = 0;
nodes = (
"284 612 LINE",
"30 21 LINE"
);
},
{
closed = 0;
nodes = (
"290 612 LINE",
"544 21 LINE"
);
}
);
width = 574;
},
{
anchors = (
{
name = bottom;
position = "{318, 0}";
},
{
name = ogonek;
position = "{582, 10}";
},
{
name = top;
position = "{318, 633}";
}
);
background = {
paths = (
{
closed = 1;
nodes = (
"80 -16 OFFCURVE",
"87 -9 OFFCURVE",
"93 4 CURVE",
"165 204 LINE",
"437 204 LINE",
"509 4 LINE SMOOTH",
"514 -9 OFFCURVE",
"522 -16 OFFCURVE",
"531 -16 CURVE SMOOTH",
"545 -16 OFFCURVE",
"552 -9 OFFCURVE",
"552 4 CURVE SMOOTH",
"552 9 OFFCURVE",
"551 13 OFFCURVE",
"549 18 CURVE SMOOTH",
"324 636 LINE",
"278 636 LINE",
"53 18 LINE SMOOTH",
"51 13 OFFCURVE",
"50 9 OFFCURVE",
"50 4 CURVE SMOOTH",
"50 -9 OFFCURVE",
"57 -16 OFFCURVE",
"71 -16 CURVE SMOOTH"
);
},
{
closed = 1;
nodes = (
"300 575 LINE",
"421 246 LINE",
"181 246 LINE"
);
}
);
};
layerId = "B309FD91-69BF-47D2-8142-D25EBE917F3C";
paths = (
{
closed = 1;
nodes = (
"70 0 OFFCURVE",
"77 5 OFFCURVE",
"80 13 CURVE SMOOTH",
"152 179 LINE",
"484 179 LINE",
"556 13 LINE SMOOTH",
"559 5 OFFCURVE",
"566 0 OFFCURVE",
"575 0 CURVE SMOOTH",
"587 0 OFFCURVE",
"596 9 OFFCURVE",
"596 21 CURVE SMOOTH",
"596 24 OFFCURVE",
"595 27 OFFCURVE",
"594 30 CURVE SMOOTH",
"340 620 LINE SMOOTH",
"337 628 OFFCURVE",
"330 633 OFFCURVE",
"321 633 CURVE SMOOTH",
"320 633 OFFCURVE",
"319 633 OFFCURVE",
"318 633 CURVE",
"317 633 OFFCURVE",
"316 633 OFFCURVE",
"315 633 CURVE SMOOTH",
"306 633 OFFCURVE",
"299 628 OFFCURVE",
"296 620 CURVE SMOOTH",
"42 30 LINE SMOOTH",
"41 27 OFFCURVE",
"40 24 OFFCURVE",
"40 21 CURVE SMOOTH",
"40 9 OFFCURVE",
"49 0 OFFCURVE",
"61 0 CURVE SMOOTH"
);
},
{
closed = 1;
nodes = (
"318 566 LINE",
"466 221 LINE",
"170 221 LINE"
);
}
);
width = 636;
},
{
background = {
paths = (
{
closed = 1;
nodes = (
"76.667 -16 OFFCURVE",
"89 -6.667 OFFCURVE",
"97 12 CURVE SMOOTH",
"166 189 LINE",
"444 189 LINE",
"513 12 LINE SMOOTH",
"520.333 -6.667 OFFCURVE",
"532.667 -16 OFFCURVE",
"550 -16 CURVE SMOOTH",
"581.325 -16 OFFCURVE",
"590.469 14.593 OFFCURVE",
"583 37 CURVE",
"346 636 LINE",
"264 636 LINE",
"27 37 LINE",
"19.531 14.593 OFFCURVE",
"28.675 -16 OFFCURVE",
"60 -16 CURVE SMOOTH"
);
},
{
closed = 1;
nodes = (
"304 532 LINE",
"415 261 LINE",
"195 261 LINE"
);
}
);
};
layerId = "3776B938-A14A-42B9-91A8-ACB6A1608662";
width = 600;
}
);
leftKerningGroup = "80";
rightKerningGroup = "80";
unicode = 0041;
},
{
color = 3;
glyphname = AE;
lastChange = "2016-07-21 23:03:43 +0000";
layers = (
{
background = {
paths = (
{
closed = 0;
nodes = (
"335 200 LINE",
"52 200 LINE"
);
},
{
closed = 0;
nodes = (
"-50 21 LINE",
"284 612 LINE",
"331 612 LINE"
);
}
);
};
layerId = "0E6FACCE-B85C-44A4-8B06-9EFDFED90B40";
paths = (
{
closed = 0;
nodes = (
"335 200 LINE",
"52 200 LINE"
);
},
{
closed = 0;
nodes = (
"-50 21 LINE",
"284 612 LINE",
"331 612 LINE"
);
}
);
width = 600;
},
{
anchors = (
{
name = bottom;
position = "{432, 0}";
},
{
name = top;
position = "{482, 633}";
}
);
background = {
paths = (
{
closed = 1;
nodes = (
"71 0 OFFCURVE",
"79 6 OFFCURVE",
"81 15 CURVE",
"174 179 LINE",
"446 179 LINE SMOOTH",
"458 179 OFFCURVE",
"467 188 OFFCURVE",
"467 200 CURVE SMOOTH",
"467 212 OFFCURVE",
"458 221 OFFCURVE",
"446 221 CURVE SMOOTH",
"198 221 LINE",
"407 591 LINE",
"442 591 LINE SMOOTH",
"454 591 OFFCURVE",
"463 600 OFFCURVE",
"463 612 CURVE SMOOTH",
"463 624 OFFCURVE",
"454 633 OFFCURVE",
"442 633 CURVE SMOOTH",
"400 633 LINE SMOOTH",
"388 633 OFFCURVE",
"380 629 OFFCURVE",
"375 618 CURVE",
"46 36 LINE",
"42 32 OFFCURVE",
"40 27 OFFCURVE",
"40 21 CURVE SMOOTH",
"40 9 OFFCURVE",
"49 0 OFFCURVE",
"61 0 CURVE SMOOTH"
);
}
);
};
layerId = "B309FD91-69BF-47D2-8142-D25EBE917F3C";
paths = (
{
closed = 1;
nodes = (
"783 0 LINE SMOOTH",
"795 0 OFFCURVE",
"804 9 OFFCURVE",
"804 21 CURVE SMOOTH",
"804 33 OFFCURVE",
"795 42 OFFCURVE",
"783 42 CURVE SMOOTH",
"466 42 LINE",
"466 300 LINE",
"663 300 LINE SMOOTH",
"675 300 OFFCURVE",
"684 309 OFFCURVE",
"684 321 CURVE SMOOTH",
"684 333 OFFCURVE",
"675 342 OFFCURVE",
"663 342 CURVE SMOOTH",
"466 342 LINE",
"466 591 LINE",
"783 591 LINE SMOOTH",
"795 591 OFFCURVE",
"804 600 OFFCURVE",
"804 612 CURVE SMOOTH",
"804 624 OFFCURVE",
"795 633 OFFCURVE",
"783 633 CURVE SMOOTH",
"445 633 LINE SMOOTH",
"431 633 OFFCURVE",
"424 626 OFFCURVE",
"424 612 CURVE SMOOTH",
"424 21 LINE SMOOTH",
"424 7 OFFCURVE",
"431 0 OFFCURVE",
"445 0 CURVE SMOOTH"
);
},
{
closed = 1;
nodes = (
"71 0 OFFCURVE",
"79 6 OFFCURVE",
"81 15 CURVE",
"174 179 LINE",
"436 179 LINE SMOOTH",
"448 179 OFFCURVE",
"457 188 OFFCURVE",
"457 200 CURVE SMOOTH",
"457 212 OFFCURVE",
"448 221 OFFCURVE",
"436 221 CURVE SMOOTH",
"198 221 LINE",
"407 591 LINE",
"442 591 LINE SMOOTH",
"454 591 OFFCURVE",
"463 600 OFFCURVE",
"463 612 CURVE SMOOTH",
"463 624 OFFCURVE",
"454 633 OFFCURVE",
"442 633 CURVE SMOOTH",
"400 633 LINE SMOOTH",
"388 633 OFFCURVE",
"380 629 OFFCURVE",
"375 618 CURVE",
"46 36 LINE",
"42 32 OFFCURVE",
"40 27 OFFCURVE",
"40 21 CURVE SMOOTH",
"40 9 OFFCURVE",
"49 0 OFFCURVE",
"61 0 CURVE SMOOTH"
);
}
);
width = 864;
},
{
layerId = "3776B938-A14A-42B9-91A8-ACB6A1608662";
width = 600;
}
);
leftMetricsKey = A;
rightMetricsKey = E;
unicode = 00C6;
},
{
color = 4;
glyphname = B;
lastChange = "2016-07-19 23:56:35 +0000";
layers = (
{
background = {
paths = (
{
closed = 1;
nodes = (
"321 0 LINE SMOOTH",
"461 0 OFFCURVE",
"528 35 OFFCURVE",
"528 175 CURVE SMOOTH",
"528 204 LINE SMOOTH",
"528 300 OFFCURVE",
"496.333 347 OFFCURVE",
"431 367 CURVE",
"467.667 390.333 OFFCURVE",
"486 430.333 OFFCURVE",
"486 487 CURVE SMOOTH",
"486 543.667 OFFCURVE",
"468.667 582.667 OFFCURVE",
"434 604 CURVE SMOOTH",
"399.333 625.333 OFFCURVE",
"347.667 636 OFFCURVE",
"279 636 CURVE SMOOTH",
"103 636 LINE SMOOTH",
"90.333 636 OFFCURVE",
"84 625.667 OFFCURVE",
"84 605 CURVE SMOOTH",
"84 31 LINE SMOOTH",
"84 10.333 OFFCURVE",
"90.333 0 OFFCURVE",
"103 0 CURVE SMOOTH"
);
},
{
closed = 1;
nodes = (
"126 337 LINE",
"321 337 LINE SMOOTH",
"432.143 337 OFFCURVE",
"486 326.017 OFFCURVE",
"486 204 CURVE SMOOTH",
"486 175 LINE SMOOTH",
"486 52.983 OFFCURVE",
"432.143 42 OFFCURVE",
"321 42 CURVE SMOOTH",
"126 42 LINE"
);
},
{
closed = 1;
nodes = (
"126 594 LINE",
"279 594 LINE SMOOTH",
"399 594 OFFCURVE",
"444 574 OFFCURVE",
"444 486 CURVE SMOOTH",
"444 398 OFFCURVE",
"397.667 380.333 OFFCURVE",
"279 379 CURVE",
"126 379 LINE"
);
}
);
};
layerId = "0E6FACCE-B85C-44A4-8B06-9EFDFED90B40";
paths = (
{
closed = 0;
nodes = (
"264 343 LINE",
"347 343 OFFCURVE",
"387 383 OFFCURVE",
"387 465 CURVE",
"387 492 LINE",
"387 573 OFFCURVE",
"347 612 OFFCURVE",
"264 612 CURVE",
"101 612 LINE",
"101 19 LINE",
"277 19 LINE",
"377 19 OFFCURVE",
"424 67 OFFCURVE",
"424 165 CURVE",
"424 198 LINE",
"424 296 OFFCURVE",
"377 343 OFFCURVE",
"277 343 CURVE",
"101 343 LINE"
);
}
);
width = 468;
},
{
anchors = (
{
name = bottom;
position = "{295, 0}";
},
{
name = top;
position = "{295, 633}";
}
);
background = {
components = (
{
name = R;
}
);
paths = (
{
closed = 1;
nodes = (
"133 0 OFFCURVE",
"142 9 OFFCURVE",
"142 21 CURVE SMOOTH",
"142 322 LINE",
"565 322 LINE",
"565 21 LINE SMOOTH",
"565 9 OFFCURVE",
"574 0 OFFCURVE",
"586 0 CURVE SMOOTH",
"598 0 OFFCURVE",
"607 9 OFFCURVE",
"607 21 CURVE SMOOTH",
"607 613 LINE SMOOTH",
"607 625 OFFCURVE",
"598 634 OFFCURVE",
"586 634 CURVE SMOOTH",
"574 634 OFFCURVE",
"565 625 OFFCURVE",
"565 613 CURVE SMOOTH",
"565 364 LINE",
"142 364 LINE",
"142 613 LINE SMOOTH",
"142 625 OFFCURVE",
"133 634 OFFCURVE",
"121 634 CURVE SMOOTH",
"109 634 OFFCURVE",
"100 625 OFFCURVE",
"100 613 CURVE SMOOTH",
"100 21 LINE SMOOTH",
"100 9 OFFCURVE",
"109 0 OFFCURVE",
"121 0 CURVE SMOOTH"
);
}
);
};
layerId = "B309FD91-69BF-47D2-8142-D25EBE917F3C";
paths = (
{
closed = 1;
nodes = (
"362 0 LINE SMOOTH",
"473 0 OFFCURVE",
"530 57 OFFCURVE",
"530 167 CURVE SMOOTH",
"530 198 LINE SMOOTH",
"530 276 OFFCURVE",
"502 326 OFFCURVE",
"426 349 CURVE",
"477 373 OFFCURVE",
"493 412 OFFCURVE",
"493 465 CURVE SMOOTH",
"493 492 LINE SMOOTH",
"493 585 OFFCURVE",
"444 633 OFFCURVE",
"349 633 CURVE SMOOTH",
"121 633 LINE SMOOTH",
"107 633 OFFCURVE",
"100 626 OFFCURVE",
"100 612 CURVE SMOOTH",
"100 21 LINE SMOOTH",
"100 7 OFFCURVE",
"107 0 OFFCURVE",
"121 0 CURVE SMOOTH"
);
},
{
closed = 1;
nodes = (
"142 322 LINE",
"362 322 LINE SMOOTH",
"450 322 OFFCURVE",
"488 285 OFFCURVE",
"488 198 CURVE SMOOTH",
"488 167 LINE SMOOTH",
"488 80 OFFCURVE",
"450 42 OFFCURVE",
"362 42 CURVE SMOOTH",
"142 42 LINE"
);
},
{
closed = 1;
nodes = (
"142 591 LINE",
"349 591 LINE SMOOTH",
"420 591 OFFCURVE",
"451 561 OFFCURVE",
"451 492 CURVE SMOOTH",
"451 465 LINE SMOOTH",
"451 395 OFFCURVE",
"420 364 OFFCURVE",
"349 364 CURVE SMOOTH",
"142 364 LINE"
);
}
);
width = 590;
},
{
background = {
paths = (
{
closed = 1;
nodes = (
"336 0 LINE SMOOTH",
"514.667 0 OFFCURVE",
"588 38.667 OFFCURVE",
"588 184 CURVE SMOOTH",
"588 203 LINE SMOOTH",
"588 284.333 OFFCURVE",
"560.667 338.667 OFFCURVE",
"506 366 CURVE",
"532.667 390.667 OFFCURVE",
"546 427 OFFCURVE",
"546 475 CURVE SMOOTH",
"546 597.667 OFFCURVE",
"468.667 636 OFFCURVE",
"306 636 CURVE SMOOTH",
"118 636 LINE SMOOTH",
"95.333 636 OFFCURVE",
"84 621.333 OFFCURVE",
"84 592 CURVE SMOOTH",
"84 44 LINE SMOOTH",
"84 14.667 OFFCURVE",
"95.333 0 OFFCURVE",
"118 0 CURVE SMOOTH"
);
},
{
closed = 1;
nodes = (
"156 312 LINE",
"354 312 LINE SMOOTH",
"483.333 312 OFFCURVE",
"516 297.333 OFFCURVE",
"516 200 CURVE SMOOTH",
"516 184 LINE SMOOTH",
"516 86.667 OFFCURVE",
"482.667 72 OFFCURVE",
"336 72 CURVE SMOOTH",
"156 72 LINE"
);
},
{
closed = 1;
nodes = (
"156 559 LINE",
"306 559 LINE SMOOTH",
"435.333 559 OFFCURVE",
"474 544 OFFCURVE",
"474 472 CURVE SMOOTH",
"474 400 OFFCURVE",
"435.333 384 OFFCURVE",
"306 384 CURVE SMOOTH",
"156 384 LINE"
);
}
);
};
layerId = "3776B938-A14A-42B9-91A8-ACB6A1608662";
width = 600;
}
);
leftKerningGroup = "80";
rightKerningGroup = "80";
unicode = 0042;
},
{
color = 4;
glyphname = C;
lastChange = "2016-07-19 23:56:37 +0000";
layers = (
{
guideLines = (
{
position = "{536, 450}";
},
{
position = "{536, 183}";
}
);
layerId = "0E6FACCE-B85C-44A4-8B06-9EFDFED90B40";
paths = (
{
closed = 0;
nodes = (
"554 450 LINE",
"554 569 OFFCURVE",
"508 612 OFFCURVE",
"392 612 CURVE",
"271 612 LINE",
"142 613 OFFCURVE",
"90 561 OFFCURVE",
"90 430 CURVE",
"90 203 LINE",
"90 73 OFFCURVE",
"142 21 OFFCURVE",
"272 21 CURVE",
"392 21 LINE",
"508 21 OFFCURVE",
"554 64 OFFCURVE",
"554 183 CURVE"
);
}
);
width = 624;
},
{
anchors = (
{
name = bottom;
position = "{333, 0}";
},
{
name = top;
position = "{333, 633}";
}
);
background = {
paths = (
{
closed = 1;
nodes = (
"403 -1 LINE SMOOTH",
"545 -1 OFFCURVE",
"606 60 OFFCURVE",
"606 202 CURVE SMOOTH",
"606 430 LINE SMOOTH",
"606 572 OFFCURVE",
"545 633 OFFCURVE",
"403 633 CURVE SMOOTH",
"282 633 LINE SMOOTH",
"141 634 OFFCURVE",
"80 573 OFFCURVE",
"80 430 CURVE SMOOTH",
"80 202 LINE SMOOTH",
"80 60 OFFCURVE",
"141 -1 OFFCURVE",
"283 -1 CURVE SMOOTH"
);
},
{
closed = 1;
nodes = (
"165 41 OFFCURVE",
"122 84 OFFCURVE",
"122 202 CURVE SMOOTH",
"122 430 LINE SMOOTH",
"122 549 OFFCURVE",
"164 592 OFFCURVE",
"282 591 CURVE SMOOTH",
"403 591 LINE SMOOTH",
"521 591 OFFCURVE",
"564 548 OFFCURVE",
"564 430 CURVE SMOOTH",
"564 202 LINE SMOOTH",
"564 84 OFFCURVE",
"521 41 OFFCURVE",
"403 41 CURVE SMOOTH",
"283 41 LINE SMOOTH"
);
}
);
};
layerId = "B309FD91-69BF-47D2-8142-D25EBE917F3C";
paths = (
{
closed = 1;
nodes = (
"403 -1 LINE SMOOTH",
"532 -1 OFFCURVE",
"586 53 OFFCURVE",
"586 182 CURVE SMOOTH",
"586 194 OFFCURVE",
"577 203 OFFCURVE",
"565 203 CURVE SMOOTH",
"553 203 OFFCURVE",
"544 194 OFFCURVE",
"544 182 CURVE SMOOTH",
"544 76 OFFCURVE",
"509 41 OFFCURVE",
"403 41 CURVE SMOOTH",
"283 41 LINE SMOOTH",
"165 41 OFFCURVE",
"122 84 OFFCURVE",
"122 202 CURVE SMOOTH",
"122 430 LINE SMOOTH",
"122 549 OFFCURVE",
"164 592 OFFCURVE",
"282 591 CURVE SMOOTH",
"403 591 LINE SMOOTH",
"509 591 OFFCURVE",
"544 556 OFFCURVE",
"544 450 CURVE SMOOTH",
"544 438 OFFCURVE",
"553 429 OFFCURVE",
"565 429 CURVE SMOOTH",
"577 429 OFFCURVE",
"586 438 OFFCURVE",
"586 450 CURVE SMOOTH",
"586 579 OFFCURVE",
"532 633 OFFCURVE",
"403 633 CURVE SMOOTH",
"282 633 LINE SMOOTH",
"141 634 OFFCURVE",
"80 573 OFFCURVE",
"80 430 CURVE SMOOTH",
"80 202 LINE SMOOTH",
"80 60 OFFCURVE",
"141 -1 OFFCURVE",
"283 -1 CURVE SMOOTH"
);
}
);
width = 666;
},
{
background = {
paths = (
{
closed = 1;
nodes = (
"465 0 LINE SMOOTH",
"551.667 0 OFFCURVE",
"575 49.333 OFFCURVE",
"575 116 CURVE SMOOTH",
"575 149.333 OFFCURVE",
"563 166.333 OFFCURVE",
"539 167 CURVE",
"520.333 167 OFFCURVE",
"503 154.667 OFFCURVE",
"503 120 CURVE SMOOTH",
"503 85.333 OFFCURVE",
"494 72 OFFCURVE",
"458 72 CURVE SMOOTH",
"324 72 LINE SMOOTH",
"176 72 OFFCURVE",
"143 86 OFFCURVE",
"143 186 CURVE SMOOTH",
"143 450 LINE SMOOTH",
"143 548.667 OFFCURVE",
"176.667 564 OFFCURVE",
"306 564 CURVE SMOOTH",
"458 564 LINE",
"517.167 574.667 OFFCURVE",
"492.333 507.333 OFFCURVE",
"514 479 CURVE",
"521.333 472.333 OFFCURVE",
"529.667 469 OFFCURVE",
"539 469 CURVE SMOOTH",
"563 469 OFFCURVE",
"575 485.667 OFFCURVE",
"575 519 CURVE SMOOTH",
"575 552.333 OFFCURVE",
"567.5 580.167 OFFCURVE",
"552.5 602.5 CURVE SMOOTH",
"537.5 624.833 OFFCURVE",
"508.333 636 OFFCURVE",
"465 636 CURVE SMOOTH",
"306 636 LINE SMOOTH",
"144.667 636 OFFCURVE",
"71 597.333 OFFCURVE",
"71 452 CURVE SMOOTH",
"71 184 LINE SMOOTH",
"71 38.667 OFFCURVE",
"144 0 OFFCURVE",
"324 0 CURVE SMOOTH"
);
}
);
};
layerId = "3776B938-A14A-42B9-91A8-ACB6A1608662";
paths = (
{
closed = 1;
nodes = (
"375 0 LINE SMOOTH",
"477 0 OFFCURVE",
"533 56 OFFCURVE",
"533 159 CURVE SMOOTH",
"533 179 OFFCURVE",
"517 195 OFFCURVE",
"497 195 CURVE SMOOTH",
"477 195 OFFCURVE",
"461 179 OFFCURVE",
"461 159 CURVE SMOOTH",
"461 96 OFFCURVE",
"437 72 OFFCURVE",
"375 72 CURVE SMOOTH",
"284 72 LINE SMOOTH",
"181 72 OFFCURVE",
"136 118 OFFCURVE",
"136 223 CURVE SMOOTH",
"136 443 LINE SMOOTH",
"136 548 OFFCURVE",
"180 593 OFFCURVE",
"284 593 CURVE SMOOTH",
"375 593 LINE SMOOTH",
"437 593 OFFCURVE",
"461 569 OFFCURVE",
"461 506 CURVE SMOOTH",
"461 486 OFFCURVE",
"477 470 OFFCURVE",
"497 470 CURVE SMOOTH",
"517 470 OFFCURVE",
"533 486 OFFCURVE",
"533 506 CURVE SMOOTH",
"533 609 OFFCURVE",
"477 665 OFFCURVE",
"375 665 CURVE SMOOTH",
"284 665 LINE SMOOTH",
"140 665 OFFCURVE",
"64 588 OFFCURVE",
"64 443 CURVE SMOOTH",
"64 223 LINE SMOOTH",
"64 78 OFFCURVE",
"140 0 OFFCURVE",
"284 0 CURVE SMOOTH"
);
}
);
width = 600;
},
{
associatedMasterId = "0E6FACCE-B85C-44A4-8B06-9EFDFED90B40";
background = {
paths = (
{
closed = 1;
nodes = (
"391 0 LINE SMOOTH",
"475 0 OFFCURVE",
"486 49 OFFCURVE",
"486 110 CURVE SMOOTH",
"486 127 OFFCURVE",
"479 136 OFFCURVE",
"465 137 CURVE",
"451 137 OFFCURVE",
"444 126 OFFCURVE",
"444 105 CURVE SMOOTH",
"444 83 OFFCURVE",
"440 67 OFFCURVE",
"431 57 CURVE SMOOTH",
"422 47 OFFCURVE",
"407 42 OFFCURVE",
"384 42 CURVE SMOOTH",
"250 42 LINE SMOOTH",
"137 42 OFFCURVE",
"84 53 OFFCURVE",
"84 175 CURVE SMOOTH",
"84 461 LINE SMOOTH",
"84 583 OFFCURVE",
"137 594 OFFCURVE",
"250 594 CURVE SMOOTH",
"384 594 LINE SMOOTH",
"429 594 OFFCURVE",
"444 574 OFFCURVE",
"444 531 CURVE SMOOTH",
"444 510 OFFCURVE",
"451 499 OFFCURVE",
"465 499 CURVE",
"496 497 OFFCURVE",
"510 645 OFFCURVE",
"391 636 CURVE",
"250 636 LINE SMOOTH",
"109 636 OFFCURVE",
"42 601 OFFCURVE",
"42 461 CURVE SMOOTH",
"42 175 LINE SMOOTH",
"42 35 OFFCURVE",
"109 0 OFFCURVE",
"250 0 CURVE SMOOTH"
);
}
);
};
layerId = "44342F11-7069-414F-AC37-7DFD7A0252A3";
name = "1";
paths = (
{
closed = 0;
nodes = (
"491 500 LINE",
"491 583 OFFCURVE",
"451 623 OFFCURVE",
"369 623 CURVE",
"256 623 LINE",
"130 623 OFFCURVE",
"70 562 OFFCURVE",
"70 437 CURVE",
"70 206 LINE",
"70 81 OFFCURVE",
"130 19 OFFCURVE",
"257 19 CURVE",
"369 19 LINE",
"451 19 OFFCURVE",
"491 59 OFFCURVE",
"491 142 CURVE"
);
}
);
width = 566;
},
{
associatedMasterId = "B309FD91-69BF-47D2-8142-D25EBE917F3C";
background = {
paths = (
{
closed = 0;
nodes = (
"526 490 LINE",
"526 573 OFFCURVE",
"486 613 OFFCURVE",
"404 613 CURVE",
"291 613 LINE",
"165 613 OFFCURVE",
"105 552 OFFCURVE",
"105 427 CURVE",
"105 206 LINE",
"105 81 OFFCURVE",
"165 19 OFFCURVE",
"292 19 CURVE",
"404 19 LINE",
"486 19 OFFCURVE",
"526 59 OFFCURVE",
"526 142 CURVE"
);
}
);
};
layerId = "6BB556F6-1540-43E8-9D96-4BB4AD1FB6A9";
name = "1";
paths = (
{
closed = 1;
nodes = (
"421 0 LINE SMOOTH",
"515 0 OFFCURVE",
"564 49 OFFCURVE",
"564 144 CURVE SMOOTH",
"564 158 OFFCURVE",
"557 165 OFFCURVE",
"543 165 CURVE SMOOTH",
"529 165 OFFCURVE",
"522 158 OFFCURVE",
"522 144 CURVE SMOOTH",
"522 73 OFFCURVE",
"491 42 OFFCURVE",
"421 42 CURVE SMOOTH",
"285 42 LINE SMOOTH",
"173 42 OFFCURVE",
"122 94 OFFCURVE",
"122 208 CURVE SMOOTH",
"122 426 LINE SMOOTH",
"122 540 OFFCURVE",
"173 591 OFFCURVE",
"285 591 CURVE SMOOTH",
"421 591 LINE SMOOTH",
"491 591 OFFCURVE",
"522 560 OFFCURVE",
"522 489 CURVE SMOOTH",
"522 475 OFFCURVE",
"529 468 OFFCURVE",
"543 468 CURVE SMOOTH",
"557 468 OFFCURVE",
"564 475 OFFCURVE",
"564 489 CURVE SMOOTH",
"564 584 OFFCURVE",
"515 633 OFFCURVE",
"421 633 CURVE SMOOTH",
"285 633 LINE SMOOTH",
"149 633 OFFCURVE",
"80 563 OFFCURVE",
"80 426 CURVE SMOOTH",
"80 208 LINE SMOOTH",
"80 71 OFFCURVE",
"150 0 OFFCURVE",
"285 0 CURVE SMOOTH"
);
}
);
width = 614;
},
{
associatedMasterId = "0E6FACCE-B85C-44A4-8B06-9EFDFED90B40";
background = {
paths = (
{
closed = 0;
nodes = (
"549 449 LINE",
"549 570 OFFCURVE",
"507 611 OFFCURVE",
"391 611 CURVE",
"210 611 LINE",
"57 613 OFFCURVE",
"-2 558 OFFCURVE",
"-2 394 CURVE",
"-2 241 LINE",
"-2 77 OFFCURVE",
"57 21 OFFCURVE",
"209 21 CURVE",
"391 21 LINE",
"507 21 OFFCURVE",
"549 62 OFFCURVE",
"549 183 CURVE"
);
}
);
};
guideLines = (
{
position = "{496, 450}";
},
{
position = "{496, 183}";
}
);
layerId = "B1631B57-43F4-4A3F-9721-0BF73E7FE20D";
name = "2";
paths = (
{
closed = 0;
nodes = (
"549 450 LINE",
"549 570 OFFCURVE",
"508 612 OFFCURVE",
"393 612 CURVE",
"247 612 LINE",
"119 613 OFFCURVE",
"69 566 OFFCURVE",
"69 429 CURVE",
"69 207 LINE",
"69 69 OFFCURVE",
"119 22 OFFCURVE",
"246 22 CURVE",
"393 22 LINE",
"508 22 OFFCURVE",
"549 64 OFFCURVE",
"549 184 CURVE"
);
}
);
width = 566;
},
{
associatedMasterId = "B309FD91-69BF-47D2-8142-D25EBE917F3C";
background = {
paths = (
{
closed = 0;
nodes = (
"547 490 LINE",
"547 573 OFFCURVE",
"507 613 OFFCURVE",
"425 613 CURVE",
"312 613 LINE",
"186 613 OFFCURVE",
"126 552 OFFCURVE",
"126 427 CURVE",
"126 206 LINE",
"126 81 OFFCURVE",
"186 19 OFFCURVE",
"313 19 CURVE",
"425 19 LINE",
"507 19 OFFCURVE",
"547 59 OFFCURVE",
"547 142 CURVE"
);
}
);
};
layerId = "6DEF419B-FBB3-48BD-89F9-C32253AEE806";
name = "2";
paths = (
{
closed = 1;
nodes = (
"414 1 LINE SMOOTH",
"541 1 OFFCURVE",
"591 53 OFFCURVE",
"591 184 CURVE SMOOTH",
"591 196 OFFCURVE",
"582 205 OFFCURVE",
"570 205 CURVE SMOOTH",
"558 205 OFFCURVE",
"549 196 OFFCURVE",
"549 184 CURVE SMOOTH",
"549 75 OFFCURVE",
"517 43 OFFCURVE",
"414 43 CURVE SMOOTH",
"267 43 LINE SMOOTH",
"150 43 OFFCURVE",
"111 83 OFFCURVE",
"111 207 CURVE SMOOTH",
"111 429 LINE SMOOTH",
"111 553 OFFCURVE",
"150 592 OFFCURVE",
"268 591 CURVE SMOOTH",
"414 591 LINE SMOOTH",
"517 591 OFFCURVE",
"549 559 OFFCURVE",
"549 450 CURVE SMOOTH",
"549 438 OFFCURVE",
"558 429 OFFCURVE",
"570 429 CURVE SMOOTH",
"582 429 OFFCURVE",
"591 438 OFFCURVE",
"591 450 CURVE SMOOTH",
"591 581 OFFCURVE",
"541 633 OFFCURVE",
"414 633 CURVE SMOOTH",
"268 633 LINE SMOOTH",
"126 633 OFFCURVE",
"69 575 OFFCURVE",
"69 429 CURVE SMOOTH",
"69 207 LINE SMOOTH",
"69 60 OFFCURVE",
"126 1 OFFCURVE",
"267 1 CURVE SMOOTH"
);
}
);
width = 651;
}
);
leftKerningGroup = "80";
leftMetricsKey = O;
rightKerningGroup = "80";
rightMetricsKey = O;
unicode = 0043;
},
{
color = 4;
glyphname = D;
lastChange = "2016-07-21 22:06:59 +0000";
layers = (
{
background = {
components = (
{
name = O;
transform = "{1, 0, 0, 1, 3, 0}";
}
);
paths = (
{
closed = 1;
nodes = (
"337 0 LINE SMOOTH",
"477 0 OFFCURVE",
"544 35 OFFCURVE",
"544 175 CURVE SMOOTH",
"544 461 LINE SMOOTH",
"544 601 OFFCURVE",
"477 636 OFFCURVE",
"337 636 CURVE SMOOTH",
"119 636 LINE SMOOTH",
"106 636 OFFCURVE",
"100 626 OFFCURVE",
"100 605 CURVE SMOOTH",
"100 31 LINE SMOOTH",
"100 10 OFFCURVE",
"106 0 OFFCURVE",
"119 0 CURVE SMOOTH"
);
},
{
closed = 1;
nodes = (
"142 594 LINE",
"337 594 LINE SMOOTH",
"448 594 OFFCURVE",
"502 583 OFFCURVE",
"502 461 CURVE SMOOTH",
"502 175 LINE SMOOTH",
"502 53 OFFCURVE",
"448 42 OFFCURVE",
"337 42 CURVE SMOOTH",
"142 42 LINE"
);
}
);
};
layerId = "0E6FACCE-B85C-44A4-8B06-9EFDFED90B40";
paths = (
{
closed = 1;
nodes = (
"121 612 LINE",
"121 22 LINE",
"362 22 LINE",
"513 22 OFFCURVE",
"574 83 OFFCURVE",
"574 234 CURVE",
"574 400 LINE",
"574 551 OFFCURVE",
"513 612 OFFCURVE",
"362 612 CURVE"
);
}
);
width = 613;
},
{
anchors = (
{
name = bottom;
position = "{338, 0}";
},
{
name = center;
position = "{161, 321}";
},
{
name = top;
position = "{338, 633}";
}
);
background = {
components = (
{
name = H;
}
);
};
layerId = "B309FD91-69BF-47D2-8142-D25EBE917F3C";
paths = (
{
closed = 1;
nodes = (
"362 1 LINE SMOOTH",
"525 1 OFFCURVE",
"595 71 OFFCURVE",
"595 234 CURVE SMOOTH",
"595 400 LINE SMOOTH",
"595 563 OFFCURVE",
"525 633 OFFCURVE",
"362 633 CURVE SMOOTH",
"121 633 LINE SMOOTH",
"107 633 OFFCURVE",
"100 626 OFFCURVE",
"100 612 CURVE SMOOTH",
"100 22 LINE SMOOTH",
"100 8 OFFCURVE",
"107 1 OFFCURVE",
"121 1 CURVE SMOOTH"
);
},
{
closed = 1;
nodes = (
"142 591 LINE",
"362 591 LINE SMOOTH",
"501 591 OFFCURVE",
"553 539 OFFCURVE",
"553 400 CURVE SMOOTH",
"553 234 LINE SMOOTH",
"553 95 OFFCURVE",
"501 43 OFFCURVE",
"362 43 CURVE SMOOTH",
"142 43 LINE"
);
}
);
width = 675;
},
{
background = {
paths = (
{
closed = 1;
nodes = (
"336 0 LINE SMOOTH",
"514.667 0 OFFCURVE",
"588 38.667 OFFCURVE",
"588 184 CURVE SMOOTH",
"588 452 LINE SMOOTH",
"588 596 OFFCURVE",
"515.333 636 OFFCURVE",
"354 636 CURVE SMOOTH",
"118 636 LINE SMOOTH",
"95.333 636 OFFCURVE",
"84 621.333 OFFCURVE",
"84 592 CURVE SMOOTH",
"84 44 LINE SMOOTH",
"84 14.667 OFFCURVE",
"95.333 0 OFFCURVE",
"118 0 CURVE SMOOTH"
);
},
{
closed = 1;
nodes = (
"156 564 LINE",
"354 564 LINE SMOOTH",
"483.333 564 OFFCURVE",
"516 548.667 OFFCURVE",
"516 450 CURVE SMOOTH",
"516 186 LINE SMOOTH",
"516 86 OFFCURVE",
"484 72 OFFCURVE",
"336 72 CURVE SMOOTH",
"156 72 LINE"
);
}
);
};
layerId = "3776B938-A14A-42B9-91A8-ACB6A1608662";
width = 600;
}
);
leftKerningGroup = "80";
leftMetricsKey = H;
rightKerningGroup = "80";
rightMetricsKey = O;
unicode = 0044;
},
{
color = 4;
glyphname = E;
lastChange = "2016-07-21 23:01:39 +0000";
layers = (
{
background = {
paths = (
{
closed = 1;
nodes = (
"499 0 LINE SMOOTH",
"518.333 0 OFFCURVE",
"528 6.333 OFFCURVE",
"528 19 CURVE SMOOTH",
"528 34.333 OFFCURVE",
"518.333 42 OFFCURVE",
"499 42 CURVE SMOOTH",
"126 42 LINE",
"126 337 LINE",
"381 337 LINE SMOOTH",
"401 337 OFFCURVE",
"411 343.333 OFFCURVE",
"411 356 CURVE SMOOTH",
"411 371.333 OFFCURVE",
"401 379 OFFCURVE",
"381 379 CURVE SMOOTH",
"126 379 LINE",
"126 594 LINE",
"499 594 LINE SMOOTH",
"518.333 594 OFFCURVE",
"528 600.333 OFFCURVE",
"528 613 CURVE SMOOTH",
"528 628.333 OFFCURVE",
"518.333 636 OFFCURVE",
"499 636 CURVE SMOOTH",
"103 636 LINE SMOOTH",
"90.333 636 OFFCURVE",
"84 625.667 OFFCURVE",
"84 605 CURVE SMOOTH",
"84 31 LINE SMOOTH",
"84 10.333 OFFCURVE",
"90.333 0 OFFCURVE",
"103 0 CURVE SMOOTH"
);
}
);
};
layerId = "0E6FACCE-B85C-44A4-8B06-9EFDFED90B40";
paths = (
{
closed = 0;
nodes = (
"509 613 LINE",
"101 613 LINE",
"101 20 LINE",
"509 20 LINE"
);
},
{
closed = 0;
nodes = (
"101 356 LINE",
"389 356 LINE"
);
}
);
width = 600;
},
{
anchors = (
{
name = bottom;
position = "{310, 0}";
},
{
name = ogonek;
position = "{491, 0}";
},
{
name = top;
position = "{330, 633}";
},
{
name = topleft;
position = "{100, 633}";
}
);
background = {
paths = (
{
closed = 1;
nodes = (
"133 0 OFFCURVE",
"142 9 OFFCURVE",
"142 21 CURVE SMOOTH",
"142 300 LINE",
"565 300 LINE",
"565 21 LINE SMOOTH",
"565 9 OFFCURVE",
"574 0 OFFCURVE",
"586 0 CURVE SMOOTH",
"598 0 OFFCURVE",
"607 9 OFFCURVE",
"607 21 CURVE SMOOTH",
"607 613 LINE SMOOTH",
"607 625 OFFCURVE",
"598 634 OFFCURVE",
"586 634 CURVE SMOOTH",
"574 634 OFFCURVE",
"565 625 OFFCURVE",
"565 613 CURVE SMOOTH",
"565 342 LINE",
"142 342 LINE",
"142 613 LINE SMOOTH",
"142 625 OFFCURVE",
"133 634 OFFCURVE",
"121 634 CURVE SMOOTH",
"109 634 OFFCURVE",
"100 625 OFFCURVE",
"100 613 CURVE SMOOTH",
"100 21 LINE SMOOTH",
"100 9 OFFCURVE",
"109 0 OFFCURVE",
"121 0 CURVE SMOOTH"
);
}
);
};
layerId = "B309FD91-69BF-47D2-8142-D25EBE917F3C";
paths = (
{
closed = 1;
nodes = (
"499 0 LINE SMOOTH",
"511 0 OFFCURVE",
"520 9 OFFCURVE",
"520 21 CURVE SMOOTH",
"520 33 OFFCURVE",
"511 42 OFFCURVE",
"499 42 CURVE SMOOTH",
"142 42 LINE",
"142 300 LINE",
"379 300 LINE SMOOTH",
"391 300 OFFCURVE",
"400 309 OFFCURVE",
"400 321 CURVE SMOOTH",
"400 333 OFFCURVE",
"391 342 OFFCURVE",
"379 342 CURVE SMOOTH",
"142 342 LINE",
"142 591 LINE",
"499 591 LINE SMOOTH",
"511 591 OFFCURVE",
"520 600 OFFCURVE",
"520 612 CURVE SMOOTH",
"520 624 OFFCURVE",
"511 633 OFFCURVE",
"499 633 CURVE SMOOTH",
"121 633 LINE SMOOTH",
"107 633 OFFCURVE",
"100 626 OFFCURVE",
"100 612 CURVE SMOOTH",
"100 21 LINE SMOOTH",
"100 7 OFFCURVE",
"107 0 OFFCURVE",
"121 0 CURVE SMOOTH"
);
}
);
width = 580;
},
{
background = {
paths = (
{
closed = 1;
nodes = (
"544 0 LINE SMOOTH",
"573.333 0 OFFCURVE",
"588 11.333 OFFCURVE",
"588 34 CURVE SMOOTH",
"588 59.333 OFFCURVE",
"573.333 72 OFFCURVE",
"544 72 CURVE SMOOTH",
"156 72 LINE",
"156 322 LINE",
"421 322 LINE SMOOTH",
"454.333 322 OFFCURVE",
"471 333.333 OFFCURVE",
"471 356 CURVE SMOOTH",
"471 381.333 OFFCURVE",
"454.333 394 OFFCURVE",
"421 394 CURVE SMOOTH",
"156 394 LINE",
"156 564 LINE",
"544 564 LINE SMOOTH",
"573.333 564 OFFCURVE",
"588 575.333 OFFCURVE",
"588 598 CURVE SMOOTH",
"588 623.333 OFFCURVE",
"573.333 636 OFFCURVE",
"544 636 CURVE SMOOTH",
"118 636 LINE SMOOTH",
"95.333 636 OFFCURVE",
"84 621.333 OFFCURVE",
"84 592 CURVE SMOOTH",
"84 44 LINE SMOOTH",
"84 14.667 OFFCURVE",
"95.333 0 OFFCURVE",
"118 0 CURVE SMOOTH"
);
}
);
};
layerId = "3776B938-A14A-42B9-91A8-ACB6A1608662";
paths = (
{
closed = 1;
nodes = (
"509 0 LINE SMOOTH",
"528.882 0 OFFCURVE",
"545 16.118 OFFCURVE",
"545 36 CURVE SMOOTH",
"545 55.882 OFFCURVE",
"528.882 72 OFFCURVE",
"509 72 CURVE SMOOTH",
"137 72 LINE",
"137 336 LINE",
"389 336 LINE SMOOTH",
"408.882 336 OFFCURVE",
"425 352.118 OFFCURVE",
"425 372 CURVE SMOOTH",
"425 391.882 OFFCURVE",
"408.882 408 OFFCURVE",
"389 408 CURVE SMOOTH",
"137 408 LINE",
"137 593 LINE",
"509 593 LINE SMOOTH",
"528.882 593 OFFCURVE",
"545 609.118 OFFCURVE",
"545 629 CURVE SMOOTH",
"545 648.882 OFFCURVE",
"528.882 665 OFFCURVE",
"509 665 CURVE SMOOTH",
"101 665 LINE SMOOTH",
"77.6 665 OFFCURVE",
"65 652.4 OFFCURVE",
"65 629 CURVE SMOOTH",
"65 36 LINE SMOOTH",
"65 12.6 OFFCURVE",
"77.6 0 OFFCURVE",
"101 0 CURVE SMOOTH"
);
}
);
width = 600;
}
);
leftKerningGroup = "80";
leftMetricsKey = H;
rightKerningGroup = "80";
unicode = 0045;
},
{
color = 4;
glyphname = F;
lastChange = "2016-07-19 23:56:54 +0000";
layers = (
{
background = {
paths = (
{
closed = 1;
nodes = (
"84 -17 OFFCURVE",
"126 -17 OFFCURVE",
"126 23 CURVE SMOOTH",
"126 337 LINE",
"381 337 LINE SMOOTH",
"401 337 OFFCURVE",
"411 343.333 OFFCURVE",
"411 356 CURVE SMOOTH",
"411 371.333 OFFCURVE",
"401 379 OFFCURVE",
"381 379 CURVE SMOOTH",
"126 379 LINE",
"126 594 LINE",
"499 594 LINE SMOOTH",
"518.333 594 OFFCURVE",
"528 600.333 OFFCURVE",
"528 613 CURVE SMOOTH",
"528 628.333 OFFCURVE",
"518.333 636 OFFCURVE",
"499 636 CURVE SMOOTH",
"103 636 LINE SMOOTH",
"90.333 636 OFFCURVE",
"84 625.667 OFFCURVE",
"84 605 CURVE SMOOTH",
"84 23 LINE SMOOTH"
);
}
);
};
layerId = "0E6FACCE-B85C-44A4-8B06-9EFDFED90B40";
paths = (
{
closed = 0;
nodes = (
"509 613 LINE",
"101 613 LINE",
"101 20 LINE"
);
},
{
closed = 0;
nodes = (
"101 356 LINE",
"389 356 LINE"
);
}
);
width = 600;
},
{
anchors = (
{
name = bottom;
position = "{121, 0}";
},
{
name = top;
position = "{315, 633}";
}
);
background = {
paths = (
{
closed = 1;
nodes = (
"499 -1 LINE SMOOTH",
"511 -1 OFFCURVE",
"520 8 OFFCURVE",
"520 20 CURVE SMOOTH",
"520 32 OFFCURVE",
"511 41 OFFCURVE",
"499 41 CURVE SMOOTH",
"142 41 LINE",
"142 300 LINE",
"379 300 LINE SMOOTH",
"391 300 OFFCURVE",
"400 309 OFFCURVE",
"400 321 CURVE SMOOTH",
"400 333 OFFCURVE",
"391 342 OFFCURVE",
"379 342 CURVE SMOOTH",
"142 342 LINE",
"142 592 LINE",
"499 592 LINE SMOOTH",
"511 592 OFFCURVE",
"520 601 OFFCURVE",
"520 613 CURVE SMOOTH",
"520 625 OFFCURVE",
"511 634 OFFCURVE",
"499 634 CURVE SMOOTH",
"121 634 LINE SMOOTH",
"107 634 OFFCURVE",
"100 627 OFFCURVE",
"100 613 CURVE SMOOTH",
"100 20 LINE SMOOTH",
"100 6 OFFCURVE",
"107 -1 OFFCURVE",
"121 -1 CURVE SMOOTH"
);
}
);
};
layerId = "B309FD91-69BF-47D2-8142-D25EBE917F3C";
paths = (
{
closed = 1;
nodes = (
"135 0 OFFCURVE",
"142 7 OFFCURVE",
"142 21 CURVE SMOOTH",
"142 300 LINE",
"379 300 LINE SMOOTH",
"393 300 OFFCURVE",
"400 307 OFFCURVE",
"400 321 CURVE SMOOTH",
"400 335 OFFCURVE",
"393 342 OFFCURVE",
"379 342 CURVE SMOOTH",
"142 342 LINE",
"142 591 LINE",
"479 591 LINE SMOOTH",
"493 591 OFFCURVE",
"500 598 OFFCURVE",
"500 612 CURVE SMOOTH",
"500 626 OFFCURVE",
"493 633 OFFCURVE",
"479 633 CURVE SMOOTH",
"121 633 LINE SMOOTH",
"107 633 OFFCURVE",
"100 626 OFFCURVE",
"100 612 CURVE SMOOTH",
"100 21 LINE SMOOTH",
"100 7 OFFCURVE",
"107 0 OFFCURVE",
"121 0 CURVE SMOOTH"
);
}
);
width = 520;
},
{
background = {
paths = (
{
closed = 1;
nodes = (
"144 -7 OFFCURVE",
"156 7 OFFCURVE",
"156 35 CURVE SMOOTH",
"156 322 LINE",
"421 322 LINE SMOOTH",
"454.333 322 OFFCURVE",
"471 333.333 OFFCURVE",
"471 356 CURVE SMOOTH",
"471 381.333 OFFCURVE",
"454.333 394 OFFCURVE",
"421 394 CURVE SMOOTH",
"156 394 LINE",
"156 564 LINE",
"544 564 LINE SMOOTH",
"573.333 564 OFFCURVE",
"588 575.333 OFFCURVE",
"588 598 CURVE SMOOTH",
"588 623.333 OFFCURVE",
"573.333 636 OFFCURVE",
"544 636 CURVE SMOOTH",
"118 636 LINE SMOOTH",
"95.333 636 OFFCURVE",
"84 621.333 OFFCURVE",
"84 592 CURVE SMOOTH",
"84 36 LINE SMOOTH",
"84 7.333 OFFCURVE",
"96 -7 OFFCURVE",
"120 -7 CURVE SMOOTH"
);
}
);
};
layerId = "3776B938-A14A-42B9-91A8-ACB6A1608662";
width = 600;
}
);
leftKerningGroup = "80";
leftMetricsKey = H;
rightKerningGroup = "80";
unicode = 0046;
},
{
color = 4;
glyphname = G;
lastChange = "2016-07-19 23:56:56 +0000";
layers = (
{
background = {
paths = (
{
closed = 1;
nodes = (
"478 0 LINE SMOOTH",
"499 0 OFFCURVE",
"516 3 OFFCURVE",
"529 9 CURVE SMOOTH",
"558 22 OFFCURVE",
"573 54 OFFCURVE",
"573 106 CURVE SMOOTH",
"573 293 LINE",
"398 293 LINE SMOOTH",
"358 293 OFFCURVE",
"358 251 OFFCURVE",
"398 251 CURVE SMOOTH",
"531 251 LINE",
"531 108 LINE SMOOTH",
"531 60 OFFCURVE",
"516 42 OFFCURVE",
"471 42 CURVE SMOOTH",
"337 42 LINE SMOOTH",
"224 42 OFFCURVE",
"171 53 OFFCURVE",
"171 175 CURVE SMOOTH",
"171 461 LINE SMOOTH",
"171 583 OFFCURVE",
"224 594 OFFCURVE",
"337 594 CURVE SMOOTH",
"471 594 LINE SMOOTH",
"516 594 OFFCURVE",
"531 575 OFFCURVE",
"531 532 CURVE SMOOTH",
"531 510 OFFCURVE",
"538 499 OFFCURVE",
"552 499 CURVE",
"583 497 OFFCURVE",
"597 645 OFFCURVE",
"478 636 CURVE",
"337 636 LINE SMOOTH",
"268 636 OFFCURVE",
"227 630 OFFCURVE",
"187 606 CURVE SMOOTH",
"148 583 OFFCURVE",
"129 534 OFFCURVE",
"129 461 CURVE SMOOTH",
"129 175 LINE SMOOTH",
"129 102 OFFCURVE",
"148 53 OFFCURVE",
"187 30 CURVE SMOOTH",
"227 6 OFFCURVE",
"268 0 OFFCURVE",
"337 0 CURVE SMOOTH"
);
},
{
closed = 0;
nodes = (
"554 273 LINE",
"392 273 LINE"
);
}
);
};
layerId = "0E6FACCE-B85C-44A4-8B06-9EFDFED90B40";
paths = (
{
closed = 0;
nodes = (
"392 273 LINE",
"554 272 LINE",
"554 183 LINE",
"554 64 OFFCURVE",
"508 21 OFFCURVE",
"392 21 CURVE",
"272 21 LINE",
"142 21 OFFCURVE",
"90 73 OFFCURVE",
"90 203 CURVE",
"90 430 LINE",
"90 561 OFFCURVE",
"142 613 OFFCURVE",
"271 612 CURVE",
"392 612 LINE",
"508 612 OFFCURVE",
"554 569 OFFCURVE",
"554 450 CURVE"
);
}
);
width = 624;
},
{
anchors = (
{
name = bottom;
position = "{333, 0}";
},
{
name = top;
position = "{333, 633}";
}
);
background = {
components = (
{
name = C;
}
);
};
layerId = "B309FD91-69BF-47D2-8142-D25EBE917F3C";
paths = (
{
closed = 1;
nodes = (
"403 0 LINE SMOOTH",
"532 0 OFFCURVE",
"586 54 OFFCURVE",
"586 183 CURVE SMOOTH",
"586 272 LINE SMOOTH",
"586 286 OFFCURVE",
"579 293 OFFCURVE",
"565 293 CURVE SMOOTH",
"403 294 LINE SMOOTH",
"391 294 OFFCURVE",
"382 285 OFFCURVE",
"382 273 CURVE SMOOTH",
"382 261 OFFCURVE",
"391 252 OFFCURVE",
"403 252 CURVE SMOOTH",
"544 251 LINE",
"544 183 LINE SMOOTH",
"544 77 OFFCURVE",
"509 42 OFFCURVE",
"403 42 CURVE SMOOTH",
"283 42 LINE SMOOTH",
"165 42 OFFCURVE",
"122 85 OFFCURVE",
"122 203 CURVE SMOOTH",
"122 430 LINE SMOOTH",
"122 549 OFFCURVE",
"164 592 OFFCURVE",
"282 591 CURVE SMOOTH",
"403 591 LINE SMOOTH",
"509 591 OFFCURVE",
"544 556 OFFCURVE",
"544 450 CURVE SMOOTH",
"544 438 OFFCURVE",
"553 429 OFFCURVE",
"565 429 CURVE SMOOTH",
"577 429 OFFCURVE",
"586 438 OFFCURVE",
"586 450 CURVE SMOOTH",
"586 579 OFFCURVE",
"532 633 OFFCURVE",
"403 633 CURVE SMOOTH",
"282 633 LINE SMOOTH",
"141 634 OFFCURVE",
"80 573 OFFCURVE",
"80 430 CURVE SMOOTH",
"80 203 LINE SMOOTH",
"80 61 OFFCURVE",
"141 0 OFFCURVE",
"283 0 CURVE SMOOTH"
);
}
);
width = 666;
},
{
background = {
paths = (
{
closed = 1;
nodes = (
"465 0 LINE SMOOTH",
"551.667 0 OFFCURVE",
"575 45.667 OFFCURVE",
"575 115 CURVE SMOOTH",
"575 308 LINE",
"376 308 LINE SMOOTH",
"342.667 308 OFFCURVE",
"326 296 OFFCURVE",
"326 272 CURVE SMOOTH",
"326 248 OFFCURVE",
"342.667 236 OFFCURVE",
"376 236 CURVE SMOOTH",
"503 236 LINE",
"503 120 LINE SMOOTH",
"503 81.333 OFFCURVE",
"494 72 OFFCURVE",
"458 72 CURVE SMOOTH",
"306 72 LINE SMOOTH",
"175.333 72 OFFCURVE",
"143 86.667 OFFCURVE",
"143 184 CURVE SMOOTH",
"143 452 LINE SMOOTH",
"143 549.333 OFFCURVE",
"177.333 564 OFFCURVE",
"324 564 CURVE SMOOTH",
"458 564 LINE SMOOTH",
"494 564 OFFCURVE",
"503 553 OFFCURVE",
"503 513 CURVE SMOOTH",
"503 483.667 OFFCURVE",
"514.667 469 OFFCURVE",
"538 469 CURVE",
"539 470 LINE",
"563 470 OFFCURVE",
"575 486.667 OFFCURVE",
"575 520 CURVE SMOOTH",
"575 553.333 OFFCURVE",
"567.5 581 OFFCURVE",
"552.5 603 CURVE SMOOTH",
"537.5 625 OFFCURVE",
"508.333 636 OFFCURVE",
"465 636 CURVE SMOOTH",
"324 636 LINE SMOOTH",
"144 636 OFFCURVE",
"71 600.333 OFFCURVE",
"71 455 CURVE SMOOTH",
"71 181 LINE SMOOTH",
"71 38.333 OFFCURVE",
"143.333 0 OFFCURVE",
"306 0 CURVE SMOOTH"
);
}
);
};
layerId = "3776B938-A14A-42B9-91A8-ACB6A1608662";
width = 600;
}
);
leftKerningGroup = "80";
leftMetricsKey = O;
rightKerningGroup = "80";
rightMetricsKey = C;
unicode = 0047;
},
{
color = 4;
glyphname = H;
lastChange = "2016-07-21 19:01:17 +0000";
layers = (
{
background = {
paths = (
{
closed = 1;
nodes = (
"82 0 OFFCURVE",
"91 9 OFFCURVE",
"91 21 CURVE SMOOTH",
"91 322 LINE",
"534 322 LINE",
"534 21 LINE SMOOTH",
"534 9 OFFCURVE",
"543 0 OFFCURVE",
"555 0 CURVE SMOOTH",
"567 0 OFFCURVE",
"576 9 OFFCURVE",
"576 21 CURVE SMOOTH",
"576 613 LINE SMOOTH",
"576 625 OFFCURVE",
"567 634 OFFCURVE",
"555 634 CURVE SMOOTH",
"543 634 OFFCURVE",
"534 625 OFFCURVE",
"534 613 CURVE SMOOTH",
"534 364 LINE",
"91 364 LINE",
"91 613 LINE SMOOTH",
"91 625 OFFCURVE",
"82 634 OFFCURVE",
"70 634 CURVE SMOOTH",
"58 634 OFFCURVE",
"49 625 OFFCURVE",
"49 613 CURVE SMOOTH",
"49 21 LINE SMOOTH",
"49 9 OFFCURVE",
"58 0 OFFCURVE",
"70 0 CURVE SMOOTH"
);
}
);
};
layerId = "0E6FACCE-B85C-44A4-8B06-9EFDFED90B40";
paths = (
{
closed = 0;
nodes = (
"72 613 LINE",
"72 20 LINE"
);
},
{
closed = 0;
nodes = (
"72 346 LINE",
"556 346 LINE"
);
},
{
closed = 0;
nodes = (
"556 613 LINE",
"556 20 LINE"
);
}
);
width = 600;
},
{
anchors = (
{
name = bottom;
position = "{354, 0}";
},
{
name = center;
position = "{354, 461}";
},
{
name = top;
position = "{354, 633}";
},
{
name = topleft;
position = "{100, 633}";
}
);
background = {
paths = (
{
closed = 1;
nodes = (
"418 -1 LINE SMOOTH",
"562 -1 OFFCURVE",
"617 56 OFFCURVE",
"617 204 CURVE SMOOTH",
"617 427 LINE SMOOTH",
"617 575 OFFCURVE",
"561 633 OFFCURVE",
"418 633 CURVE SMOOTH",
"290 633 LINE SMOOTH",
"148 633 OFFCURVE",
"91 575 OFFCURVE",
"91 429 CURVE SMOOTH",
"91 205 LINE SMOOTH",
"91 58 OFFCURVE",
"148 -1 OFFCURVE",
"289 -1 CURVE SMOOTH"
);
},
{
closed = 1;
nodes = (
"172 41 OFFCURVE",
"133 81 OFFCURVE",
"133 205 CURVE SMOOTH",
"133 429 LINE SMOOTH",
"133 553 OFFCURVE",
"172 591 OFFCURVE",
"290 591 CURVE SMOOTH",
"418 591 LINE SMOOTH",
"537 591 OFFCURVE",
"575 552 OFFCURVE",
"575 427 CURVE SMOOTH",
"575 204 LINE SMOOTH",
"575 79 OFFCURVE",
"538 41 OFFCURVE",
"418 41 CURVE SMOOTH",
"289 41 LINE SMOOTH"
);
}
);
};
layerId = "B309FD91-69BF-47D2-8142-D25EBE917F3C";
paths = (
{
closed = 1;
nodes = (
"133 0 OFFCURVE",
"142 9 OFFCURVE",
"142 21 CURVE SMOOTH",
"142 300 LINE",
"565 300 LINE",
"565 21 LINE SMOOTH",
"565 9 OFFCURVE",
"574 0 OFFCURVE",
"586 0 CURVE SMOOTH",
"598 0 OFFCURVE",
"607 9 OFFCURVE",
"607 21 CURVE SMOOTH",
"607 613 LINE SMOOTH",
"607 625 OFFCURVE",
"598 634 OFFCURVE",
"586 634 CURVE SMOOTH",
"574 634 OFFCURVE",
"565 625 OFFCURVE",
"565 613 CURVE SMOOTH",
"565 342 LINE",
"142 342 LINE",
"142 613 LINE SMOOTH",
"142 625 OFFCURVE",
"133 634 OFFCURVE",
"121 634 CURVE SMOOTH",
"109 634 OFFCURVE",
"100 625 OFFCURVE",
"100 613 CURVE SMOOTH",
"100 21 LINE SMOOTH",
"100 9 OFFCURVE",
"109 0 OFFCURVE",
"121 0 CURVE SMOOTH"
);
}
);
width = 707;
},
{
anchors = (
{
name = bottom;
position = "{378, 0}";
},
{
name = center;
position = "{378, 494}";
},
{
name = top;
position = "{378, 665}";
},
{
name = topleft;
position = "{20, 665}";
}
);
background = {
paths = (
{
closed = 1;
nodes = (
"208 -7 OFFCURVE",
"220 7 OFFCURVE",
"220 35 CURVE SMOOTH",
"220 307 LINE",
"580 307 LINE",
"580 35 LINE SMOOTH",
"580 7 OFFCURVE",
"592 -7 OFFCURVE",
"616 -7 CURVE SMOOTH",
"640 -7 OFFCURVE",
"652 7 OFFCURVE",
"652 35 CURVE SMOOTH",
"652 600 LINE SMOOTH",
"652 629 OFFCURVE",
"640 643 OFFCURVE",
"616 643 CURVE SMOOTH",
"592 643 OFFCURVE",
"580 629 OFFCURVE",
"580 600 CURVE SMOOTH",
"580 379 LINE",
"220 379 LINE",
"220 600 LINE SMOOTH",
"220 629 OFFCURVE",
"207 643 OFFCURVE",
"182 643 CURVE SMOOTH",
"159 643 OFFCURVE",
"148 629 OFFCURVE",
"148 600 CURVE SMOOTH",
"148 35 LINE SMOOTH",
"148 7 OFFCURVE",
"160 -7 OFFCURVE",
"184 -7 CURVE SMOOTH"
);
}
);
};
layerId = "3776B938-A14A-42B9-91A8-ACB6A1608662";
paths = (
{
closed = 1;
nodes = (
"156 -1 OFFCURVE",
"172 15 OFFCURVE",
"172 35 CURVE SMOOTH",
"172 325 LINE",
"584 325 LINE",
"584 35 LINE SMOOTH",
"584 15 OFFCURVE",
"600 -1 OFFCURVE",
"620 -1 CURVE SMOOTH",
"640 -1 OFFCURVE",
"656 15 OFFCURVE",
"656 35 CURVE SMOOTH",
"656 628 LINE SMOOTH",
"656 648 OFFCURVE",
"640 664 OFFCURVE",
"620 664 CURVE SMOOTH",
"600 664 OFFCURVE",
"584 648 OFFCURVE",
"584 628 CURVE SMOOTH",
"584 397 LINE",
"172 397 LINE",
"172 628 LINE SMOOTH",
"172 648 OFFCURVE",
"156 664 OFFCURVE",
"136 664 CURVE SMOOTH",
"116 664 OFFCURVE",
"100 648 OFFCURVE",
"100 628 CURVE SMOOTH",
"100 35 LINE SMOOTH",
"100 15 OFFCURVE",
"116 -1 OFFCURVE",
"136 -1 CURVE SMOOTH"
);
}
);
width = 756;
}
);
leftKerningGroup = "80";
rightKerningGroup = "80";
unicode = 0048;
},
{
color = 4;
glyphname = I;
lastChange = "2016-07-21 22:53:02 +0000";
layers = (
{
background = {
paths = (
{
closed = 1;
nodes = (
"83 -16 OFFCURVE",
"125 -16 OFFCURVE",
"125 20 CURVE SMOOTH",
"125 615 LINE SMOOTH",
"125 652 OFFCURVE",
"83 652 OFFCURVE",
"83 615 CURVE SMOOTH",
"83 20 LINE SMOOTH"
);
}
);
};
layerId = "0E6FACCE-B85C-44A4-8B06-9EFDFED90B40";
paths = (
{
closed = 0;
nodes = (
"100 613 LINE",
"100 20 LINE"
);
}
);
width = 200;
},
{
anchors = (
{
name = bottom;
position = "{121, 0}";
},
{
name = ogonek;
position = "{142, 20}";
},
{
name = top;
position = "{121, 633}";
},
{
name = topleft;
position = "{100, 633}";
}
);
background = {
paths = (
{
closed = 1;
nodes = (
"105 -16 OFFCURVE",
"147 -16 OFFCURVE",
"147 20 CURVE SMOOTH",
"147 615 LINE SMOOTH",
"147 652 OFFCURVE",
"105 652 OFFCURVE",
"105 615 CURVE SMOOTH",
"105 20 LINE SMOOTH"
);
}
);
};
layerId = "B309FD91-69BF-47D2-8142-D25EBE917F3C";
paths = (
{
closed = 1;
nodes = (
"133 -1 OFFCURVE",
"142 8 OFFCURVE",
"142 20 CURVE SMOOTH",
"142 613 LINE SMOOTH",
"142 625 OFFCURVE",
"133 634 OFFCURVE",
"121 634 CURVE SMOOTH",
"109 634 OFFCURVE",
"100 625 OFFCURVE",
"100 613 CURVE SMOOTH",
"100 20 LINE SMOOTH",
"100 8 OFFCURVE",
"109 -1 OFFCURVE",
"121 -1 CURVE SMOOTH"
);
}
);
width = 242;
},
{
anchors = (
{
name = bottom;
position = "{100, 0}";
},
{
name = ogonek;
position = "{108, 0}";
},
{
name = top;
position = "{100, 665}";
},
{
name = topleft;
position = "{20, 665}";
}
);
background = {
paths = (
{
closed = 1;
nodes = (
"144 -7 OFFCURVE",
"156 6.333 OFFCURVE",
"156 33 CURVE SMOOTH",
"156 602 LINE SMOOTH",
"156 629.333 OFFCURVE",
"144 643 OFFCURVE",
"120 643 CURVE SMOOTH",
"96 643 OFFCURVE",
"84 629.333 OFFCURVE",
"84 602 CURVE SMOOTH",
"84 33 LINE SMOOTH",
"84 6.333 OFFCURVE",
"96 -7 OFFCURVE",
"120 -7 CURVE SMOOTH"
);
}
);
};
layerId = "3776B938-A14A-42B9-91A8-ACB6A1608662";
paths = (
{
closed = 1;
nodes = (
"124 -16 OFFCURVE",
"136 -4 OFFCURVE",
"136 20 CURVE SMOOTH",
"136 629 LINE SMOOTH",
"136 653 OFFCURVE",
"124 665 OFFCURVE",
"100 665 CURVE SMOOTH",
"76 665 OFFCURVE",
"64 653 OFFCURVE",
"64 629 CURVE SMOOTH",
"64 20 LINE SMOOTH",
"64 -4 OFFCURVE",
"76 -16 OFFCURVE",
"100 -16 CURVE SMOOTH"
);
}
);
width = 200;
}
);
leftKerningGroup = "80";
rightKerningGroup = "80";
unicode = 0049;
},
{
color = 4;
glyphname = J;
lastChange = "2016-07-20 23:09:06 +0000";
layers = (
{
background = {
paths = (
{
closed = 1;
nodes = (
"332 -8 OFFCURVE",
"373 -2 OFFCURVE",
"413 22 CURVE SMOOTH",
"452 45 OFFCURVE",
"471 94 OFFCURVE",
"471 167 CURVE SMOOTH",
"471 615 LINE SMOOTH",
"471 652 OFFCURVE",
"429 652 OFFCURVE",
"429 615 CURVE SMOOTH",
"429 167 LINE SMOOTH",
"429 45 OFFCURVE",
"376 34 OFFCURVE",
"263 34 CURVE SMOOTH",
"138 34 OFFCURVE",
"97 52 OFFCURVE",
"97 167 CURVE SMOOTH",
"97 186 OFFCURVE",
"90 195 OFFCURVE",
"77 195 CURVE SMOOTH",
"62 195 OFFCURVE",
"54 186 OFFCURVE",
"54 167 CURVE SMOOTH",
"54 94 OFFCURVE",
"73 45 OFFCURVE",
"112 22 CURVE SMOOTH",
"152 -2 OFFCURVE",
"194 -8 OFFCURVE",
"263 -8 CURVE SMOOTH"
);
}
);
};
layerId = "0E6FACCE-B85C-44A4-8B06-9EFDFED90B40";
paths = (
{
closed = 0;
nodes = (
"60 184 LINE",
"60 65 OFFCURVE",
"106 22 OFFCURVE",
"222 22 CURVE",
"289 22 LINE",
"405 22 OFFCURVE",
"451 65 OFFCURVE",
"451 184 CURVE",
"451 612 LINE"
);
}
);
width = 541;
},
{
anchors = (
{
name = bottom;
position = "{260, 0}";
},
{
name = top;
position = "{422, 633}";
}
);
background = {
paths = (
{
closed = 1;
nodes = (
"261 -8 OFFCURVE",
"302 -2 OFFCURVE",
"342 22 CURVE SMOOTH",
"381 45 OFFCURVE",
"400 94 OFFCURVE",
"400 167 CURVE SMOOTH",
"400 615 LINE SMOOTH",
"400 652 OFFCURVE",
"358 652 OFFCURVE",
"358 615 CURVE SMOOTH",
"358 167 LINE SMOOTH",
"358 45 OFFCURVE",
"305 34 OFFCURVE",
"192 34 CURVE SMOOTH",
"67 34 OFFCURVE",
"26 52 OFFCURVE",
"26 167 CURVE SMOOTH",
"26 186 OFFCURVE",
"19 195 OFFCURVE",
"6 195 CURVE SMOOTH",
"-9 195 OFFCURVE",
"-17 186 OFFCURVE",
"-17 167 CURVE SMOOTH",
"-17 94 OFFCURVE",
"2 45 OFFCURVE",
"41 22 CURVE SMOOTH",
"81 -2 OFFCURVE",
"123 -8 OFFCURVE",
"192 -8 CURVE SMOOTH"
);
}
);
};
layerId = "B309FD91-69BF-47D2-8142-D25EBE917F3C";
paths = (
{
closed = 1;
nodes = (
"260 0 LINE SMOOTH",
"389 0 OFFCURVE",
"443 54 OFFCURVE",
"443 183 CURVE SMOOTH",
"443 612 LINE SMOOTH",
"443 624 OFFCURVE",
"434 633 OFFCURVE",
"422 633 CURVE SMOOTH",
"410 633 OFFCURVE",
"401 624 OFFCURVE",
"401 612 CURVE SMOOTH",
"401 183 LINE SMOOTH",
"401 77 OFFCURVE",
"366 42 OFFCURVE",
"260 42 CURVE SMOOTH",
"234 42 LINE SMOOTH",
"128 42 OFFCURVE",
"93 77 OFFCURVE",
"93 183 CURVE SMOOTH",
"93 195 OFFCURVE",
"84 204 OFFCURVE",
"72 204 CURVE SMOOTH",
"60 204 OFFCURVE",
"51 195 OFFCURVE",
"51 183 CURVE SMOOTH",
"51 54 OFFCURVE",
"105 0 OFFCURVE",
"234 0 CURVE SMOOTH"
);
}
);
width = 523;
},
{
background = {
paths = (
{
closed = 1;
nodes = (
"437.333 -8 OFFCURVE",
"510 30.333 OFFCURVE",
"510 173 CURVE SMOOTH",
"510 602 LINE SMOOTH",
"510 629.333 OFFCURVE",
"498 643 OFFCURVE",
"474 643 CURVE SMOOTH",
"455.333 643 OFFCURVE",
"438 631 OFFCURVE",
"438 603 CURVE SMOOTH",
"438 176 LINE SMOOTH",
"438 80 OFFCURVE",
"404.167 64 OFFCURVE",
"271.5 64 CURVE SMOOTH",
"138.833 64 OFFCURVE",
"106 79.333 OFFCURVE",
"106 182 CURVE SMOOTH",
"106 207.333 OFFCURVE",
"92.333 225 OFFCURVE",
"71 225 CURVE SMOOTH",
"45.667 225 OFFCURVE",
"33 210.667 OFFCURVE",
"33 182 CURVE SMOOTH",
"33 103.333 OFFCURVE",
"54 51.333 OFFCURVE",
"96 26 CURVE SMOOTH",
"140 -0.667 OFFCURVE",
"189.333 -8 OFFCURVE",
"272 -8 CURVE SMOOTH"
);
}
);
};
layerId = "3776B938-A14A-42B9-91A8-ACB6A1608662";
width = 600;
}
);
leftKerningGroup = "80";
rightKerningGroup = "80";
rightMetricsKey = O;
unicode = 004A;
},
{
color = 4;
glyphname = K;
lastChange = "2016-07-19 23:57:50 +0000";
layers = (
{
background = {
paths = (
{
closed = 1;
nodes = (
"498 -25 OFFCURVE",
"532 7 OFFCURVE",
"506 33 CURVE",
"234 357 LINE",
"440 603 LINE SMOOTH",
"463 631 OFFCURVE",
"432 661 OFFCURVE",
"408 630 CURVE",
"148 321 LINE",
"148 615 LINE SMOOTH",
"148 652 OFFCURVE",
"106 652 OFFCURVE",
"106 615 CURVE SMOOTH",
"106 20 LINE SMOOTH",
"106 -16 OFFCURVE",
"148 -16 OFFCURVE",
"148 20 CURVE SMOOTH",
"148 255 LINE",
"206 325 LINE",
"474 6 LINE"
);
}
);
};
layerId = "0E6FACCE-B85C-44A4-8B06-9EFDFED90B40";
paths = (
{
closed = 1;
nodes = (
"134 0 OFFCURVE",
"143 9 OFFCURVE",
"143 21 CURVE SMOOTH",
"143 258 LINE",
"215 332 LINE",
"481 8 LINE SMOOTH",
"485 3 OFFCURVE",
"490 0 OFFCURVE",
"497 0 CURVE SMOOTH",
"509 0 OFFCURVE",
"518 9 OFFCURVE",
"518 21 CURVE SMOOTH",
"518 26 OFFCURVE",
"516 31 OFFCURVE",
"513 34 CURVE SMOOTH",
"245 362 LINE",
"478 600 LINE SMOOTH",
"482 604 OFFCURVE",
"484 609 OFFCURVE",
"484 615 CURVE SMOOTH",
"484 627 OFFCURVE",
"475 636 OFFCURVE",
"463 636 CURVE SMOOTH",
"457 636 OFFCURVE",
"452 634 OFFCURVE",
"448 630 CURVE SMOOTH",
"143 318 LINE",
"143 615 LINE SMOOTH",
"143 627 OFFCURVE",
"134 636 OFFCURVE",
"122 636 CURVE SMOOTH",
"110 636 OFFCURVE",
"101 627 OFFCURVE",
"101 615 CURVE SMOOTH",
"101 21 LINE SMOOTH",
"101 9 OFFCURVE",
"110 0 OFFCURVE",
"122 0 CURVE SMOOTH"
);
}
);
width = 557;
},
{
anchors = (
{
name = bottom;
position = "{279, 0}";
},
{
name = top;
position = "{269, 633}";
}
);
background = {
paths = (
{
closed = 1;
nodes = (
"475 -25 OFFCURVE",
"509 7 OFFCURVE",
"483 33 CURVE",
"211 357 LINE",
"417 603 LINE SMOOTH",
"440 631 OFFCURVE",
"409 661 OFFCURVE",
"385 630 CURVE",
"125 321 LINE",
"125 615 LINE SMOOTH",
"125 652 OFFCURVE",
"83 652 OFFCURVE",
"83 615 CURVE SMOOTH",
"83 20 LINE SMOOTH",
"83 -16 OFFCURVE",
"125 -16 OFFCURVE",
"125 20 CURVE SMOOTH",
"125 255 LINE",
"183 325 LINE",
"451 6 LINE"
);
}
);
};
layerId = "B309FD91-69BF-47D2-8142-D25EBE917F3C";
paths = (
{
closed = 1;
nodes = (
"133 0 OFFCURVE",
"142 9 OFFCURVE",
"142 21 CURVE SMOOTH",
"142 258 LINE",
"214 332 LINE",
"480 8 LINE SMOOTH",
"484 3 OFFCURVE",
"489 0 OFFCURVE",
"496 0 CURVE SMOOTH",
"508 0 OFFCURVE",
"517 9 OFFCURVE",
"517 21 CURVE SMOOTH",
"517 26 OFFCURVE",
"515 31 OFFCURVE",
"512 34 CURVE SMOOTH",
"244 362 LINE",
"477 600 LINE SMOOTH",
"481 604 OFFCURVE",
"483 609 OFFCURVE",
"483 615 CURVE SMOOTH",
"483 627 OFFCURVE",
"474 636 OFFCURVE",
"462 636 CURVE SMOOTH",
"456 636 OFFCURVE",
"451 634 OFFCURVE",
"447 630 CURVE SMOOTH",
"142 318 LINE",
"142 615 LINE SMOOTH",
"142 627 OFFCURVE",
"133 636 OFFCURVE",
"121 636 CURVE SMOOTH",
"109 636 OFFCURVE",
"100 627 OFFCURVE",
"100 615 CURVE SMOOTH",
"100 21 LINE SMOOTH",
"100 9 OFFCURVE",
"109 0 OFFCURVE",
"121 0 CURVE SMOOTH"
);
}
);
width = 537;
},
{
background = {
paths = (
{
closed = 1;
nodes = (
"144 -7 OFFCURVE",
"156 7 OFFCURVE",
"156 35 CURVE SMOOTH",
"156 264 LINE",
"199 316 LINE",
"485 12 LINE",
"524.844 -35.314 OFFCURVE",
"574.715 16.099 OFFCURVE",
"541 55 CURVE",
"251 354 LINE",
"475 581 LINE",
"507.017 618.353 OFFCURVE",
"462.108 672.18 OFFCURVE",
"419 624 CURVE",
"156 346 LINE",
"156 600 LINE SMOOTH",
"156 630.667 OFFCURVE",
"138.667 643 OFFCURVE",
"120 643 CURVE SMOOTH",
"96 643 OFFCURVE",
"84 629.333 OFFCURVE",
"84 602 CURVE SMOOTH",
"84 33 LINE SMOOTH",
"84 6.333 OFFCURVE",
"96 -7 OFFCURVE",
"120 -7 CURVE SMOOTH"
);
}
);
};
layerId = "3776B938-A14A-42B9-91A8-ACB6A1608662";
paths = (
{
closed = 1;
nodes = (
"134 0 OFFCURVE",
"143 9 OFFCURVE",
"143 21 CURVE SMOOTH",
"143 258 LINE",
"215 332 LINE",
"481 8 LINE SMOOTH",
"485 3 OFFCURVE",
"490 0 OFFCURVE",
"497 0 CURVE SMOOTH",
"509 0 OFFCURVE",
"518 9 OFFCURVE",
"518 21 CURVE SMOOTH",
"518 26 OFFCURVE",
"516 31 OFFCURVE",
"513 34 CURVE SMOOTH",
"245 362 LINE",
"478 600 LINE SMOOTH",
"482 604 OFFCURVE",
"484 609 OFFCURVE",
"484 615 CURVE SMOOTH",
"484 627 OFFCURVE",
"475 636 OFFCURVE",
"463 636 CURVE SMOOTH",
"457 636 OFFCURVE",
"452 634 OFFCURVE",
"448 630 CURVE SMOOTH",
"143 318 LINE",
"143 615 LINE SMOOTH",
"143 627 OFFCURVE",
"134 636 OFFCURVE",
"122 636 CURVE SMOOTH",
"110 636 OFFCURVE",
"101 627 OFFCURVE",
"101 615 CURVE SMOOTH",
"101 21 LINE SMOOTH",
"101 9 OFFCURVE",
"110 0 OFFCURVE",
"122 0 CURVE SMOOTH"
);
}
);
width = 600;
}
);
leftKerningGroup = "80";
rightKerningGroup = "80";
unicode = 004B;
},
{
color = 4;
glyphname = L;
lastChange = "2016-07-21 19:11:29 +0000";
layers = (
{
background = {
paths = (
{
closed = 1;
nodes = (
"444 0 LINE SMOOTH",
"481.333 0 OFFCURVE",
"481.333 42 OFFCURVE",
"444 42 CURVE SMOOTH",
"126 42 LINE",
"126 615 LINE SMOOTH",
"126 652.333 OFFCURVE",
"84 652.333 OFFCURVE",
"84 615 CURVE SMOOTH",
"84 31 LINE SMOOTH",
"84 10.333 OFFCURVE",
"90.333 0 OFFCURVE",
"103 0 CURVE SMOOTH"
);
}
);
};
layerId = "0E6FACCE-B85C-44A4-8B06-9EFDFED90B40";
paths = (
{
closed = 0;
nodes = (
"101 613 LINE",
"101 20 LINE",
"456 20 LINE"
);
}
);
width = 496;
},
{
anchors = (
{
name = bottom;
position = "{249, 0}";
},
{
name = center;
position = "{126, 317}";
},
{
name = top;
position = "{249, 633}";
},
{
name = topright;
position = "{135, 633}";
}
);
background = {
paths = (
{
closed = 1;
nodes = (
"464 0 LINE SMOOTH",
"501 0 OFFCURVE",
"501 42 OFFCURVE",
"464 42 CURVE SMOOTH",
"146 42 LINE",
"146 615 LINE SMOOTH",
"146 652 OFFCURVE",
"104 652 OFFCURVE",
"104 615 CURVE SMOOTH",
"104 31 LINE SMOOTH",
"104 10 OFFCURVE",
"110 0 OFFCURVE",
"123 0 CURVE SMOOTH"
);
}
);
};
layerId = "B309FD91-69BF-47D2-8142-D25EBE917F3C";
paths = (
{
closed = 1;
nodes = (
"446 0 LINE SMOOTH",
"460 0 OFFCURVE",
"467 7 OFFCURVE",
"467 21 CURVE SMOOTH",
"467 35 OFFCURVE",
"460 42 OFFCURVE",
"446 42 CURVE SMOOTH",
"142 42 LINE",
"142 612 LINE SMOOTH",
"142 626 OFFCURVE",
"135 633 OFFCURVE",
"121 633 CURVE SMOOTH",
"107 633 OFFCURVE",
"100 626 OFFCURVE",
"100 612 CURVE SMOOTH",
"100 21 LINE SMOOTH",
"100 7 OFFCURVE",
"107 0 OFFCURVE",
"121 0 CURVE SMOOTH"
);
}
);
width = 497;
},
{
background = {
paths = (
{
closed = 1;
nodes = (
"489 0 LINE SMOOTH",
"517.667 0 OFFCURVE",
"532 12 OFFCURVE",
"532 36 CURVE SMOOTH",
"532 60 OFFCURVE",
"517.667 72 OFFCURVE",
"489 72 CURVE SMOOTH",
"156 72 LINE",
"156 603 LINE SMOOTH",
"156 656.804 OFFCURVE",
"84 656.804 OFFCURVE",
"84 603 CURVE SMOOTH",
"84 43 LINE SMOOTH",
"84 14.333 OFFCURVE",
"95.333 0 OFFCURVE",
"118 0 CURVE SMOOTH"
);
}
);
};
layerId = "3776B938-A14A-42B9-91A8-ACB6A1608662";
width = 600;
}
);
leftKerningGroup = "80";
leftMetricsKey = H;
rightKerningGroup = "80";
unicode = 004C;
},
{
color = 4;
glyphname = M;
lastChange = "2016-07-19 23:57:58 +0000";
layers = (
{
background = {
paths = (
{
closed = 1;
nodes = (
"87 -17 OFFCURVE",
"129 -17 OFFCURVE",
"129 23 CURVE SMOOTH",
"129 557 LINE",
"307 285 LINE",
"314 277 OFFCURVE",
"325 277 OFFCURVE",
"332 285 CURVE",
"510 557 LINE",
"510 23 LINE SMOOTH",
"510 -17 OFFCURVE",
"552 -17 OFFCURVE",
"552 23 CURVE SMOOTH",
"552 612 LINE SMOOTH",
"552 633 OFFCURVE",
"545 643 OFFCURVE",
"532 643 CURVE SMOOTH",
"523 643 OFFCURVE",
"514 637 OFFCURVE",
"507 626 CURVE SMOOTH",
"319 342 LINE",
"132 626 LINE SMOOTH",
"125 637 OFFCURVE",
"116 643 OFFCURVE",
"106 643 CURVE SMOOTH",
"93 643 OFFCURVE",
"87 633 OFFCURVE",
"87 612 CURVE SMOOTH",
"87 23 LINE SMOOTH"
);
}
);
};
layerId = "0E6FACCE-B85C-44A4-8B06-9EFDFED90B40";
paths = (
{
closed = 0;
nodes = (
"51 612 LINE",
"51 20 LINE"
);
},
{
closed = 0;
nodes = (
"596 612 LINE",
"596 20 LINE"
);
},
{
closed = 0;
nodes = (
"53 612 LINE",
"323 207 LINE"
);
},
{
closed = 0;
nodes = (
"595 612 LINE",
"325 207 LINE"
);
}
);
width = 638;
},
{
anchors = (
{
name = bottom;
position = "{394, 0}";
},
{
name = top;
position = "{394, 633}";
}
);
background = {
paths = (
{
closed = 1;
nodes = (
"224 -17 OFFCURVE",
"266 -17 OFFCURVE",
"266 23 CURVE SMOOTH",
"266 557 LINE",
"444 285 LINE",
"451 277 OFFCURVE",
"462 277 OFFCURVE",
"469 285 CURVE",
"647 557 LINE",
"647 23 LINE SMOOTH",
"647 -17 OFFCURVE",
"689 -17 OFFCURVE",
"689 23 CURVE SMOOTH",
"689 612 LINE SMOOTH",
"689 633 OFFCURVE",
"682 643 OFFCURVE",
"669 643 CURVE SMOOTH",
"660 643 OFFCURVE",
"651 637 OFFCURVE",
"644 626 CURVE SMOOTH",
"456 342 LINE",
"269 626 LINE SMOOTH",
"262 637 OFFCURVE",
"253 643 OFFCURVE",
"243 643 CURVE SMOOTH",
"230 643 OFFCURVE",
"224 633 OFFCURVE",
"224 612 CURVE SMOOTH",
"224 23 LINE SMOOTH"
);
}
);
};
layerId = "B309FD91-69BF-47D2-8142-D25EBE917F3C";
paths = (
{
closed = 1;
nodes = (
"133 -1 OFFCURVE",
"142 8 OFFCURVE",
"142 20 CURVE SMOOTH",
"142 546 LINE",
"375 196 LINE SMOOTH",
"379 190 OFFCURVE",
"386 186 OFFCURVE",
"393 186 CURVE SMOOTH",
"393 186 OFFCURVE",
"394 186 OFFCURVE",
"394 186 CURVE",
"394 186 OFFCURVE",
"395 186 OFFCURVE",
"395 186 CURVE SMOOTH",
"402 186 OFFCURVE",
"409 190 OFFCURVE",
"413 196 CURVE SMOOTH",
"645 544 LINE",
"645 20 LINE SMOOTH",
"645 8 OFFCURVE",
"654 -1 OFFCURVE",
"666 -1 CURVE SMOOTH",
"678 -1 OFFCURVE",
"687 8 OFFCURVE",
"687 20 CURVE SMOOTH",
"687 612 LINE SMOOTH",
"687 624 OFFCURVE",
"678 633 OFFCURVE",
"666 633 CURVE SMOOTH",
"666 633 LINE",
"665 633 LINE SMOOTH",
"658 633 OFFCURVE",
"651 629 OFFCURVE",
"647 623 CURVE SMOOTH",
"394 243 LINE",
"141 623 LINE SMOOTH",
"137 629 OFFCURVE",
"130 633 OFFCURVE",
"123 633 CURVE SMOOTH",
"123 633 OFFCURVE",
"122 633 OFFCURVE",
"122 633 CURVE",
"122 633 OFFCURVE",
"121 633 OFFCURVE",
"121 633 CURVE SMOOTH",
"109 633 OFFCURVE",
"100 624 OFFCURVE",
"100 612 CURVE SMOOTH",
"100 20 LINE SMOOTH",
"100 8 OFFCURVE",
"109 -1 OFFCURVE",
"121 -1 CURVE SMOOTH"
);
}
);
width = 787;
},
{
background = {
paths = (
{
closed = 1;
nodes = (
"144 -7 OFFCURVE",
"156 8 OFFCURVE",
"156 38 CURVE SMOOTH",
"156 523 LINE",
"319 291 LINE",
"335 275 OFFCURVE",
"358 275 OFFCURVE",
"374 291 CURVE",
"537 523 LINE",
"537 38 LINE SMOOTH",
"537 8 OFFCURVE",
"549 -7 OFFCURVE",
"573 -7 CURVE SMOOTH",
"597 -7 OFFCURVE",
"609 7 OFFCURVE",
"609 35 CURVE SMOOTH",
"609 600 LINE SMOOTH",
"609 628.667 OFFCURVE",
"597.333 643 OFFCURVE",
"574 643 CURVE SMOOTH",
"560 643 OFFCURVE",
"547.667 635.333 OFFCURVE",
"537 620 CURVE SMOOTH",
"346 354 LINE",
"156 620 LINE SMOOTH",
"145.333 635.333 OFFCURVE",
"132.667 643 OFFCURVE",
"118 643 CURVE SMOOTH",
"95.333 643 OFFCURVE",
"84 628.667 OFFCURVE",
"84 600 CURVE SMOOTH",
"84 35 LINE SMOOTH",
"84 7 OFFCURVE",
"96 -7 OFFCURVE",
"120 -7 CURVE SMOOTH"
);
}
);
};
layerId = "3776B938-A14A-42B9-91A8-ACB6A1608662";
width = 600;
}
);
leftKerningGroup = "80";
leftMetricsKey = H;
rightKerningGroup = "80";
rightMetricsKey = H;
unicode = 004D;
},
{
color = 4;
glyphname = N;
lastChange = "2016-07-19 23:58:04 +0000";
layers = (
{
background = {
paths = (
{
closed = 0;
nodes = (
"102 613 LINE",
"102 20 LINE"
);
},
{
closed = 0;
nodes = (
"102 346 LINE",
"586 346 LINE"
);
},
{
closed = 0;
nodes = (
"586 613 LINE",
"586 20 LINE"
);
}
);
};
layerId = "0E6FACCE-B85C-44A4-8B06-9EFDFED90B40";
paths = (
{
closed = 0;
nodes = (
"101 612 LINE",
"101 19 LINE"
);
},
{
closed = 0;
nodes = (
"103 612 LINE",
"564 19 LINE"
);
},
{
closed = 0;
nodes = (
"566 612 LINE",
"566 19 LINE"
);
}
);
width = 600;
},
{
anchors = (
{
name = bottom;
position = "{364, 0}";
},
{
name = top;
position = "{364, 633}";
}
);
background = {
components = (
{
name = H;
transform = "{1, 0, 0, 1, 40, 0}";
}
);
};
layerId = "B309FD91-69BF-47D2-8142-D25EBE917F3C";
paths = (
{
closed = 1;
nodes = (
"133 -2 OFFCURVE",
"142 7 OFFCURVE",
"142 19 CURVE SMOOTH",
"142 553 LINE",
"567 6 LINE SMOOTH",
"571 1 OFFCURVE",
"577 -2 OFFCURVE",
"584 -2 CURVE SMOOTH",
"584 -2 OFFCURVE",
"585 -2 OFFCURVE",
"585 -2 CURVE",
"585 -2 OFFCURVE",
"586 -2 OFFCURVE",
"586 -2 CURVE SMOOTH",
"598 -2 OFFCURVE",
"607 7 OFFCURVE",
"607 19 CURVE SMOOTH",
"607 612 LINE SMOOTH",
"607 624 OFFCURVE",
"598 633 OFFCURVE",
"586 633 CURVE SMOOTH",
"574 633 OFFCURVE",
"565 624 OFFCURVE",
"565 612 CURVE SMOOTH",
"565 78 LINE",
"140 625 LINE SMOOTH",
"136 630 OFFCURVE",
"130 633 OFFCURVE",
"123 633 CURVE SMOOTH",
"123 633 OFFCURVE",
"122 633 OFFCURVE",
"122 633 CURVE",
"122 633 OFFCURVE",
"121 633 OFFCURVE",
"121 633 CURVE SMOOTH",
"109 633 OFFCURVE",
"100 624 OFFCURVE",
"100 612 CURVE SMOOTH",
"100 19 LINE SMOOTH",
"100 7 OFFCURVE",
"109 -2 OFFCURVE",
"121 -2 CURVE SMOOTH"
);
}
);
width = 707;
},
{
background = {
paths = (
{
closed = 1;
nodes = (
"144 -7 OFFCURVE",
"156 6 OFFCURVE",
"156 32 CURVE SMOOTH",
"156 517 LINE",
"525 0 LINE SMOOTH",
"528.333 -4.667 OFFCURVE",
"537.667 -7 OFFCURVE",
"553 -7 CURVE SMOOTH",
"576.333 -7 OFFCURVE",
"588 7 OFFCURVE",
"588 35 CURVE SMOOTH",
"588 600 LINE SMOOTH",
"588 628.667 OFFCURVE",
"576 643 OFFCURVE",
"552 643 CURVE SMOOTH",
"528 643 OFFCURVE",
"516 627.667 OFFCURVE",
"516 597 CURVE SMOOTH",
"516 118 LINE",
"156 620 LINE SMOOTH",
"145.333 635.333 OFFCURVE",
"132.667 643 OFFCURVE",
"118 643 CURVE SMOOTH",
"95.333 643 OFFCURVE",
"84 628.667 OFFCURVE",
"84 600 CURVE SMOOTH",
"84 35 LINE SMOOTH",
"84 7 OFFCURVE",
"96 -7 OFFCURVE",
"120 -7 CURVE SMOOTH"
);
}
);
};
layerId = "3776B938-A14A-42B9-91A8-ACB6A1608662";
paths = (
{
closed = 0;
nodes = (
"101 612 LINE",
"101 19 LINE"
);
},
{
closed = 0;
nodes = (
"103 612 LINE",
"506 19 LINE"
);
},
{
closed = 0;
nodes = (
"508 612 LINE",
"508 19 LINE"
);
}
);
width = 600;
}
);
leftKerningGroup = "80";
leftMetricsKey = H;
rightKerningGroup = "80";
rightMetricsKey = H;
unicode = 004E;
},
{
color = 4;
glyphname = O;
lastChange = "2016-07-21 23:04:52 +0000";
layers = (
{
background = {
hints = (
{
place = "{546.922, 0}";
}
);
paths = (
{
closed = 1;
nodes = (
"518 19 OFFCURVE",
"574 75 OFFCURVE",
"574 238 CURVE",
"574 393 LINE",
"574 556 OFFCURVE",
"518 612 OFFCURVE",
"362 612 CURVE",
"302 612 LINE",
"150 614 OFFCURVE",
"90 559 OFFCURVE",
"90 395 CURVE",
"90 239 LINE",
"90 75 OFFCURVE",
"150 19 OFFCURVE",
"301 19 CURVE",
"362 19 LINE"
);
}
);
};
hints = (
{
place = "{546.922, 0}";
}
);
layerId = "0E6FACCE-B85C-44A4-8B06-9EFDFED90B40";
paths = (
{
closed = 1;
nodes = (
"522 22 OFFCURVE",
"574 74 OFFCURVE",
"574 204 CURVE",
"574 430 LINE",
"574 560 OFFCURVE",
"522 612 OFFCURVE",
"392 612 CURVE",
"272 612 LINE",
"143 613 OFFCURVE",
"90 562 OFFCURVE",
"90 431 CURVE",
"90 204 LINE",
"90 74 OFFCURVE",
"142 22 OFFCURVE",
"272 22 CURVE",
"392 22 LINE"
);
}
);
width = 664;
},
{
anchors = (
{
name = bottom;
position = "{343, 0}";
},
{
name = center;
position = "{343, 317}";
},
{
name = ogonek;
position = "{421, 10}";
},
{
name = top;
position = "{343, 633}";
},
{
name = topleft;
position = "{80, 633}";
},
{
name = topright;
position = "{533, 604}";
}
);
layerId = "B309FD91-69BF-47D2-8142-D25EBE917F3C";
paths = (
{
closed = 1;
nodes = (
"403 0 LINE SMOOTH",
"545 0 OFFCURVE",
"606 61 OFFCURVE",
"606 203 CURVE SMOOTH",
"606 430 LINE SMOOTH",
"606 572 OFFCURVE",
"545 633 OFFCURVE",
"403 633 CURVE SMOOTH",
"282 633 LINE SMOOTH",
"141 634 OFFCURVE",
"80 573 OFFCURVE",
"80 430 CURVE SMOOTH",
"80 203 LINE SMOOTH",
"80 61 OFFCURVE",
"141 0 OFFCURVE",
"283 0 CURVE SMOOTH"
);
},
{
closed = 1;
nodes = (
"165 42 OFFCURVE",
"122 85 OFFCURVE",
"122 203 CURVE SMOOTH",
"122 430 LINE SMOOTH",
"122 549 OFFCURVE",
"164 592 OFFCURVE",
"282 591 CURVE SMOOTH",
"403 591 LINE SMOOTH",
"521 591 OFFCURVE",
"564 548 OFFCURVE",
"564 430 CURVE SMOOTH",
"564 203 LINE SMOOTH",
"564 85 OFFCURVE",
"521 42 OFFCURVE",
"403 42 CURVE SMOOTH",
"283 42 LINE SMOOTH"
);
}
);
width = 686;
},
{
anchors = (
{
name = bottom;
position = "{300, 0}";
},
{
name = center;
position = "{300, 333}";
},
{
name = ogonek;
position = "{540, 10}";
},
{
name = top;
position = "{300, 665}";
},
{
name = topleft;
position = "{20, 665}";
},
{
name = topright;
position = "{580, 665}";
}
);
background = {
paths = (
{
closed = 1;
nodes = (
"466.833 -9 OFFCURVE",
"568 82 OFFCURVE",
"568 230 CURVE SMOOTH",
"568 406 LINE SMOOTH",
"568 554 OFFCURVE",
"466.833 645 OFFCURVE",
"315.5 645 CURVE SMOOTH",
"164.167 645 OFFCURVE",
"64 555.333 OFFCURVE",
"64 406 CURVE SMOOTH",
"64 230 LINE SMOOTH",
"64 80.667 OFFCURVE",
"164.167 -9 OFFCURVE",
"315.5 -9 CURVE SMOOTH"
);
},
{
closed = 1;
nodes = (
"198.667 63 OFFCURVE",
"136 123.667 OFFCURVE",
"136 233 CURVE SMOOTH",
"136 403 LINE SMOOTH",
"136 511 OFFCURVE",
"197.333 573 OFFCURVE",
"316 573 CURVE SMOOTH",
"434.667 573 OFFCURVE",
"496 511 OFFCURVE",
"496 403 CURVE SMOOTH",
"496 233 LINE SMOOTH",
"496 123.667 OFFCURVE",
"433.333 63 OFFCURVE",
"316 63 CURVE SMOOTH"
);
}
);
};
layerId = "3776B938-A14A-42B9-91A8-ACB6A1608662";
paths = (
{
closed = 1;
nodes = (
"326 0 LINE SMOOTH",
"470 0 OFFCURVE",
"546 77 OFFCURVE",
"546 222 CURVE SMOOTH",
"546 443 LINE SMOOTH",
"546 588 OFFCURVE",
"470 665 OFFCURVE",
"326 665 CURVE SMOOTH",
"284 665 LINE SMOOTH",
"140 665 OFFCURVE",
"64 588 OFFCURVE",
"64 443 CURVE SMOOTH",
"64 222 LINE SMOOTH",
"64 77 OFFCURVE",
"140 0 OFFCURVE",
"284 0 CURVE SMOOTH"
);
},
{
closed = 1;
nodes = (
"180 72 OFFCURVE",
"136 117 OFFCURVE",
"136 222 CURVE SMOOTH",
"136 443 LINE SMOOTH",
"136 548 OFFCURVE",
"180 593 OFFCURVE",
"284 593 CURVE SMOOTH",
"326 593 LINE SMOOTH",
"430 593 OFFCURVE",
"474 548 OFFCURVE",
"474 443 CURVE SMOOTH",
"474 222 LINE SMOOTH",
"474 117 OFFCURVE",
"430 72 OFFCURVE",
"326 72 CURVE SMOOTH",
"284 72 LINE SMOOTH"
);
}
);
width = 600;
},
{
associatedMasterId = "0E6FACCE-B85C-44A4-8B06-9EFDFED90B40";
background = {
paths = (
{
closed = 1;
nodes = (
"517 19 OFFCURVE",
"573 75 OFFCURVE",
"573 238 CURVE",
"573 393 LINE",
"573 556 OFFCURVE",
"517 612 OFFCURVE",
"361 612 CURVE",
"301 612 LINE",
"149 614 OFFCURVE",
"89 559 OFFCURVE",
"89 395 CURVE",
"89 239 LINE",
"89 75 OFFCURVE",
"149 19 OFFCURVE",
"300 19 CURVE",
"361 19 LINE"
);
}
);
};
layerId = "2B4F77D4-7597-4F96-B407-A9C76C28CCF9";
name = "Light Jul 19 16, 17:33";
paths = (
{
closed = 1;
nodes = (
"570 427 LINE",
"570 552 OFFCURVE",
"510 613 OFFCURVE",
"386 613 CURVE",
"274 613 LINE",
"150 613 OFFCURVE",
"90 552 OFFCURVE",
"90 427 CURVE",
"90 206 LINE",
"90 81 OFFCURVE",
"150 20 OFFCURVE",
"274 20 CURVE",
"386 20 LINE",
"510 20 OFFCURVE",
"570 81 OFFCURVE",
"570 206 CURVE"
);
}
);
width = 660;
},
{
associatedMasterId = "B309FD91-69BF-47D2-8142-D25EBE917F3C";
background = {
paths = (
{
closed = 1;
nodes = (
"489 -9 OFFCURVE",
"582 80 OFFCURVE",
"582 227 CURVE SMOOTH",
"582 409 LINE SMOOTH",
"582 556 OFFCURVE",
"489 645 OFFCURVE",
"360 645 CURVE SMOOTH",
"231 645 OFFCURVE",
"138 556 OFFCURVE",
"138 409 CURVE SMOOTH",
"138 227 LINE SMOOTH",
"138 80 OFFCURVE",
"231 -9 OFFCURVE",
"360 -9 CURVE SMOOTH"
);
},
{
closed = 1;
nodes = (
"248 33 OFFCURVE",
"180 106 OFFCURVE",
"180 227 CURVE SMOOTH",
"180 409 LINE SMOOTH",
"180 530 OFFCURVE",
"248 603 OFFCURVE",
"360 603 CURVE SMOOTH",
"472 603 OFFCURVE",
"540 530 OFFCURVE",
"540 409 CURVE SMOOTH",
"540 227 LINE SMOOTH",
"540 106 OFFCURVE",
"472 33 OFFCURVE",
"360 33 CURVE SMOOTH"
);
}
);
};
layerId = "90212B93-9A79-4612-A98C-454B205796C7";
name = "SemiLight Jul 19 16, 17:33";
paths = (
{
closed = 1;
nodes = (
"397 -1 LINE SMOOTH",
"533 -1 OFFCURVE",
"602 69 OFFCURVE",
"602 206 CURVE SMOOTH",
"602 427 LINE SMOOTH",
"602 564 OFFCURVE",
"533 634 OFFCURVE",
"397 634 CURVE SMOOTH",
"285 634 LINE SMOOTH",
"149 634 OFFCURVE",
"80 564 OFFCURVE",
"80 427 CURVE SMOOTH",
"80 206 LINE SMOOTH",
"80 69 OFFCURVE",
"149 -1 OFFCURVE",
"285 -1 CURVE SMOOTH"
);
},
{
closed = 1;
nodes = (
"173 41 OFFCURVE",
"122 92 OFFCURVE",
"122 206 CURVE SMOOTH",
"122 427 LINE SMOOTH",
"122 541 OFFCURVE",
"173 592 OFFCURVE",
"285 592 CURVE SMOOTH",
"397 592 LINE SMOOTH",
"509 592 OFFCURVE",
"560 541 OFFCURVE",
"560 427 CURVE SMOOTH",
"560 206 LINE SMOOTH",
"560 92 OFFCURVE",
"509 41 OFFCURVE",
"397 41 CURVE SMOOTH",
"285 41 LINE SMOOTH"
);
}
);
width = 682;
}
);
leftKerningGroup = "80";
rightKerningGroup = "80";
unicode = 004F;
},
{
color = 3;
glyphname = OE;
lastChange = "2016-07-21 23:05:31 +0000";
layers = (
{
layerId = "0E6FACCE-B85C-44A4-8B06-9EFDFED90B40";
width = 600;
},
{
layerId = "B309FD91-69BF-47D2-8142-D25EBE917F3C";
paths = (
{
closed = 1;
nodes = (
"456 42 LINE",
"283 42 LINE SMOOTH",
"165 42 OFFCURVE",
"122 85 OFFCURVE",
"122 203 CURVE SMOOTH",
"122 430 LINE SMOOTH",
"122 549 OFFCURVE",
"164 591 OFFCURVE",
"282 591 CURVE SMOOTH",
"460 591 LINE",
"460 633 LINE",
"282 633 LINE SMOOTH",
"141 633 OFFCURVE",
"80 573 OFFCURVE",
"80 430 CURVE SMOOTH",
"80 203 LINE SMOOTH",
"80 61 OFFCURVE",
"141 0 OFFCURVE",
"283 0 CURVE SMOOTH",
"456 0 LINE"
);
},
{
closed = 1;
nodes = (
"783 0 LINE SMOOTH",
"795 0 OFFCURVE",
"804 9 OFFCURVE",
"804 21 CURVE SMOOTH",
"804 33 OFFCURVE",
"795 42 OFFCURVE",
"783 42 CURVE SMOOTH",
"466 42 LINE",
"466 300 LINE",
"663 300 LINE SMOOTH",
"675 300 OFFCURVE",
"684 309 OFFCURVE",
"684 321 CURVE SMOOTH",
"684 333 OFFCURVE",
"675 342 OFFCURVE",
"663 342 CURVE SMOOTH",
"466 342 LINE",
"466 591 LINE",
"783 591 LINE SMOOTH",
"795 591 OFFCURVE",
"804 600 OFFCURVE",
"804 612 CURVE SMOOTH",
"804 624 OFFCURVE",
"795 633 OFFCURVE",
"783 633 CURVE SMOOTH",
"445 633 LINE SMOOTH",
"431 633 OFFCURVE",
"424 626 OFFCURVE",
"424 612 CURVE SMOOTH",
"424 21 LINE SMOOTH",
"424 7 OFFCURVE",
"431 0 OFFCURVE",
"445 0 CURVE SMOOTH"
);
}
);
width = 864;
},
{
layerId = "3776B938-A14A-42B9-91A8-ACB6A1608662";
width = 600;
}
);
leftMetricsKey = O;
rightMetricsKey = E;
unicode = 0152;
},
{
color = 4;
glyphname = P;
lastChange = "2016-07-21 23:07:53 +0000";
layers = (
{
background = {
paths = (
{
closed = 0;
nodes = (
"72 299 LINE",
"228 299 LINE",
"328 299 OFFCURVE",
"375 348 OFFCURVE",
"375 446 CURVE",
"375 476 LINE",
"375 574 OFFCURVE",
"328 623 OFFCURVE",
"228 623 CURVE",
"72 623 LINE",
"72 22 LINE"
);
}
);
};
layerId = "0E6FACCE-B85C-44A4-8B06-9EFDFED90B40";
paths = (
{
closed = 0;
nodes = (
"72 299 LINE",
"228 299 LINE",
"328 299 OFFCURVE",
"375 348 OFFCURVE",
"375 446 CURVE",
"375 476 LINE",
"375 574 OFFCURVE",
"328 623 OFFCURVE",
"228 623 CURVE",
"72 623 LINE",
"72 22 LINE"
);
}
);
width = 419;
},
{
anchors = (
{
name = bottom;
position = "{280, 0}";
},
{
name = top;
position = "{280, 633}";
}
);
background = {
paths = (
{
closed = 0;
nodes = (
"121 299 LINE",
"355 299 LINE",
"455 299 OFFCURVE",
"502 348 OFFCURVE",
"502 446 CURVE",
"502 476 LINE",
"502 574 OFFCURVE",
"455 623 OFFCURVE",
"355 623 CURVE",
"121 623 LINE",
"121 22 LINE"
);
}
);
};
layerId = "B309FD91-69BF-47D2-8142-D25EBE917F3C";
paths = (
{
closed = 1;
nodes = (
"133 1 OFFCURVE",
"142 10 OFFCURVE",
"142 22 CURVE SMOOTH",
"142 278 LINE",
"355 278 LINE SMOOTH",
"466 278 OFFCURVE",
"523 335 OFFCURVE",
"523 446 CURVE SMOOTH",
"523 476 LINE SMOOTH",
"523 587 OFFCURVE",
"466 644 OFFCURVE",
"355 644 CURVE SMOOTH",
"121 644 LINE SMOOTH",
"107 644 OFFCURVE",
"100 637 OFFCURVE",
"100 623 CURVE SMOOTH",
"100 22 LINE SMOOTH",
"100 10 OFFCURVE",
"109 1 OFFCURVE",
"121 1 CURVE SMOOTH"
);
},
{
closed = 1;
nodes = (
"142 602 LINE",
"355 602 LINE SMOOTH",
"442 602 OFFCURVE",
"481 563 OFFCURVE",
"481 476 CURVE SMOOTH",
"481 446 LINE SMOOTH",
"481 359 OFFCURVE",
"442 320 OFFCURVE",
"355 320 CURVE SMOOTH",
"142 320 LINE"
);
}
);
width = 561;
},
{
background = {
paths = (
{
closed = 1;
nodes = (
"144 -7 OFFCURVE",
"156 6.333 OFFCURVE",
"156 33 CURVE SMOOTH",
"156 322 LINE",
"357 322 LINE SMOOTH",
"477 322 OFFCURVE",
"546 377 OFFCURVE",
"546 489 CURVE SMOOTH",
"546 601 OFFCURVE",
"469 641 OFFCURVE",
"309 641 CURVE SMOOTH",
"118 641 LINE SMOOTH",
"95.333 641 OFFCURVE",
"84 626.333 OFFCURVE",
"84 597 CURVE SMOOTH",
"84 33 LINE SMOOTH",
"84 6.333 OFFCURVE",
"96 -7 OFFCURVE",
"120 -7 CURVE SMOOTH"
);
},
{
closed = 1;
nodes = (
"156 569 LINE",
"309 569 LINE SMOOTH",
"437 569 OFFCURVE",
"474 554 OFFCURVE",
"474 482 CURVE SMOOTH",
"474 446 OFFCURVE",
"463.333 422.667 OFFCURVE",
"442 412 CURVE SMOOTH",
"420.667 400 OFFCURVE",
"376.333 394 OFFCURVE",
"309 394 CURVE SMOOTH",
"156 394 LINE"
);
}
);
};
layerId = "3776B938-A14A-42B9-91A8-ACB6A1608662";
width = 600;
}
);
leftKerningGroup = "80";
leftMetricsKey = H;
rightKerningGroup = "80";
unicode = 0050;
},
{
color = 3;
glyphname = Thorn;
lastChange = "2016-07-21 23:09:53 +0000";
layers = (
{
layerId = "0E6FACCE-B85C-44A4-8B06-9EFDFED90B40";
paths = (
{
closed = 0;
nodes = (
"72 199 LINE",
"228 199 LINE",
"328 199 OFFCURVE",
"375 248 OFFCURVE",
"375 346 CURVE",
"375 376 LINE",
"375 474 OFFCURVE",
"328 523 OFFCURVE",
"228 523 CURVE",
"72 523 LINE"
);
},
{
closed = 0;
nodes = (
"72 623 LINE",
"72 22 LINE"
);
}
);
width = 419;
},
{
layerId = "B309FD91-69BF-47D2-8142-D25EBE917F3C";
paths = (
{
closed = 1;
nodes = (
"133 1 OFFCURVE",
"142 10 OFFCURVE",
"142 22 CURVE SMOOTH",
"142 178 LINE",
"277 178 LINE SMOOTH",
"388 178 OFFCURVE",
"445 235 OFFCURVE",
"445 346 CURVE SMOOTH",
"445 376 LINE SMOOTH",
"445 487 OFFCURVE",
"388 544 OFFCURVE",
"277 544 CURVE SMOOTH",
"142 544 LINE",
"142 623 LINE SMOOTH",
"142 635 OFFCURVE",
"133 644 OFFCURVE",
"121 644 CURVE SMOOTH",
"109 644 OFFCURVE",
"100 635 OFFCURVE",
"100 623 CURVE SMOOTH",
"100 22 LINE SMOOTH",
"100 10 OFFCURVE",
"109 1 OFFCURVE",
"121 1 CURVE SMOOTH"
);
},
{
closed = 1;
nodes = (
"142 502 LINE",
"277 502 LINE SMOOTH",
"364 502 OFFCURVE",
"403 463 OFFCURVE",
"403 376 CURVE SMOOTH",
"403 346 LINE SMOOTH",
"403 259 OFFCURVE",
"364 220 OFFCURVE",
"277 220 CURVE SMOOTH",
"142 220 LINE"
);
}
);
width = 483;
},
{
layerId = "3776B938-A14A-42B9-91A8-ACB6A1608662";
paths = (
{
closed = 1;
nodes = (
"156 0 OFFCURVE",
"172 16 OFFCURVE",
"172 36 CURVE SMOOTH",
"172 177 LINE",
"292 177 LINE SMOOTH",
"411 177 OFFCURVE",
"475 241 OFFCURVE",
"475 360 CURVE SMOOTH",
"475 390 LINE SMOOTH",
"475 509 OFFCURVE",
"411 573 OFFCURVE",
"292 573 CURVE SMOOTH",
"172 573 LINE",
"172 637 LINE SMOOTH",
"172 657 OFFCURVE",
"156 673 OFFCURVE",
"136 673 CURVE SMOOTH",
"116 673 OFFCURVE",
"100 657 OFFCURVE",
"100 637 CURVE SMOOTH",
"100 36 LINE SMOOTH",
"100 16 OFFCURVE",
"116 0 OFFCURVE",
"136 0 CURVE SMOOTH"
);
},
{
closed = 1;
nodes = (
"172 501 LINE",
"292 501 LINE SMOOTH",
"371 501 OFFCURVE",
"403 469 OFFCURVE",
"403 390 CURVE SMOOTH",
"403 360 LINE SMOOTH",
"403 281 OFFCURVE",
"371 249 OFFCURVE",
"292 249 CURVE SMOOTH",
"172 249 LINE"
);
}
);
width = 475;
}
);
leftMetricsKey = H;
rightMetricsKey = P;
unicode = 00DE;
},
{
color = 4;
glyphname = Q;
lastChange = "2016-07-19 23:58:23 +0000";
layers = (
{
background = {
paths = (
{
closed = 1;
nodes = (
"339.167 -9 OFFCURVE",
"389 6.333 OFFCURVE",
"429 37 CURVE",
"466 -1 LINE",
"497.269 -27.458 OFFCURVE",
"520.221 4.779 OFFCURVE",
"496 29 CURVE SMOOTH",
"458 67 LINE",
"492 107.667 OFFCURVE",
"509 161 OFFCURVE",
"509 227 CURVE SMOOTH",
"509 409 LINE SMOOTH",
"509 555.667 OFFCURVE",
"416.333 645 OFFCURVE",
"287 645 CURVE SMOOTH",
"157.667 645 OFFCURVE",
"65 555.667 OFFCURVE",
"65 409 CURVE SMOOTH",
"65 227 LINE SMOOTH",
"65 80.333 OFFCURVE",
"160.167 -9 OFFCURVE",
"279.5 -9 CURVE SMOOTH"
);
},
{
closed = 1;
nodes = (
"228.5 33 OFFCURVE",
"187 50.167 OFFCURVE",
"155 84.5 CURVE SMOOTH",
"123 118.833 OFFCURVE",
"107 166.333 OFFCURVE",
"107 227 CURVE SMOOTH",
"107 409 LINE SMOOTH",
"107 530.333 OFFCURVE",
"175 603 OFFCURVE",
"287 603 CURVE SMOOTH",
"399 603 OFFCURVE",
"467 530.333 OFFCURVE",
"467 409 CURVE SMOOTH",
"467 227 LINE SMOOTH",
"467 172.333 OFFCURVE",
"454.333 128.333 OFFCURVE",
"429 95 CURVE",
"371 154 LINE SMOOTH",
"343.523 181.477 OFFCURVE",
"315.301 149.699 OFFCURVE",
"341 124 CURVE SMOOTH",
"399 67 LINE",
"370.333 44.333 OFFCURVE",
"330.5 33 OFFCURVE",
"279.5 33 CURVE SMOOTH"
);
}
);
};
components = (
{
name = O;
}
);
layerId = "0E6FACCE-B85C-44A4-8B06-9EFDFED90B40";
paths = (
{
closed = 0;
nodes = (
"348 145 LINE",
"499 -8 LINE"
);
}
);
width = 600;
},
{
anchors = (
{
name = bottom;
position = "{335, 0}";
},
{
name = top;
position = "{335, 633}";
}
);
background = {
paths = (
{
closed = 1;
nodes = (
"339.167 -9 OFFCURVE",
"389 6.333 OFFCURVE",
"429 37 CURVE",
"466 -1 LINE",
"497.269 -27.458 OFFCURVE",
"520.221 4.779 OFFCURVE",
"496 29 CURVE SMOOTH",
"458 67 LINE",
"492 107.667 OFFCURVE",
"509 161 OFFCURVE",
"509 227 CURVE SMOOTH",
"509 409 LINE SMOOTH",
"509 555.667 OFFCURVE",
"416.333 645 OFFCURVE",
"287 645 CURVE SMOOTH",
"157.667 645 OFFCURVE",
"65 555.667 OFFCURVE",
"65 409 CURVE SMOOTH",
"65 227 LINE SMOOTH",
"65 80.333 OFFCURVE",
"160.167 -9 OFFCURVE",
"279.5 -9 CURVE SMOOTH"
);
},
{
closed = 1;
nodes = (
"228.5 33 OFFCURVE",
"187 50.167 OFFCURVE",
"155 84.5 CURVE SMOOTH",
"123 118.833 OFFCURVE",
"107 166.333 OFFCURVE",
"107 227 CURVE SMOOTH",
"107 409 LINE SMOOTH",
"107 530.333 OFFCURVE",
"175 603 OFFCURVE",
"287 603 CURVE SMOOTH",
"399 603 OFFCURVE",
"467 530.333 OFFCURVE",
"467 409 CURVE SMOOTH",
"467 227 LINE SMOOTH",
"467 172.333 OFFCURVE",
"454.333 128.333 OFFCURVE",
"429 95 CURVE",
"371 154 LINE SMOOTH",
"343.523 181.477 OFFCURVE",
"315.301 149.699 OFFCURVE",
"341 124 CURVE SMOOTH",
"399 67 LINE",
"370.333 44.333 OFFCURVE",
"330.5 33 OFFCURVE",
"279.5 33 CURVE SMOOTH"
);
}
);
};
components = (
{
name = O;
}
);
layerId = "B309FD91-69BF-47D2-8142-D25EBE917F3C";
paths = (
{
closed = 1;
nodes = (
"600 -39 OFFCURVE",
"609 -30 OFFCURVE",
"609 -18 CURVE SMOOTH",
"609 -12 OFFCURVE",
"607 -7 OFFCURVE",
"603 -3 CURVE SMOOTH",
"452 150 LINE SMOOTH",
"448 154 OFFCURVE",
"443 156 OFFCURVE",
"437 156 CURVE SMOOTH",
"425 156 OFFCURVE",
"416 147 OFFCURVE",
"416 135 CURVE SMOOTH",
"416 129 OFFCURVE",
"418 124 OFFCURVE",
"422 120 CURVE SMOOTH",
"573 -33 LINE SMOOTH",
"577 -37 OFFCURVE",
"582 -39 OFFCURVE",
"588 -39 CURVE SMOOTH"
);
}
);
width = 669;
},
{
background = {
paths = (
{
closed = 1;
nodes = (
"377.333 -9 OFFCURVE",
"428.667 3.333 OFFCURVE",
"470 28 CURVE",
"499 -1 LINE",
"536.301 -35.193 OFFCURVE",
"588.727 12.578 OFFCURVE",
"551 53 CURVE",
"523 79 LINE",
"553 118.333 OFFCURVE",
"568 168.667 OFFCURVE",
"568 230 CURVE SMOOTH",
"568 406 LINE SMOOTH",
"568 554 OFFCURVE",
"468 645 OFFCURVE",
"316 645 CURVE SMOOTH",
"164 645 OFFCURVE",
"64 555.333 OFFCURVE",
"64 406 CURVE SMOOTH",
"64 230 LINE SMOOTH",
"64 80.667 OFFCURVE",
"164 -9 OFFCURVE",
"316 -9 CURVE SMOOTH"
);
},
{
closed = 1;
nodes = (
"198.667 63 OFFCURVE",
"136 123.667 OFFCURVE",
"136 233 CURVE SMOOTH",
"136 403 LINE SMOOTH",
"136 511 OFFCURVE",
"197.333 573 OFFCURVE",
"316 573 CURVE SMOOTH",
"434.667 573 OFFCURVE",
"496 511 OFFCURVE",
"496 403 CURVE SMOOTH",
"496 233 LINE SMOOTH",
"496 192.333 OFFCURVE",
"487.333 158 OFFCURVE",
"470 130 CURVE",
"424 172 LINE SMOOTH",
"400 194.667 OFFCURVE",
"373.333 192.667 OFFCURVE",
"360 178 CURVE SMOOTH",
"345.333 163.333 OFFCURVE",
"343 138.667 OFFCURVE",
"367 124 CURVE",
"416 83 LINE",
"389.333 69.667 OFFCURVE",
"356 63 OFFCURVE",
"316 63 CURVE SMOOTH"
);
}
);
};
layerId = "3776B938-A14A-42B9-91A8-ACB6A1608662";
width = 600;
}
);
leftKerningGroup = "80";
leftMetricsKey = O;
rightKerningGroup = "80";
unicode = 0051;
},
{
color = 4;
glyphname = R;
lastChange = "2016-07-19 23:58:26 +0000";
layers = (
{
background = {
paths = (
{
closed = 1;
nodes = (
"486.667 -7 OFFCURVE",
"494 2 OFFCURVE",
"494 20 CURVE SMOOTH",
"494 36 OFFCURVE",
"471.833 130.833 OFFCURVE",
"428.5 235.5 CURVE SMOOTH",
"406.833 287.833 OFFCURVE",
"385 322.667 OFFCURVE",
"363 340 CURVE",
"441.667 352 OFFCURVE",
"486 402 OFFCURVE",
"486 486 CURVE SMOOTH",
"486 600.667 OFFCURVE",
"416.333 636 OFFCURVE",
"279 636 CURVE SMOOTH",
"103 636 LINE SMOOTH",
"90.333 636 OFFCURVE",
"84 625.667 OFFCURVE",
"84 605 CURVE SMOOTH",
"84 20 LINE SMOOTH",
"84 -16 OFFCURVE",
"126 -16 OFFCURVE",
"126 20 CURVE SMOOTH",
"126 337 LINE",
"314 337 LINE",
"342 315 OFFCURVE",
"367.333 278 OFFCURVE",
"390 226 CURVE SMOOTH",
"412.667 174 OFFCURVE",
"428.667 129 OFFCURVE",
"438 91 CURVE SMOOTH",
"447.333 53 OFFCURVE",
"452 30 OFFCURVE",
"452 22 CURVE SMOOTH",
"452 6 OFFCURVE",
"461.333 -5.667 OFFCURVE",
"472 -7 CURVE"
);
},
{
closed = 1;
nodes = (
"126 594 LINE",
"279 594 LINE SMOOTH",
"399 594 OFFCURVE",
"444 574 OFFCURVE",
"444 486 CURVE SMOOTH",
"444 398 OFFCURVE",
"397.667 380.333 OFFCURVE",
"279 379 CURVE",
"126 379 LINE"
);
}
);
};
components = (
{
name = P;
}
);
layerId = "0E6FACCE-B85C-44A4-8B06-9EFDFED90B40";
paths = (
{
closed = 0;
nodes = (
"324 305 LINE",
"472 22 LINE"
);
}
);
width = 468;
},
{
anchors = (
{
name = bottom;
position = "{292, 0}";
},
{
name = top;
position = "{292, 633}";
}
);
background = {
paths = (
{
closed = 1;
nodes = (
"486.667 -7 OFFCURVE",
"494 2 OFFCURVE",
"494 20 CURVE SMOOTH",
"494 36 OFFCURVE",
"471.833 130.833 OFFCURVE",
"428.5 235.5 CURVE SMOOTH",
"406.833 287.833 OFFCURVE",
"385 322.667 OFFCURVE",
"363 340 CURVE",
"441.667 352 OFFCURVE",
"486 402 OFFCURVE",
"486 486 CURVE SMOOTH",
"486 600.667 OFFCURVE",
"416.333 636 OFFCURVE",
"279 636 CURVE SMOOTH",
"103 636 LINE SMOOTH",
"90.333 636 OFFCURVE",
"84 625.667 OFFCURVE",
"84 605 CURVE SMOOTH",
"84 20 LINE SMOOTH",
"84 -16 OFFCURVE",
"126 -16 OFFCURVE",
"126 20 CURVE SMOOTH",
"126 337 LINE",
"314 337 LINE",
"342 315 OFFCURVE",
"367.333 278 OFFCURVE",
"390 226 CURVE SMOOTH",
"412.667 174 OFFCURVE",
"428.667 129 OFFCURVE",
"438 91 CURVE SMOOTH",
"447.333 53 OFFCURVE",
"452 30 OFFCURVE",
"452 22 CURVE SMOOTH",
"452 6 OFFCURVE",
"461.333 -5.667 OFFCURVE",
"472 -7 CURVE"
);
},
{
closed = 1;
nodes = (
"126 594 LINE",
"279 594 LINE SMOOTH",
"399 594 OFFCURVE",
"444 574 OFFCURVE",
"444 486 CURVE SMOOTH",
"444 398 OFFCURVE",
"397.667 380.333 OFFCURVE",
"279 379 CURVE",
"126 379 LINE"
);
}
);
};
components = (
{
name = P;
}
);
layerId = "B309FD91-69BF-47D2-8142-D25EBE917F3C";
paths = (
{
closed = 1;
nodes = (
"524 1 OFFCURVE",
"533 10 OFFCURVE",
"533 22 CURVE SMOOTH",
"533 26 OFFCURVE",
"532 29 OFFCURVE",
"530 32 CURVE SMOOTH",
"363 294 LINE SMOOTH",
"359 301 OFFCURVE",
"353 306 OFFCURVE",
"345 306 CURVE SMOOTH",
"333 306 OFFCURVE",
"324 296 OFFCURVE",
"324 285 CURVE SMOOTH",
"324 281 OFFCURVE",
"324 278 OFFCURVE",
"326 275 CURVE SMOOTH",
"493 13 LINE SMOOTH",
"497 6 OFFCURVE",
"504 1 OFFCURVE",
"512 1 CURVE SMOOTH"
);
}
);
width = 583;
},
{
background = {
paths = (
{
closed = 1;
nodes = (
"144 -7 OFFCURVE",
"156 6.333 OFFCURVE",
"156 33 CURVE SMOOTH",
"156 322 LINE",
"342 322 LINE",
"370.667 302 OFFCURVE",
"396.5 268.333 OFFCURVE",
"419.5 221 CURVE SMOOTH",
"442.5 173.667 OFFCURVE",
"458.5 133.333 OFFCURVE",
"467.5 100 CURVE SMOOTH",
"485.5 33.333 OFFCURVE",
"481.333 22.333 OFFCURVE",
"492 5 CURVE SMOOTH",
"502.667 -11 OFFCURVE",
"528 -12 OFFCURVE",
"544 4 CURVE",
"557.333 20 OFFCURVE",
"558.5 26.167 OFFCURVE",
"540.5 97.5 CURVE SMOOTH",
"531.5 133.167 OFFCURVE",
"517.333 175.5 OFFCURVE",
"498 224.5 CURVE SMOOTH",
"478.667 273.5 OFFCURVE",
"458.667 310.667 OFFCURVE",
"438 336 CURVE",
"510 356.667 OFFCURVE",
"546 406.333 OFFCURVE",
"546 485 CURVE SMOOTH",
"546 607.667 OFFCURVE",
"468.667 646 OFFCURVE",
"306 646 CURVE SMOOTH",
"118 646 LINE SMOOTH",
"95.333 646 OFFCURVE",
"84 631.333 OFFCURVE",
"84 602 CURVE SMOOTH",
"84 33 LINE SMOOTH",
"84 6.333 OFFCURVE",
"96 -7 OFFCURVE",
"120 -7 CURVE SMOOTH"
);
},
{
closed = 1;
nodes = (
"156 569 LINE",
"306 569 LINE SMOOTH",
"434 569 OFFCURVE",
"474 554 OFFCURVE",
"474 482 CURVE SMOOTH",
"474 410 OFFCURVE",
"436.667 394 OFFCURVE",
"306 394 CURVE SMOOTH",
"156 394 LINE"
);
}
);
};
layerId = "3776B938-A14A-42B9-91A8-ACB6A1608662";
width = 600;
}
);
leftKerningGroup = "80";
leftMetricsKey = H;
rightKerningGroup = "80";
unicode = 0052;
},
{
color = 4;
glyphname = S;
lastChange = "2016-07-19 23:58:28 +0000";
layers = (
{
background = {
paths = (
{
closed = 1;
nodes = (
"347 -8 LINE SMOOTH",
"461.667 -8 OFFCURVE",
"508 66 OFFCURVE",
"508 154 CURVE SMOOTH",
"508 246.667 OFFCURVE",
"467 303.333 OFFCURVE",
"385 324 CURVE",
"168 376 LINE SMOOTH",
"132 385.333 OFFCURVE",
"104 427.833 OFFCURVE",
"104 484.5 CURVE SMOOTH",
"104 541.167 OFFCURVE",
"135.333 602 OFFCURVE",
"206 602 CURVE SMOOTH",
"300 602 LINE SMOOTH",
"412.528 602 OFFCURVE",
"465 593.277 OFFCURVE",
"465 471 CURVE SMOOTH",
"465 433.667 OFFCURVE",
"508 433.667 OFFCURVE",
"508 471 CURVE SMOOTH",
"508 543.667 OFFCURVE",
"488.667 591.333 OFFCURVE",
"450 614 CURVE SMOOTH",
"410 638 OFFCURVE",
"369.333 644 OFFCURVE",
"300 644 CURVE SMOOTH",
"224 644 LINE SMOOTH",
"109.333 644 OFFCURVE",
"62 572.167 OFFCURVE",
"62 483.5 CURVE SMOOTH",
"62 394.833 OFFCURVE",
"95.333 350.333 OFFCURVE",
"186 329 CURVE",
"402 276 LINE",
"471.686 276.902 OFFCURVE",
"512.353 36.235 OFFCURVE",
"364 34 CURVE",
"271 34 LINE SMOOTH",
"145.667 34 OFFCURVE",
"105 52.333 OFFCURVE",
"105 167 CURVE SMOOTH",
"105 185.667 OFFCURVE",
"98.333 195 OFFCURVE",
"85 195 CURVE SMOOTH",
"69.667 195 OFFCURVE",
"62 185.667 OFFCURVE",
"62 167 CURVE SMOOTH",
"62 93.667 OFFCURVE",
"81.333 45.333 OFFCURVE",
"120 22 CURVE SMOOTH",
"160 -2 OFFCURVE",
"201.667 -8 OFFCURVE",
"271 -8 CURVE SMOOTH"
);
}
);
};
guideLines = (
{
position = "{308, 348}";
},
{
position = "{399, 174}";
},
{
position = "{247, 469}";
}
);
hints = (
{
place = "{547, 0}";
}
);
layerId = "0E6FACCE-B85C-44A4-8B06-9EFDFED90B40";
paths = (
{
closed = 0;
nodes = (
"523 470 LINE",
"523 571 OFFCURVE",
"482 612 OFFCURVE",
"380 612 CURVE",
"253 612 LINE",
"151 612 OFFCURVE",
"110 571 OFFCURVE",
"110 469 CURVE",
"110 367 OFFCURVE",
"151 326 OFFCURVE",
"254 326 CURVE SMOOTH",
"383 326 LINE SMOOTH",
"492 326 OFFCURVE",
"536 283 OFFCURVE",
"536 174 CURVE SMOOTH",
"536 65 OFFCURVE",
"492 22 OFFCURVE",
"383 22 CURVE SMOOTH",
"239 22 LINE",
"130 22 OFFCURVE",
"86 65 OFFCURVE",
"86 174 CURVE"
);
}
);
width = 664;
},
{
anchors = (
{
name = bottom;
position = "{326, 0}";
},
{
name = top;
position = "{326, 633}";
}
);
background = {
paths = (
{
closed = 1;
nodes = (
"363 -8 LINE SMOOTH",
"478 -8 OFFCURVE",
"524 66 OFFCURVE",
"524 154 CURVE SMOOTH",
"524 247 OFFCURVE",
"483 303 OFFCURVE",
"401 324 CURVE",
"184 376 LINE SMOOTH",
"148 385 OFFCURVE",
"120 428 OFFCURVE",
"120 485 CURVE SMOOTH",
"120 541 OFFCURVE",
"151 602 OFFCURVE",
"222 602 CURVE SMOOTH",
"316 602 LINE SMOOTH",
"429 602 OFFCURVE",
"481 593 OFFCURVE",
"481 471 CURVE SMOOTH",
"481 434 OFFCURVE",
"524 434 OFFCURVE",
"524 471 CURVE SMOOTH",
"524 544 OFFCURVE",
"505 591 OFFCURVE",
"466 614 CURVE SMOOTH",
"426 638 OFFCURVE",
"385 644 OFFCURVE",
"316 644 CURVE SMOOTH",
"240 644 LINE SMOOTH",
"125 644 OFFCURVE",
"78 572 OFFCURVE",
"78 484 CURVE SMOOTH",
"78 395 OFFCURVE",
"111 350 OFFCURVE",
"202 329 CURVE",
"418 276 LINE",
"488 277 OFFCURVE",
"528 36 OFFCURVE",
"380 34 CURVE",
"287 34 LINE SMOOTH",
"162 34 OFFCURVE",
"121 52 OFFCURVE",
"121 167 CURVE SMOOTH",
"121 186 OFFCURVE",
"114 195 OFFCURVE",
"101 195 CURVE SMOOTH",
"86 195 OFFCURVE",
"78 186 OFFCURVE",
"78 167 CURVE SMOOTH",
"78 94 OFFCURVE",
"97 45 OFFCURVE",
"136 22 CURVE SMOOTH",
"176 -2 OFFCURVE",
"218 -8 OFFCURVE",
"287 -8 CURVE SMOOTH"
);
}
);
};
guideLines = (
{
angle = 90;
position = "{105, 208}";
},
{
angle = 90;
position = "{503, 208}";
}
);
layerId = "B309FD91-69BF-47D2-8142-D25EBE917F3C";
paths = (
{
closed = 1;
nodes = (
"398 1 LINE SMOOTH",
"519 1 OFFCURVE",
"572 54 OFFCURVE",
"572 174 CURVE SMOOTH",
"572 294 OFFCURVE",
"519 347 OFFCURVE",
"398 347 CURVE SMOOTH",
"257 347 LINE SMOOTH",
"166 347 OFFCURVE",
"134 379 OFFCURVE",
"134 469 CURVE SMOOTH",
"134 559 OFFCURVE",
"166 591 OFFCURVE",
"256 591 CURVE SMOOTH",
"403 591 LINE SMOOTH",
"493 591 OFFCURVE",
"525 559 OFFCURVE",
"525 470 CURVE SMOOTH",
"525 458 OFFCURVE",
"534 449 OFFCURVE",
"546 449 CURVE SMOOTH",
"558 449 OFFCURVE",
"567 458 OFFCURVE",
"567 470 CURVE SMOOTH",
"567 583 OFFCURVE",
"517 633 OFFCURVE",
"403 633 CURVE SMOOTH",
"256 633 LINE SMOOTH",
"142 633 OFFCURVE",
"92 583 OFFCURVE",
"92 469 CURVE SMOOTH",
"92 355 OFFCURVE",
"142 305 OFFCURVE",
"257 305 CURVE SMOOTH",
"398 305 LINE SMOOTH",
"496 305 OFFCURVE",
"530 271 OFFCURVE",
"530 174 CURVE SMOOTH",
"530 77 OFFCURVE",
"496 43 OFFCURVE",
"398 43 CURVE SMOOTH",
"254 43 LINE SMOOTH",
"156 43 OFFCURVE",
"122 77 OFFCURVE",
"122 174 CURVE SMOOTH",
"122 186 OFFCURVE",
"113 195 OFFCURVE",
"101 195 CURVE SMOOTH",
"89 195 OFFCURVE",
"80 186 OFFCURVE",
"80 174 CURVE SMOOTH",
"80 54 OFFCURVE",
"133 1 OFFCURVE",
"254 1 CURVE SMOOTH"
);
}
);
width = 652;
},
{
background = {
paths = (
{
closed = 1;
nodes = (
"408 -8 LINE SMOOTH",
"542.667 -8 OFFCURVE",
"597 67.5 OFFCURVE",
"597 157.5 CURVE SMOOTH",
"597 247.5 OFFCURVE",
"556 318.667 OFFCURVE",
"460 336 CURVE SMOOTH",
"185 385 LINE",
"131.895 387.203 OFFCURVE",
"82.007 565.092 OFFCURVE",
"238 572 CURVE",
"344 572 LINE SMOOTH",
"418.667 572 OFFCURVE",
"467.333 565.5 OFFCURVE",
"490 552.5 CURVE SMOOTH",
"512.667 539.5 OFFCURVE",
"524 507.333 OFFCURVE",
"524 456 CURVE SMOOTH",
"524 402.458 OFFCURVE",
"597 395.346 OFFCURVE",
"597 456 CURVE SMOOTH",
"597 534 OFFCURVE",
"575 585.333 OFFCURVE",
"531 610 CURVE SMOOTH",
"484.333 636.667 OFFCURVE",
"433.333 644 OFFCURVE",
"344 644 CURVE SMOOTH",
"268 644 LINE SMOOTH",
"188.667 644 OFFCURVE",
"133.333 626 OFFCURVE",
"102 590 CURVE SMOOTH",
"74.667 558 OFFCURVE",
"61 520.667 OFFCURVE",
"61 478 CURVE SMOOTH",
"61 384.667 OFFCURVE",
"100 336 OFFCURVE",
"200 316 CURVE",
"473 265 LINE",
"523.373 269.922 OFFCURVE",
"573.039 64.255 OFFCURVE",
"430 64 CURVE",
"312 64 LINE SMOOTH",
"166.667 64 OFFCURVE",
"134 79.333 OFFCURVE",
"134 182 CURVE SMOOTH",
"134 207.333 OFFCURVE",
"120.333 225 OFFCURVE",
"99 225 CURVE SMOOTH",
"73.667 225 OFFCURVE",
"61 210.667 OFFCURVE",
"61 182 CURVE SMOOTH",
"61 30 OFFCURVE",
"136 -8 OFFCURVE",
"312 -8 CURVE SMOOTH"
);
}
);
};
layerId = "3776B938-A14A-42B9-91A8-ACB6A1608662";
width = 600;
},
{
associatedMasterId = "0E6FACCE-B85C-44A4-8B06-9EFDFED90B40";
background = {
paths = (
{
closed = 1;
nodes = (
"347 -8 LINE SMOOTH",
"461.667 -8 OFFCURVE",
"508 66 OFFCURVE",
"508 154 CURVE SMOOTH",
"508 246.667 OFFCURVE",
"467 303.333 OFFCURVE",
"385 324 CURVE",
"168 376 LINE SMOOTH",
"132 385.333 OFFCURVE",
"104 427.833 OFFCURVE",
"104 484.5 CURVE SMOOTH",
"104 541.167 OFFCURVE",
"135.333 602 OFFCURVE",
"206 602 CURVE SMOOTH",
"300 602 LINE SMOOTH",
"412.528 602 OFFCURVE",
"465 593.277 OFFCURVE",
"465 471 CURVE SMOOTH",
"465 433.667 OFFCURVE",
"508 433.667 OFFCURVE",
"508 471 CURVE SMOOTH",
"508 543.667 OFFCURVE",
"488.667 591.333 OFFCURVE",
"450 614 CURVE SMOOTH",
"410 638 OFFCURVE",
"369.333 644 OFFCURVE",
"300 644 CURVE SMOOTH",
"224 644 LINE SMOOTH",
"109.333 644 OFFCURVE",
"62 572.167 OFFCURVE",
"62 483.5 CURVE SMOOTH",
"62 394.833 OFFCURVE",
"95.333 350.333 OFFCURVE",
"186 329 CURVE",
"402 276 LINE",
"471.686 276.902 OFFCURVE",
"512.353 36.235 OFFCURVE",
"364 34 CURVE",
"271 34 LINE SMOOTH",
"145.667 34 OFFCURVE",
"105 52.333 OFFCURVE",
"105 167 CURVE SMOOTH",
"105 185.667 OFFCURVE",
"98.333 195 OFFCURVE",
"85 195 CURVE SMOOTH",
"69.667 195 OFFCURVE",
"62 185.667 OFFCURVE",
"62 167 CURVE SMOOTH",
"62 93.667 OFFCURVE",
"81.333 45.333 OFFCURVE",
"120 22 CURVE SMOOTH",
"160 -2 OFFCURVE",
"201.667 -8 OFFCURVE",
"271 -8 CURVE SMOOTH"
);
}
);
};
layerId = "A5FB1257-C48F-4A19-9F0C-792F24D46AB7";
name = "Light Jul 19 16, 17:44";
paths = (
{
closed = 0;
nodes = (
"497 176 LINE",
"497 239 OFFCURVE",
"463 280 OFFCURVE",
"392 298 CURVE SMOOTH",
"197 348 LINE SMOOTH",
"131 365 OFFCURVE",
"79 402 OFFCURVE",
"79 450 CURVE SMOOTH",
"79 570 OFFCURVE",
"120 612 OFFCURVE",
"235 612 CURVE",
"321 612 LINE",
"436 612 OFFCURVE",
"477 570 OFFCURVE",
"477 450 CURVE"
);
},
{
closed = 0;
nodes = (
"60 205 LINE",
"60 67 OFFCURVE",
"110 20 OFFCURVE",
"237 20 CURVE",
"366 20 LINE",
"497 20 OFFCURVE",
"544 67 OFFCURVE",
"544 204 CURVE"
);
}
);
width = 600;
}
);
leftKerningGroup = "80";
leftMetricsKey = O;
rightKerningGroup = "80";
rightMetricsKey = O;
unicode = 0053;
},
{
color = 4;
glyphname = T;
lastChange = "2016-07-19 23:58:30 +0000";
layers = (
{
background = {
paths = (
{
closed = 1;
nodes = (
"159 -16 OFFCURVE",
"201 -16 OFFCURVE",
"201 20 CURVE SMOOTH",
"201 594 LINE",
"355 594 LINE SMOOTH",
"392 594 OFFCURVE",
"392 636 OFFCURVE",
"355 636 CURVE SMOOTH",
"4 636 LINE SMOOTH",
"-33 636 OFFCURVE",
"-33 594 OFFCURVE",
"4 594 CURVE SMOOTH",
"159 594 LINE",
"159 20 LINE SMOOTH"
);
}
);
};
layerId = "0E6FACCE-B85C-44A4-8B06-9EFDFED90B40";
paths = (
{
closed = 0;
nodes = (
"240 613 LINE",
"240 20 LINE"
);
},
{
closed = 0;
nodes = (
"50 613 LINE",
"430 613 LINE"
);
}
);
width = 480;
},
{
anchors = (
{
name = bottom;
position = "{276, 0}";
},
{
name = center;
position = "{276, 317}";
},
{
name = top;
position = "{276, 633}";
}
);
background = {
paths = (
{
closed = 1;
nodes = (
"47 0 OFFCURVE",
"56 9 OFFCURVE",
"56 21 CURVE SMOOTH",
"56 322 LINE",
"479 322 LINE",
"479 21 LINE SMOOTH",
"479 9 OFFCURVE",
"488 0 OFFCURVE",
"500 0 CURVE SMOOTH",
"512 0 OFFCURVE",
"521 9 OFFCURVE",
"521 21 CURVE SMOOTH",
"521 613 LINE SMOOTH",
"521 625 OFFCURVE",
"512 634 OFFCURVE",
"500 634 CURVE SMOOTH",
"488 634 OFFCURVE",
"479 625 OFFCURVE",
"479 613 CURVE SMOOTH",
"479 364 LINE",
"56 364 LINE",
"56 613 LINE SMOOTH",
"56 625 OFFCURVE",
"47 634 OFFCURVE",
"35 634 CURVE SMOOTH",
"23 634 OFFCURVE",
"14 625 OFFCURVE",
"14 613 CURVE SMOOTH",
"14 21 LINE SMOOTH",
"14 9 OFFCURVE",
"23 0 OFFCURVE",
"35 0 CURVE SMOOTH"
);
}
);
};
layerId = "B309FD91-69BF-47D2-8142-D25EBE917F3C";
paths = (
{
closed = 1;
nodes = (
"288 -1 OFFCURVE",
"297 8 OFFCURVE",
"297 20 CURVE SMOOTH",
"297 592 LINE",
"516 592 LINE SMOOTH",
"528 592 OFFCURVE",
"537 601 OFFCURVE",
"537 613 CURVE SMOOTH",
"537 625 OFFCURVE",
"528 634 OFFCURVE",
"516 634 CURVE SMOOTH",
"36 634 LINE SMOOTH",
"24 634 OFFCURVE",
"15 625 OFFCURVE",
"15 613 CURVE SMOOTH",
"15 601 OFFCURVE",
"24 592 OFFCURVE",
"36 592 CURVE SMOOTH",
"255 592 LINE",
"255 20 LINE SMOOTH",
"255 8 OFFCURVE",
"264 -1 OFFCURVE",
"276 -1 CURVE SMOOTH"
);
}
);
width = 552;
},
{
background = {
paths = (
{
closed = 1;
nodes = (
"219 -21.928 OFFCURVE",
"302 -20.15 OFFCURVE",
"302 33 CURVE SMOOTH",
"302 564 LINE",
"450 564 LINE SMOOTH",
"478.667 564 OFFCURVE",
"493 576 OFFCURVE",
"493 600 CURVE SMOOTH",
"493 624 OFFCURVE",
"478.667 636 OFFCURVE",
"450 636 CURVE SMOOTH",
"69 636 LINE SMOOTH",
"10.961 636 OFFCURVE",
"10.961 564 OFFCURVE",
"69 564 CURVE SMOOTH",
"219 564 LINE",
"219 33 LINE SMOOTH"
);
}
);
};
layerId = "3776B938-A14A-42B9-91A8-ACB6A1608662";
paths = (
{
closed = 1;
nodes = (
"314 0 OFFCURVE",
"326 12 OFFCURVE",
"326 36 CURVE SMOOTH",
"326 593 LINE",
"480 593 LINE SMOOTH",
"504 593 OFFCURVE",
"516 605 OFFCURVE",
"516 629 CURVE SMOOTH",
"516 653 OFFCURVE",
"504 665 OFFCURVE",
"480 665 CURVE SMOOTH",
"100 665 LINE SMOOTH",
"76 665 OFFCURVE",
"64 653 OFFCURVE",
"64 629 CURVE SMOOTH",
"64 605 OFFCURVE",
"76 593 OFFCURVE",
"100 593 CURVE SMOOTH",
"254 593 LINE",
"254 36 LINE SMOOTH",
"254 12 OFFCURVE",
"266 0 OFFCURVE",
"290 0 CURVE SMOOTH"
);
}
);
width = 600;
}
);
leftKerningGroup = "80";
rightKerningGroup = "80";
unicode = 0054;
},
{
color = 4;
glyphname = U;
lastChange = "2016-07-21 22:13:16 +0000";
layers = (
{
background = {
paths = (
{
closed = 1;
nodes = (
"428.333 -9 OFFCURVE",
"521 80.333 OFFCURVE",
"521 227 CURVE SMOOTH",
"521 615 LINE SMOOTH",
"521 652.333 OFFCURVE",
"479 652.333 OFFCURVE",
"479 615 CURVE SMOOTH",
"479 227 LINE SMOOTH",
"479 105.667 OFFCURVE",
"411 33 OFFCURVE",
"299 33 CURVE SMOOTH",
"187 33 OFFCURVE",
"119 105.667 OFFCURVE",
"119 227 CURVE SMOOTH",
"119 615 LINE SMOOTH",
"119 652.333 OFFCURVE",
"77 652.333 OFFCURVE",
"77 615 CURVE SMOOTH",
"77 227 LINE SMOOTH",
"77 80.333 OFFCURVE",
"169.667 -9 OFFCURVE",
"299 -9 CURVE SMOOTH"
);
}
);
};
hints = (
{
place = "{546.922, 0}";
}
);
layerId = "0E6FACCE-B85C-44A4-8B06-9EFDFED90B40";
paths = (
{
closed = 0;
nodes = (
"90 612 LINE",
"90 204 LINE",
"90 74 OFFCURVE",
"142 22 OFFCURVE",
"272 22 CURVE",
"392 22 LINE",
"522 22 OFFCURVE",
"574 74 OFFCURVE",
"574 204 CURVE",
"574 612 LINE"
);
}
);
width = 664;
},
{
anchors = (
{
name = bottom;
position = "{353, -112}";
},
{
name = ogonek;
position = "{411, 0}";
},
{
name = top;
position = "{353, 633}";
},
{
name = topright;
position = "{595, 633}";
}
);
background = {
paths = (
{
closed = 1;
nodes = (
"460 -9 OFFCURVE",
"553 80 OFFCURVE",
"553 227 CURVE SMOOTH",
"553 615 LINE SMOOTH",
"553 652 OFFCURVE",
"511 652 OFFCURVE",
"511 615 CURVE SMOOTH",
"511 227 LINE SMOOTH",
"511 106 OFFCURVE",
"443 33 OFFCURVE",
"331 33 CURVE SMOOTH",
"219 33 OFFCURVE",
"151 106 OFFCURVE",
"151 227 CURVE SMOOTH",
"151 615 LINE SMOOTH",
"151 652 OFFCURVE",
"109 652 OFFCURVE",
"109 615 CURVE SMOOTH",
"109 227 LINE SMOOTH",
"109 80 OFFCURVE",
"202 -9 OFFCURVE",
"331 -9 CURVE SMOOTH"
);
}
);
};
guideLines = (
{
angle = 90;
position = "{353, 612}";
}
);
layerId = "B309FD91-69BF-47D2-8142-D25EBE917F3C";
paths = (
{
closed = 1;
nodes = (
"413 0 LINE SMOOTH",
"555 0 OFFCURVE",
"616 61 OFFCURVE",
"616 203 CURVE SMOOTH",
"616 612 LINE SMOOTH",
"616 624 OFFCURVE",
"607 633 OFFCURVE",
"595 633 CURVE SMOOTH",
"583 633 OFFCURVE",
"574 624 OFFCURVE",
"574 612 CURVE SMOOTH",
"574 203 LINE SMOOTH",
"574 85 OFFCURVE",
"531 42 OFFCURVE",
"413 42 CURVE SMOOTH",
"293 42 LINE SMOOTH",
"175 42 OFFCURVE",
"132 85 OFFCURVE",
"132 203 CURVE SMOOTH",
"132 612 LINE SMOOTH",
"132 624 OFFCURVE",
"123 633 OFFCURVE",
"111 633 CURVE SMOOTH",
"99 633 OFFCURVE",
"90 624 OFFCURVE",
"90 612 CURVE SMOOTH",
"90 203 LINE SMOOTH",
"90 61 OFFCURVE",
"151 0 OFFCURVE",
"293 0 CURVE SMOOTH"
);
}
);
width = 706;
},
{
background = {
paths = (
{
closed = 1;
nodes = (
"480 -9 OFFCURVE",
"581 82 OFFCURVE",
"581 230 CURVE SMOOTH",
"581 602 LINE SMOOTH",
"581 629.333 OFFCURVE",
"569 643 OFFCURVE",
"545 643 CURVE SMOOTH",
"521 643 OFFCURVE",
"509 629.667 OFFCURVE",
"509 603 CURVE SMOOTH",
"509 233 LINE SMOOTH",
"509 123.667 OFFCURVE",
"446.333 63 OFFCURVE",
"329 63 CURVE SMOOTH",
"211.667 63 OFFCURVE",
"149 123.667 OFFCURVE",
"149 233 CURVE SMOOTH",
"149 603 LINE SMOOTH",
"149 631 OFFCURVE",
"131.667 643 OFFCURVE",
"113 643 CURVE SMOOTH",
"89 643 OFFCURVE",
"77 629.333 OFFCURVE",
"77 602 CURVE SMOOTH",
"77 230 LINE SMOOTH",
"77 80.667 OFFCURVE",
"176 -9 OFFCURVE",
"328 -9 CURVE SMOOTH"
);
}
);
};
layerId = "3776B938-A14A-42B9-91A8-ACB6A1608662";
paths = (
{
closed = 1;
nodes = (
"326 0 LINE SMOOTH",
"474 0 OFFCURVE",
"546 73 OFFCURVE",
"546 222 CURVE SMOOTH",
"546 613 LINE SMOOTH",
"546 637 OFFCURVE",
"534 649 OFFCURVE",
"510 649 CURVE SMOOTH",
"486 649 OFFCURVE",
"474 637 OFFCURVE",
"474 613 CURVE SMOOTH",
"474 222 LINE SMOOTH",
"474 121 OFFCURVE",
"425 72 OFFCURVE",
"326 72 CURVE SMOOTH",
"284 72 LINE SMOOTH",
"185 72 OFFCURVE",
"136 121 OFFCURVE",
"136 222 CURVE SMOOTH",
"136 613 LINE SMOOTH",
"136 637 OFFCURVE",
"124 649 OFFCURVE",
"100 649 CURVE SMOOTH",
"76 649 OFFCURVE",
"64 637 OFFCURVE",
"64 613 CURVE SMOOTH",
"64 222 LINE SMOOTH",
"64 73 OFFCURVE",
"136 0 OFFCURVE",
"284 0 CURVE SMOOTH"
);
}
);
width = 600;
}
);
leftKerningGroup = "80";
leftMetricsKey = "=H-10";
rightKerningGroup = "80";
rightMetricsKey = "=H-10";
unicode = 0055;
},
{
color = 4;
glyphname = V;
lastChange = "2016-07-19 23:58:42 +0000";
layers = (
{
background = {
paths = (
{
closed = 1;
nodes = (
"297 0 LINE",
"522 617 LINE SMOOTH",
"526.738 631.215 OFFCURVE",
"525.709 652 OFFCURVE",
"504 652 CURVE SMOOTH",
"494.667 652 OFFCURVE",
"487.333 645.333 OFFCURVE",
"482 632 CURVE SMOOTH",
"274 60 LINE",
"66 632 LINE",
"60 645.333 OFFCURVE",
"53.333 652 OFFCURVE",
"46 652 CURVE SMOOTH",
"32.667 652 OFFCURVE",
"25 645.333 OFFCURVE",
"23 632 CURVE",
"23 628 OFFCURVE",
"24 623 OFFCURVE",
"26 617 CURVE SMOOTH",
"251 0 LINE"
);
}
);
};
layerId = "0E6FACCE-B85C-44A4-8B06-9EFDFED90B40";
paths = (
{
closed = 0;
nodes = (
"13 612 LINE",
"277 21 LINE"
);
},
{
closed = 0;
nodes = (
"547 612 LINE",
"283 21 LINE"
);
}
);
width = 600;
},
{
anchors = (
{
name = bottom;
position = "{288, 0}";
},
{
name = top;
position = "{288, 633}";
}
);
background = {
paths = (
{
closed = 1;
nodes = (
"246 0 LINE",
"471 617 LINE SMOOTH",
"476 631 OFFCURVE",
"475 652 OFFCURVE",
"453 652 CURVE SMOOTH",
"444 652 OFFCURVE",
"436 645 OFFCURVE",
"431 632 CURVE SMOOTH",
"223 60 LINE",
"15 632 LINE",
"9 645 OFFCURVE",
"2 652 OFFCURVE",
"-5 652 CURVE SMOOTH",
"-18 652 OFFCURVE",
"-26 645 OFFCURVE",
"-28 632 CURVE",
"-28 628 OFFCURVE",
"-27 623 OFFCURVE",
"-25 617 CURVE SMOOTH",
"200 0 LINE"
);
}
);
};
layerId = "B309FD91-69BF-47D2-8142-D25EBE917F3C";
paths = (
{
closed = 1;
nodes = (
"286 0 OFFCURVE",
"287 0 OFFCURVE",
"288 0 CURVE",
"289 0 OFFCURVE",
"290 0 OFFCURVE",
"291 0 CURVE SMOOTH",
"300 0 OFFCURVE",
"307 5 OFFCURVE",
"310 13 CURVE SMOOTH",
"574 603 LINE SMOOTH",
"575 606 OFFCURVE",
"576 609 OFFCURVE",
"576 612 CURVE SMOOTH",
"576 624 OFFCURVE",
"567 633 OFFCURVE",
"555 633 CURVE SMOOTH",
"546 633 OFFCURVE",
"539 628 OFFCURVE",
"536 620 CURVE SMOOTH",
"288 66 LINE",
"40 620 LINE SMOOTH",
"37 628 OFFCURVE",
"30 633 OFFCURVE",
"21 633 CURVE SMOOTH",
"9 633 OFFCURVE",
"0 624 OFFCURVE",
"0 612 CURVE SMOOTH",
"0 609 OFFCURVE",
"1 606 OFFCURVE",
"2 603 CURVE SMOOTH",
"266 13 LINE SMOOTH",
"269 5 OFFCURVE",
"276 0 OFFCURVE",
"285 0 CURVE SMOOTH"
);
}
);
width = 576;
},
{
background = {
paths = (
{
closed = 1;
nodes = (
"346 0 LINE",
"583 599 LINE",
"590.469 621.407 OFFCURVE",
"581.325 652 OFFCURVE",
"550 652 CURVE SMOOTH",
"533.333 652 OFFCURVE",
"521 642.667 OFFCURVE",
"513 624 CURVE SMOOTH",
"306 104 LINE",
"97 624 LINE SMOOTH",
"89.667 642.667 OFFCURVE",
"77.333 652 OFFCURVE",
"60 652 CURVE SMOOTH",
"28.675 652 OFFCURVE",
"19.531 621.407 OFFCURVE",
"27 599 CURVE",
"264 0 LINE"
);
}
);
};
layerId = "3776B938-A14A-42B9-91A8-ACB6A1608662";
width = 600;
}
);
leftKerningGroup = "80";
rightKerningGroup = "80";
unicode = 0056;
},
{
color = 4;
glyphname = W;
lastChange = "2016-07-19 23:58:44 +0000";
layers = (
{
background = {
paths = (
{
closed = 1;
nodes = (
"271 0 LINE",
"446 565 LINE",
"622 0 LINE",
"672 0 LINE",
"864 617 LINE",
"878 631 OFFCURVE",
"851 678 OFFCURVE",
"824 632 CURVE",
"648 60 LINE",
"471 630 LINE SMOOTH",
"462 659 OFFCURVE",
"432 659 OFFCURVE",
"423 630 CURVE SMOOTH",
"247 60 LINE",
"69 632 LINE SMOOTH",
"65 645 OFFCURVE",
"59 652 OFFCURVE",
"50 652 CURVE SMOOTH",
"39 652 OFFCURVE",
"26 642 OFFCURVE",
"26 634 CURVE SMOOTH",
"26 629 OFFCURVE",
"33 621 OFFCURVE",
"34 617 CURVE SMOOTH",
"222 0 LINE"
);
}
);
};
layerId = "0E6FACCE-B85C-44A4-8B06-9EFDFED90B40";
paths = (
{
closed = 0;
nodes = (
"50 612 LINE",
"244 21 LINE"
);
},
{
closed = 0;
nodes = (
"434 612 LINE",
"250 21 LINE"
);
},
{
closed = 0;
nodes = (
"444 612 LINE",
"628 21 LINE"
);
},
{
closed = 0;
nodes = (
"828 612 LINE",
"634 21 LINE"
);
}
);
width = 878;
},
{
anchors = (
{
name = bottom;
position = "{410, 0}";
},
{
name = top;
position = "{410, 633}";
}
);
background = {
paths = (
{
closed = 1;
nodes = (
"240 0 LINE",
"415 565 LINE",
"591 0 LINE",
"641 0 LINE",
"833 617 LINE",
"847 631 OFFCURVE",
"820 678 OFFCURVE",
"793 632 CURVE",
"617 60 LINE",
"440 630 LINE SMOOTH",
"431 659 OFFCURVE",
"401 659 OFFCURVE",
"392 630 CURVE SMOOTH",
"216 60 LINE",
"38 632 LINE SMOOTH",
"34 645 OFFCURVE",
"28 652 OFFCURVE",
"19 652 CURVE SMOOTH",
"8 652 OFFCURVE",
"-5 642 OFFCURVE",
"-5 634 CURVE SMOOTH",
"-5 629 OFFCURVE",
"2 621 OFFCURVE",
"3 617 CURVE SMOOTH",
"191 0 LINE"
);
}
);
};
layerId = "B309FD91-69BF-47D2-8142-D25EBE917F3C";
paths = (
{
closed = 1;
nodes = (
"221 0 LINE",
"232 0 OFFCURVE",
"238 5 OFFCURVE",
"241 15 CURVE SMOOTH",
"410 557 LINE",
"579 15 LINE SMOOTH",
"582 5 OFFCURVE",
"588 0 OFFCURVE",
"599 0 CURVE",
"605 0 LINE",
"615 0 OFFCURVE",
"622 5 OFFCURVE",
"625 15 CURVE SMOOTH",
"819 605 LINE SMOOTH",
"820 607 OFFCURVE",
"820 610 OFFCURVE",
"820 612 CURVE SMOOTH",
"820 626 OFFCURVE",
"813 633 OFFCURVE",
"799 633 CURVE SMOOTH",
"789 633 OFFCURVE",
"782 628 OFFCURVE",
"779 618 CURVE SMOOTH",
"602 81 LINE",
"435 618 LINE SMOOTH",
"432 628 OFFCURVE",
"426 633 OFFCURVE",
"415 633 CURVE SMOOTH",
"413 633 OFFCURVE",
"407 633 OFFCURVE",
"405 633 CURVE SMOOTH",
"394 633 OFFCURVE",
"388 628 OFFCURVE",
"385 618 CURVE SMOOTH",
"218 81 LINE",
"41 618 LINE SMOOTH",
"38 628 OFFCURVE",
"31 633 OFFCURVE",
"21 633 CURVE SMOOTH",
"7 633 OFFCURVE",
"0 626 OFFCURVE",
"0 612 CURVE SMOOTH",
"0 610 OFFCURVE",
"0 607 OFFCURVE",
"1 605 CURVE SMOOTH",
"195 15 LINE SMOOTH",
"198 5 OFFCURVE",
"205 0 OFFCURVE",
"215 0 CURVE"
);
}
);
width = 820;
},
{
background = {
paths = (
{
closed = 1;
nodes = (
"299 0 LINE",
"477 531 LINE",
"656 0 LINE",
"730 0 LINE",
"924 600 LINE SMOOTH",
"926.667 608 OFFCURVE",
"928 614 OFFCURVE",
"928 618 CURVE SMOOTH",
"928 638.667 OFFCURVE",
"917.333 649 OFFCURVE",
"896 649 CURVE SMOOTH",
"874.667 649 OFFCURVE",
"861.333 639.667 OFFCURVE",
"856 621 CURVE SMOOTH",
"694 96 LINE",
"520 619 LINE",
"504 663 OFFCURVE",
"452 662.667 OFFCURVE",
"436 620 CURVE",
"263 96 LINE",
"99 625 LINE SMOOTH",
"93 643.667 OFFCURVE",
"79.333 653 OFFCURVE",
"58 653 CURVE SMOOTH",
"37.333 653 OFFCURVE",
"27 643.333 OFFCURVE",
"27 624 CURVE SMOOTH",
"27 618.667 OFFCURVE",
"28.333 612 OFFCURVE",
"31 604 CURVE SMOOTH",
"226 0 LINE"
);
}
);
};
layerId = "3776B938-A14A-42B9-91A8-ACB6A1608662";
width = 600;
}
);
leftKerningGroup = "80";
leftMetricsKey = V;
rightKerningGroup = "80";
rightMetricsKey = V;
unicode = 0057;
},
{
color = 4;
glyphname = X;
lastChange = "2016-07-19 23:58:45 +0000";
layers = (
{
background = {
paths = (
{
closed = 1;
nodes = (
"268 281 LINE",
"460 7 LINE",
"487.16 -27.567 OFFCURVE",
"511.694 5.767 OFFCURVE",
"495 32 CURVE",
"294 317 LINE",
"495 604 LINE",
"513.669 625.336 OFFCURVE",
"486.505 665.552 OFFCURVE",
"460 627 CURVE SMOOTH",
"268 354 LINE",
"77 627 LINE SMOOTH",
"50.111 666.111 OFFCURVE",
"23.34 625.325 OFFCURVE",
"42 604 CURVE",
"243 317 LINE",
"42 32 LINE",
"25.306 5.767 OFFCURVE",
"49.84 -27.567 OFFCURVE",
"77 7 CURVE"
);
}
);
};
layerId = "0E6FACCE-B85C-44A4-8B06-9EFDFED90B40";
paths = (
{
closed = 0;
nodes = (
"54 20 LINE",
"265 330 LINE"
);
},
{
closed = 0;
nodes = (
"60 614 LINE",
"482 19 LINE"
);
},
{
closed = 0;
nodes = (
"268 326 LINE",
"474 612 LINE"
);
}
);
width = 600;
},
{
anchors = (
{
name = bottom;
position = "{280, 0}";
},
{
name = top;
position = "{280, 633}";
}
);
background = {
paths = (
{
closed = 1;
nodes = (
"280 281 LINE",
"472 7 LINE",
"499 -28 OFFCURVE",
"524 6 OFFCURVE",
"507 32 CURVE",
"306 317 LINE",
"507 604 LINE",
"526 625 OFFCURVE",
"499 666 OFFCURVE",
"472 627 CURVE SMOOTH",
"280 354 LINE",
"89 627 LINE SMOOTH",
"62 666 OFFCURVE",
"35 625 OFFCURVE",
"54 604 CURVE",
"255 317 LINE",
"54 32 LINE",
"37 6 OFFCURVE",
"62 -28 OFFCURVE",
"89 7 CURVE"
);
}
);
};
layerId = "B309FD91-69BF-47D2-8142-D25EBE917F3C";
paths = (
{
closed = 1;
nodes = (
"505 0 OFFCURVE",
"514 9 OFFCURVE",
"514 21 CURVE SMOOTH",
"514 26 OFFCURVE",
"512 30 OFFCURVE",
"510 33 CURVE SMOOTH",
"304 323 LINE",
"503 600 LINE SMOOTH",
"505 603 OFFCURVE",
"507 607 OFFCURVE",
"507 612 CURVE SMOOTH",
"507 624 OFFCURVE",
"498 633 OFFCURVE",
"486 633 CURVE SMOOTH",
"479 633 OFFCURVE",
"473 629 OFFCURVE",
"469 624 CURVE SMOOTH",
"278 360 LINE",
"90 624 LINE SMOOTH",
"86 629 OFFCURVE",
"80 633 OFFCURVE",
"73 633 CURVE SMOOTH",
"61 633 OFFCURVE",
"52 624 OFFCURVE",
"52 612 CURVE SMOOTH",
"52 607 OFFCURVE",
"54 603 OFFCURVE",
"56 600 CURVE SMOOTH",
"250 327 LINE",
"49 33 LINE SMOOTH",
"46 29 OFFCURVE",
"45 25 OFFCURVE",
"45 21 CURVE SMOOTH",
"45 9 OFFCURVE",
"54 0 OFFCURVE",
"66 0 CURVE SMOOTH",
"73 0 OFFCURVE",
"80 4 OFFCURVE",
"84 9 CURVE SMOOTH",
"276 291 LINE",
"476 9 LINE SMOOTH",
"480 4 OFFCURVE",
"486 0 OFFCURVE",
"493 0 CURVE SMOOTH"
);
}
);
width = 559;
},
{
background = {
paths = (
{
closed = 1;
nodes = (
"302 270 LINE",
"497 13 LINE",
"537.954 -38.192 OFFCURVE",
"585.659 17.41 OFFCURVE",
"556 53 CURVE",
"351 317 LINE",
"556 582 LINE SMOOTH",
"584.863 619.522 OFFCURVE",
"536.645 675.511 OFFCURVE",
"497 621 CURVE",
"302 365 LINE",
"108 621 LINE",
"98.667 636.333 OFFCURVE",
"88 644 OFFCURVE",
"76 644 CURVE",
"74 644 LINE",
"63.333 644 OFFCURVE",
"54 639.333 OFFCURVE",
"46 630 CURVE SMOOTH",
"41.333 625.333 OFFCURVE",
"39 619 OFFCURVE",
"39 611 CURVE SMOOTH",
"39 599.667 OFFCURVE",
"42.333 590 OFFCURVE",
"49 582 CURVE SMOOTH",
"254 317 LINE",
"49 53 LINE",
"16.379 20.085 OFFCURVE",
"66.268 -37.693 OFFCURVE",
"108 13 CURVE"
);
}
);
};
layerId = "3776B938-A14A-42B9-91A8-ACB6A1608662";
width = 600;
}
);
leftKerningGroup = "80";
rightKerningGroup = "80";
unicode = 0058;
},
{
color = 4;
glyphname = Y;
lastChange = "2016-07-19 23:58:47 +0000";
layers = (
{
background = {
paths = (
{
closed = 1;
nodes = (
"247 -16 OFFCURVE",
"287 -16 OFFCURVE",
"287 20 CURVE SMOOTH",
"287 310 LINE",
"492 604 LINE SMOOTH",
"505 623 OFFCURVE",
"497 641 OFFCURVE",
"478 643 CURVE",
"473 643 OFFCURVE",
"466 638 OFFCURVE",
"457 627 CURVE",
"266 354 LINE",
"74 627 LINE SMOOTH",
"59 648 OFFCURVE",
"50 644 OFFCURVE",
"39 636 CURVE",
"31 628 OFFCURVE",
"31 617 OFFCURVE",
"40 604 CURVE SMOOTH",
"246 310 LINE",
"246 20 LINE"
);
}
);
};
layerId = "0E6FACCE-B85C-44A4-8B06-9EFDFED90B40";
paths = (
{
closed = 0;
nodes = (
"263 22 LINE",
"263 258 LINE"
);
},
{
closed = 0;
nodes = (
"264 259 LINE",
"498 623 LINE"
);
},
{
closed = 0;
nodes = (
"30 623 LINE",
"261 259 LINE"
);
}
);
width = 528;
},
{
anchors = (
{
name = bottom;
position = "{255, 0}";
},
{
name = top;
position = "{255, 633}";
},
{
name = topleft;
position = "{20, 633}";
}
);
background = {
paths = (
{
closed = 1;
nodes = (
"163 -16 OFFCURVE",
"203 -16 OFFCURVE",
"203 20 CURVE SMOOTH",
"203 310 LINE",
"408 604 LINE SMOOTH",
"421 623 OFFCURVE",
"413 641 OFFCURVE",
"394 643 CURVE",
"389 643 OFFCURVE",
"382 638 OFFCURVE",
"373 627 CURVE",
"182 354 LINE",
"-10 627 LINE SMOOTH",
"-25 648 OFFCURVE",
"-34 644 OFFCURVE",
"-45 636 CURVE",
"-53 628 OFFCURVE",
"-53 617 OFFCURVE",
"-44 604 CURVE SMOOTH",
"162 310 LINE",
"162 20 LINE"
);
}
);
};
layerId = "B309FD91-69BF-47D2-8142-D25EBE917F3C";
paths = (
{
closed = 1;
nodes = (
"266 0 OFFCURVE",
"275 9 OFFCURVE",
"275 21 CURVE SMOOTH",
"275 240 LINE",
"507 600 LINE SMOOTH",
"509 604 OFFCURVE",
"510 608 OFFCURVE",
"510 612 CURVE SMOOTH",
"510 624 OFFCURVE",
"501 633 OFFCURVE",
"489 633 CURVE SMOOTH",
"481 633 OFFCURVE",
"475 629 OFFCURVE",
"471 623 CURVE SMOOTH",
"254 285 LINE",
"39 623 LINE SMOOTH",
"35 629 OFFCURVE",
"29 633 OFFCURVE",
"21 633 CURVE SMOOTH",
"9 633 OFFCURVE",
"0 624 OFFCURVE",
"0 612 CURVE SMOOTH",
"0 608 OFFCURVE",
"1 604 OFFCURVE",
"3 600 CURVE SMOOTH",
"233 239 LINE",
"233 21 LINE SMOOTH",
"233 9 OFFCURVE",
"242 0 OFFCURVE",
"254 0 CURVE SMOOTH"
);
}
);
width = 510;
},
{
background = {
paths = (
{
closed = 1;
nodes = (
"307.333 -7 OFFCURVE",
"320 6 OFFCURVE",
"320 32 CURVE SMOOTH",
"320 306 LINE",
"534 583 LINE",
"565 618.098 OFFCURVE",
"518.667 673.431 OFFCURVE",
"475 621 CURVE",
"281 365 LINE",
"86 621 LINE",
"44.026 673.431 OFFCURVE",
"-3.752 618.098 OFFCURVE",
"28 583 CURVE",
"243 306 LINE",
"243 32 LINE",
"243.667 6 OFFCURVE",
"256.667 -7 OFFCURVE",
"282 -7 CURVE SMOOTH"
);
}
);
};
layerId = "3776B938-A14A-42B9-91A8-ACB6A1608662";
width = 600;
}
);
leftKerningGroup = "80";
rightKerningGroup = "80";
unicode = 0059;
},
{
color = 4;
glyphname = Z;
lastChange = "2016-07-19 23:53:21 +0000";
layers = (
{
background = {
paths = (
{
closed = 1;
nodes = (
"459 0 LINE SMOOTH",
"499 0 OFFCURVE",
"499 42 OFFCURVE",
"459 42 CURVE SMOOTH",
"95 42 LINE",
"489 590 LINE",
"489 636 LINE",
"76 636 LINE SMOOTH",
"34.667 636 OFFCURVE",
"34.667 594 OFFCURVE",
"76 594 CURVE SMOOTH",
"442 594 LINE",
"46 44 LINE",
"46 0 LINE"
);
}
);
};
layerId = "0E6FACCE-B85C-44A4-8B06-9EFDFED90B40";
paths = (
{
closed = 0;
nodes = (
"72 19 LINE",
"420 19 LINE",
"502 19 OFFCURVE",
"542 58 OFFCURVE",
"542 141 CURVE"
);
},
{
closed = 0;
nodes = (
"61 19 LINE",
"506 612 LINE"
);
},
{
closed = 0;
nodes = (
"47 490 LINE",
"47 573 OFFCURVE",
"87 612 OFFCURVE",
"169 612 CURVE",
"499 612 LINE"
);
}
);
width = 600;
},
{
anchors = (
{
name = bottom;
position = "{307, 0}";
},
{
name = top;
position = "{307, 633}";
}
);
background = {
paths = (
{
closed = 1;
nodes = (
"496 0 LINE SMOOTH",
"536 0 OFFCURVE",
"536 42 OFFCURVE",
"496 42 CURVE SMOOTH",
"132 42 LINE",
"526 590 LINE",
"526 636 LINE",
"113 636 LINE SMOOTH",
"72 636 OFFCURVE",
"72 594 OFFCURVE",
"113 594 CURVE SMOOTH",
"479 594 LINE",
"83 44 LINE",
"83 0 LINE"
);
}
);
};
layerId = "B309FD91-69BF-47D2-8142-D25EBE917F3C";
paths = (
{
closed = 1;
nodes = (
"425 0 LINE SMOOTH",
"519 0 OFFCURVE",
"568 49 OFFCURVE",
"568 143 CURVE SMOOTH",
"568 155 OFFCURVE",
"559 164 OFFCURVE",
"547 164 CURVE SMOOTH",
"535 164 OFFCURVE",
"526 155 OFFCURVE",
"526 143 CURVE SMOOTH",
"526 72 OFFCURVE",
"496 42 OFFCURVE",
"425 42 CURVE SMOOTH",
"109 42 LINE",
"528 599 LINE SMOOTH",
"531 603 OFFCURVE",
"532 607 OFFCURVE",
"532 612 CURVE SMOOTH",
"532 624 OFFCURVE",
"523 633 OFFCURVE",
"511 633 CURVE",
"174 633 LINE",
"80 633 OFFCURVE",
"31 584 OFFCURVE",
"31 490 CURVE SMOOTH",
"31 478 OFFCURVE",
"40 469 OFFCURVE",
"52 469 CURVE SMOOTH",
"64 469 OFFCURVE",
"73 478 OFFCURVE",
"73 490 CURVE SMOOTH",
"73 561 OFFCURVE",
"103 591 OFFCURVE",
"174 591 CURVE SMOOTH",
"468 591 LINE",
"49 34 LINE SMOOTH",
"46 30 OFFCURVE",
"45 26 OFFCURVE",
"45 21 CURVE SMOOTH",
"45 9 OFFCURVE",
"54 0 OFFCURVE",
"66 0 CURVE"
);
}
);
width = 613;
},
{
background = {
paths = (
{
closed = 1;
nodes = (
"508 0 LINE SMOOTH",
"538 0 OFFCURVE",
"553 12 OFFCURVE",
"553 36 CURVE SMOOTH",
"553 60 OFFCURVE",
"538 72 OFFCURVE",
"508 72 CURVE SMOOTH",
"144 72 LINE",
"553 569 LINE",
"553 636 LINE",
"95 636 LINE SMOOTH",
"64.333 636 OFFCURVE",
"49 624 OFFCURVE",
"49 600 CURVE SMOOTH",
"49 576 OFFCURVE",
"64.333 564 OFFCURVE",
"95 564 CURVE SMOOTH",
"461 564 LINE",
"50 64 LINE",
"50 0 LINE"
);
}
);
};
layerId = "3776B938-A14A-42B9-91A8-ACB6A1608662";
width = 600;
},
{
associatedMasterId = "0E6FACCE-B85C-44A4-8B06-9EFDFED90B40";
background = {
paths = (
{
closed = 1;
nodes = (
"459 0 LINE SMOOTH",
"499 0 OFFCURVE",
"499 42 OFFCURVE",
"459 42 CURVE SMOOTH",
"95 42 LINE",
"489 590 LINE",
"489 636 LINE",
"76 636 LINE SMOOTH",
"34.667 636 OFFCURVE",
"34.667 594 OFFCURVE",
"76 594 CURVE SMOOTH",
"442 594 LINE",
"46 44 LINE",
"46 0 LINE"
);
}
);
};
layerId = "52802D77-C2F4-4B06-9B2A-694C3984C552";
name = "Light Jul 18 16, 18:09";
paths = (
{
closed = 0;
nodes = (
"72 19 LINE",
"362 19 LINE",
"444 19 OFFCURVE",
"484 59 OFFCURVE",
"484 142 CURVE"
);
},
{
closed = 0;
nodes = (
"61 19 LINE",
"477 612 LINE"
);
},
{
closed = 0;
nodes = (
"57 489 LINE",
"57 572 OFFCURVE",
"97 612 OFFCURVE",
"179 612 CURVE",
"470 612 LINE"
);
}
);
width = 600;
},
{
associatedMasterId = "B309FD91-69BF-47D2-8142-D25EBE917F3C";
background = {
paths = (
{
closed = 1;
nodes = (
"459 0 LINE SMOOTH",
"499 0 OFFCURVE",
"499 42 OFFCURVE",
"459 42 CURVE SMOOTH",
"95 42 LINE",
"489 590 LINE",
"489 636 LINE",
"76 636 LINE SMOOTH",
"34.667 636 OFFCURVE",
"34.667 594 OFFCURVE",
"76 594 CURVE SMOOTH",
"442 594 LINE",
"46 44 LINE",
"46 0 LINE"
);
}
);
};
layerId = "73E9ECED-BEFE-40CD-A01D-CD1E3ECDCE74";
name = "SemiLight Jul 18 16, 18:09";
paths = (
{
closed = 1;
nodes = (
"93 0 LINE",
"471 0 LINE SMOOTH",
"485 0 OFFCURVE",
"492 7 OFFCURVE",
"492 21 CURVE SMOOTH",
"492 35 OFFCURVE",
"485 42 OFFCURVE",
"471 42 CURVE SMOOTH",
"56 42 LINE",
"81 20 LINE",
"494.071 599.768 LINE SMOOTH",
"497 604 OFFCURVE",
"498 607.436 OFFCURVE",
"498 612 CURVE SMOOTH",
"498 623.598 OFFCURVE",
"491 633 OFFCURVE",
"477 633 CURVE",
"69 633 LINE SMOOTH",
"55 633 OFFCURVE",
"48 626 OFFCURVE",
"48 612 CURVE SMOOTH",
"48 598 OFFCURVE",
"55 591 OFFCURVE",
"69 591 CURVE SMOOTH",
"482 591 LINE",
"454 607 LINE",
"44 33 LINE SMOOTH",
"42 30 OFFCURVE",
"40 26 OFFCURVE",
"40 21 CURVE SMOOTH",
"40 9 OFFCURVE",
"49 0 OFFCURVE",
"61 0 CURVE"
);
}
);
width = 600;
}
);
leftKerningGroup = "80";
rightKerningGroup = "80";
unicode = 005A;
},
{
color = 4;
glyphname = a;
lastChange = "2016-07-19 23:53:43 +0000";
layers = (
{
background = {
components = (
{
name = n;
transform = "{1, 0, 0, 1, -51, 0}";
}
);
paths = (
{
closed = 1;
nodes = (
"237 0 LINE SMOOTH",
"311 0 OFFCURVE",
"366 24 OFFCURVE",
"402 72 CURVE",
"402 23 LINE SMOOTH",
"402 -17 OFFCURVE",
"444 -17 OFFCURVE",
"444 23 CURVE SMOOTH",
"444 337 LINE SMOOTH",
"444 430 OFFCURVE",
"422 461 OFFCURVE",
"349 461 CURVE SMOOTH",
"194 461 LINE SMOOTH",
"105 461 OFFCURVE",
"42 426 OFFCURVE",
"42 354 CURVE SMOOTH",
"42 314 OFFCURVE",
"84 314 OFFCURVE",
"84 354 CURVE SMOOTH",
"84 397 OFFCURVE",
"123 419 OFFCURVE",
"201 419 CURVE SMOOTH",
"342 419 LINE SMOOTH",
"387 419 OFFCURVE",
"402 401 OFFCURVE",
"402 354 CURVE SMOOTH",
"402 290 LINE",
"250 290 LINE SMOOTH",
"197 290 OFFCURVE",
"155 284 OFFCURVE",
"123 272 CURVE SMOOTH",
"69 252 OFFCURVE",
"42 199 OFFCURVE",
"42 114 CURVE SMOOTH",
"42 82 OFFCURVE",
"51 55 OFFCURVE",
"70 32 CURVE SMOOTH",
"89 11 OFFCURVE",
"113 0 OFFCURVE",
"144 0 CURVE SMOOTH"
);
},
{
closed = 1;
nodes = (
"90 42 OFFCURVE",
"72 126 OFFCURVE",
"94 187 CURVE SMOOTH",
"113 243 OFFCURVE",
"166 248 OFFCURVE",
"250 248 CURVE SMOOTH",
"402 248 LINE",
"402 228 LINE SMOOTH",
"402 108 OFFCURVE",
"342 42 OFFCURVE",
"237 42 CURVE SMOOTH",
"144 42 LINE SMOOTH"
);
}
);
};
guideLines = (
{
angle = 90;
position = "{176, 159}";
},
{
angle = 90;
position = "{50, 269}";
}
);
layerId = "0E6FACCE-B85C-44A4-8B06-9EFDFED90B40";
paths = (
{
closed = 0;
nodes = (
"439 270 LINE",
"175 270 LINE",
"86 270 OFFCURVE",
"51 235 OFFCURVE",
"51 146 CURVE",
"51 57 OFFCURVE",
"86 22 OFFCURVE",
"175 22 CURVE",
"241 22 LINE",
"356 22 OFFCURVE",
"439 62 OFFCURVE",
"439 172 CURVE"
);
},
{
closed = 0;
nodes = (
"439 20 LINE",
"439 287 LINE",
"439 397 OFFCURVE",
"395 441 OFFCURVE",
"285 441 CURVE",
"217 441 LINE",
"104 441 OFFCURVE",
"59 410 OFFCURVE",
"59 331 CURVE"
);
}
);
width = 489;
},
{
associatedMasterId = "0E6FACCE-B85C-44A4-8B06-9EFDFED90B40";
background = {
paths = (
{
closed = 1;
nodes = (
"452 -7 OFFCURVE",
"462 3 OFFCURVE",
"462 23 CURVE SMOOTH",
"462 337 LINE SMOOTH",
"462 430.333 OFFCURVE",
"440.333 461 OFFCURVE",
"367 461 CURVE SMOOTH",
"212 461 LINE SMOOTH",
"122.667 461 OFFCURVE",
"60 426 OFFCURVE",
"60 354 CURVE SMOOTH",
"60 334 OFFCURVE",
"71 324 OFFCURVE",
"81 324 CURVE SMOOTH",
"92 324 OFFCURVE",
"102 334 OFFCURVE",
"102 354 CURVE SMOOTH",
"102 397.333 OFFCURVE",
"141 419 OFFCURVE",
"219 419 CURVE SMOOTH",
"360 419 LINE SMOOTH",
"405.333 419 OFFCURVE",
"420 400.667 OFFCURVE",
"420 354 CURVE SMOOTH",
"420 290 LINE",
"268 290 LINE SMOOTH",
"215.333 290 OFFCURVE",
"173 284 OFFCURVE",
"141 272 CURVE SMOOTH",
"87 252 OFFCURVE",
"60 199.333 OFFCURVE",
"60 114 CURVE SMOOTH",
"60 82 OFFCURVE",
"69.333 54.667 OFFCURVE",
"88 32 CURVE SMOOTH",
"106.667 10.667 OFFCURVE",
"131.333 0 OFFCURVE",
"162 0 CURVE SMOOTH",
"255 0 LINE SMOOTH",
"329 0 OFFCURVE",
"384 24 OFFCURVE",
"420 72 CURVE",
"420 23 LINE SMOOTH",
"420 3 OFFCURVE",
"431 -7 OFFCURVE",
"441 -7 CURVE SMOOTH"
);
},
{
closed = 1;
nodes = (
"123 42 OFFCURVE",
"103 86 OFFCURVE",
"103 133 CURVE SMOOTH",
"103 152 OFFCURVE",
"106 170 OFFCURVE",
"111.5 187 CURVE SMOOTH",
"131.338 243.382 OFFCURVE",
"183.796 248 OFFCURVE",
"268 248 CURVE SMOOTH",
"420 248 LINE",
"420 228 LINE SMOOTH",
"420 108 OFFCURVE",
"360.333 42 OFFCURVE",
"255 42 CURVE SMOOTH",
"162 42 LINE SMOOTH"
);
}
);
};
layerId = "10B218E2-C40F-4A90-81B3-DE104A9C37B1";
name = "Regular Jun 28 16, 13:38";
paths = (
{
closed = 0;
nodes = (
"439 0 LINE",
"439 353 LINE",
"439 415 OFFCURVE",
"405 443 OFFCURVE",
"330 443 CURVE",
"209 443 LINE",
"119 443 OFFCURVE",
"78 410 OFFCURVE",
"78 338 CURVE"
);
},
{
closed = 0;
nodes = (
"439 265 LINE",
"244 265 LINE SMOOTH",
"130 265 OFFCURVE",
"78 223 OFFCURVE",
"78 132 CURVE SMOOTH",
"78 48 OFFCURVE",
"126 10 OFFCURVE",
"231 10 CURVE",
"374 9 OFFCURVE",
"439 78 OFFCURVE",
"439 230 CURVE SMOOTH"
);
}
);
width = 600;
},
{
anchors = (
{
name = bottom;
position = "{295, 0}";
},
{
name = ogonek;
position = "{489, 10}";
},
{
name = top;
position = "{295, 461}";
}
);
background = {
components = (
{
name = n;
transform = "{1, 0, 0, 1, 20, 0}";
}
);
paths = (
{
closed = 1;
nodes = (
"1052 0 LINE SMOOTH",
"1126 0 OFFCURVE",
"1181 24 OFFCURVE",
"1217 72 CURVE",
"1217 23 LINE SMOOTH",
"1217 -17 OFFCURVE",
"1259 -17 OFFCURVE",
"1259 23 CURVE SMOOTH",
"1259 337 LINE SMOOTH",
"1259 430 OFFCURVE",
"1237 461 OFFCURVE",
"1164 461 CURVE SMOOTH",
"1009 461 LINE SMOOTH",
"920 461 OFFCURVE",
"857 426 OFFCURVE",
"857 354 CURVE SMOOTH",
"857 314 OFFCURVE",
"899 314 OFFCURVE",
"899 354 CURVE SMOOTH",
"899 397 OFFCURVE",
"938 419 OFFCURVE",
"1016 419 CURVE SMOOTH",
"1157 419 LINE SMOOTH",
"1202 419 OFFCURVE",
"1217 401 OFFCURVE",
"1217 354 CURVE SMOOTH",
"1217 290 LINE",
"1065 290 LINE SMOOTH",
"1012 290 OFFCURVE",
"970 284 OFFCURVE",
"938 272 CURVE SMOOTH",
"884 252 OFFCURVE",
"857 199 OFFCURVE",
"857 114 CURVE SMOOTH",
"857 82 OFFCURVE",
"866 55 OFFCURVE",
"885 32 CURVE SMOOTH",
"903 10 OFFCURVE",
"928 0 OFFCURVE",
"959 0 CURVE SMOOTH"
);
},
{
closed = 1;
nodes = (
"905 42 OFFCURVE",
"887 126 OFFCURVE",
"909 187 CURVE SMOOTH",
"929 243 OFFCURVE",
"981 248 OFFCURVE",
"1065 248 CURVE SMOOTH",
"1217 248 LINE",
"1217 228 LINE SMOOTH",
"1217 108 OFFCURVE",
"1157 42 OFFCURVE",
"1052 42 CURVE SMOOTH",
"959 42 LINE SMOOTH"
);
}
);
};
layerId = "B309FD91-69BF-47D2-8142-D25EBE917F3C";
paths = (
{
closed = 1;
nodes = (
"501 -1 OFFCURVE",
"510 8 OFFCURVE",
"510 20 CURVE SMOOTH",
"510 287 LINE SMOOTH",
"510 409 OFFCURVE",
"457 462 OFFCURVE",
"335 462 CURVE SMOOTH",
"267 462 LINE SMOOTH",
"143 462 OFFCURVE",
"88 423 OFFCURVE",
"88 331 CURVE SMOOTH",
"88 319 OFFCURVE",
"97 310 OFFCURVE",
"109 310 CURVE SMOOTH",
"121 310 OFFCURVE",
"130 319 OFFCURVE",
"130 331 CURVE SMOOTH",
"130 396 OFFCURVE",
"164 420 OFFCURVE",
"267 420 CURVE SMOOTH",
"335 420 LINE SMOOTH",
"432 420 OFFCURVE",
"467 386 OFFCURVE",
"468 291 CURVE",
"225 291 LINE SMOOTH",
"124 291 OFFCURVE",
"80 247 OFFCURVE",
"80 146 CURVE SMOOTH",
"80 45 OFFCURVE",
"124 1 OFFCURVE",
"225 1 CURVE SMOOTH",
"291 1 LINE SMOOTH",
"372 1 OFFCURVE",
"431 20 OFFCURVE",
"468 57 CURVE",
"468 20 LINE SMOOTH",
"468 8 OFFCURVE",
"477 -1 OFFCURVE",
"489 -1 CURVE SMOOTH"
);
},
{
closed = 1;
nodes = (
"148 43 OFFCURVE",
"122 69 OFFCURVE",
"122 146 CURVE SMOOTH",
"122 223 OFFCURVE",
"148 249 OFFCURVE",
"225 249 CURVE SMOOTH",
"468 249 LINE",
"468 172 LINE SMOOTH",
"468 86 OFFCURVE",
"410 43 OFFCURVE",
"291 43 CURVE SMOOTH",
"225 43 LINE SMOOTH"
);
}
);
width = 590;
},
{
layerId = "3776B938-A14A-42B9-91A8-ACB6A1608662";
paths = (
{
closed = 1;
nodes = (
"464 116 OFFCURVE",
"441 72 OFFCURVE",
"302 72 CURVE SMOOTH",
"263 72 LINE SMOOTH",
"174 72 OFFCURVE",
"148 95 OFFCURVE",
"148 160 CURVE SMOOTH",
"148 230 OFFCURVE",
"173 250 OFFCURVE",
"262 250 CURVE SMOOTH",
"480 250 LINE",
"480 312 LINE",
"262 312 LINE SMOOTH",
"136 312 OFFCURVE",
"76 268 OFFCURVE",
"76 160 CURVE SMOOTH",
"76 54 OFFCURVE",
"135 0 OFFCURVE",
"263 0 CURVE SMOOTH",
"302 0 LINE SMOOTH",
"374 0 OFFCURVE",
"427 22 OFFCURVE",
"464 73 CURVE",
"464 36 LINE SMOOTH",
"464 12 OFFCURVE",
"476 0 OFFCURVE",
"500 0 CURVE SMOOTH",
"524 0 OFFCURVE",
"536 12 OFFCURVE",
"536 36 CURVE SMOOTH",
"536 303 LINE SMOOTH",
"536 433 OFFCURVE",
"477 494 OFFCURVE",
"351 494 CURVE SMOOTH",
"261 494 LINE SMOOTH",
"135 494 OFFCURVE",
"75 467 OFFCURVE",
"75 363 CURVE SMOOTH",
"75 339 OFFCURVE",
"87 327 OFFCURVE",
"111 327 CURVE SMOOTH",
"135 327 OFFCURVE",
"147 339 OFFCURVE",
"147 363 CURVE SMOOTH",
"147 412 OFFCURVE",
"170 422 OFFCURVE",
"261 422 CURVE SMOOTH",
"351 422 LINE SMOOTH",
"437 422 OFFCURVE",
"465 393 OFFCURVE",
"464 300 CURVE"
);
}
);
width = 636;
},
{
associatedMasterId = "B309FD91-69BF-47D2-8142-D25EBE917F3C";
background = {
paths = (
{
closed = 1;
nodes = (
"943 0 LINE SMOOTH",
"1017 0 OFFCURVE",
"1072 24 OFFCURVE",
"1108 72 CURVE",
"1108 23 LINE SMOOTH",
"1108 -17 OFFCURVE",
"1150 -17 OFFCURVE",
"1150 23 CURVE SMOOTH",
"1150 337 LINE SMOOTH",
"1150 430 OFFCURVE",
"1128 461 OFFCURVE",
"1055 461 CURVE SMOOTH",
"900 461 LINE SMOOTH",
"811 461 OFFCURVE",
"748 426 OFFCURVE",
"748 354 CURVE SMOOTH",
"748 314 OFFCURVE",
"790 314 OFFCURVE",
"790 354 CURVE SMOOTH",
"790 397 OFFCURVE",
"829 419 OFFCURVE",
"907 419 CURVE SMOOTH",
"1048 419 LINE SMOOTH",
"1093 419 OFFCURVE",
"1108 401 OFFCURVE",
"1108 354 CURVE SMOOTH",
"1108 290 LINE",
"956 290 LINE SMOOTH",
"903 290 OFFCURVE",
"861 284 OFFCURVE",
"829 272 CURVE SMOOTH",
"775 252 OFFCURVE",
"748 199 OFFCURVE",
"748 114 CURVE SMOOTH",
"748 82 OFFCURVE",
"757 55 OFFCURVE",
"776 32 CURVE SMOOTH",
"794 10 OFFCURVE",
"819 0 OFFCURVE",
"850 0 CURVE SMOOTH"
);
},
{
closed = 1;
nodes = (
"796 42 OFFCURVE",
"778 126 OFFCURVE",
"800 187 CURVE SMOOTH",
"820 243 OFFCURVE",
"872 248 OFFCURVE",
"956 248 CURVE SMOOTH",
"1108 248 LINE",
"1108 228 LINE SMOOTH",
"1108 108 OFFCURVE",
"1048 42 OFFCURVE",
"943 42 CURVE SMOOTH",
"850 42 LINE SMOOTH"
);
},
{
closed = 1;
nodes = (
"188 461 LINE SMOOTH",
"66 461 OFFCURVE",
"17 422 OFFCURVE",
"17 325 CURVE SMOOTH",
"17 313 OFFCURVE",
"26 304 OFFCURVE",
"38 304 CURVE SMOOTH",
"50 304 OFFCURVE",
"59 313 OFFCURVE",
"59 325 CURVE SMOOTH",
"59 396 OFFCURVE",
"88 419 OFFCURVE",
"188 419 CURVE SMOOTH",
"279 419 LINE SMOOTH",
"376 419 OFFCURVE",
"407 387 OFFCURVE",
"407 284 CURVE SMOOTH",
"407 174 LINE SMOOTH",
"407 71 OFFCURVE",
"376 41 OFFCURVE",
"278 41 CURVE SMOOTH",
"188 41 LINE SMOOTH",
"88 41 OFFCURVE",
"59 64 OFFCURVE",
"59 135 CURVE SMOOTH",
"59 147 OFFCURVE",
"50 156 OFFCURVE",
"38 156 CURVE SMOOTH",
"26 156 OFFCURVE",
"17 147 OFFCURVE",
"17 135 CURVE SMOOTH",
"17 38 OFFCURVE",
"66 -1 OFFCURVE",
"188 -1 CURVE SMOOTH",
"278 -1 LINE SMOOTH",
"400 -1 OFFCURVE",
"449 48 OFFCURVE",
"449 174 CURVE SMOOTH",
"449 284 LINE SMOOTH",
"449 410 OFFCURVE",
"400 461 OFFCURVE",
"279 461 CURVE SMOOTH"
);
}
);
};
layerId = "5E1879F7-E9A6-47B0-9C84-4A6423DC8CF6";
name = "SemiLight Jul 18 16, 16:47";
paths = (
{
closed = 1;
nodes = (
"229 0 LINE SMOOTH",
"316 0 OFFCURVE",
"372 16 OFFCURVE",
"406 82 CURVE",
"406 19 LINE SMOOTH",
"406 5 OFFCURVE",
"413 -2 OFFCURVE",
"427 -2 CURVE SMOOTH",
"441 -2 OFFCURVE",
"448 5 OFFCURVE",
"448 19 CURVE SMOOTH",
"448 286 LINE SMOOTH",
"448 407 OFFCURVE",
"396 461 OFFCURVE",
"278 461 CURVE SMOOTH",
"221 461 LINE SMOOTH",
"103 461 OFFCURVE",
"50 420 OFFCURVE",
"50 325 CURVE SMOOTH",
"50 311 OFFCURVE",
"57 304 OFFCURVE",
"71 304 CURVE SMOOTH",
"85 304 OFFCURVE",
"92 311 OFFCURVE",
"92 325 CURVE SMOOTH",
"92 394 OFFCURVE",
"125 419 OFFCURVE",
"221 419 CURVE SMOOTH",
"278 419 LINE SMOOTH",
"369 419 OFFCURVE",
"404 386 OFFCURVE",
"406 295 CURVE",
"221 295 LINE SMOOTH",
"103 295 OFFCURVE",
"50 257 OFFCURVE",
"50 165 CURVE SMOOTH",
"50 50 OFFCURVE",
"102 0 OFFCURVE",
"222 0 CURVE SMOOTH"
);
},
{
closed = 1;
nodes = (
"125 42 OFFCURVE",
"92 74 OFFCURVE",
"92 165 CURVE SMOOTH",
"92 231 OFFCURVE",
"125 253 OFFCURVE",
"221 253 CURVE SMOOTH",
"406 253 LINE",
"405 84 OFFCURVE",
"366 42 OFFCURVE",
"229 42 CURVE SMOOTH",
"222 42 LINE SMOOTH"
);
}
);
width = 498;
},
{
associatedMasterId = "0E6FACCE-B85C-44A4-8B06-9EFDFED90B40";
background = {
components = (
{
name = n;
transform = "{1, 0, 0, 1, -51, 0}";
}
);
paths = (
{
closed = 1;
nodes = (
"237 0 LINE SMOOTH",
"311 0 OFFCURVE",
"366 24 OFFCURVE",
"402 72 CURVE",
"402 23 LINE SMOOTH",
"402 -17 OFFCURVE",
"444 -17 OFFCURVE",
"444 23 CURVE SMOOTH",
"444 337 LINE SMOOTH",
"444 430 OFFCURVE",
"422 461 OFFCURVE",
"349 461 CURVE SMOOTH",
"194 461 LINE SMOOTH",
"105 461 OFFCURVE",
"42 426 OFFCURVE",
"42 354 CURVE SMOOTH",
"42 314 OFFCURVE",
"84 314 OFFCURVE",
"84 354 CURVE SMOOTH",
"84 397 OFFCURVE",
"123 419 OFFCURVE",
"201 419 CURVE SMOOTH",
"342 419 LINE SMOOTH",
"387 419 OFFCURVE",
"402 401 OFFCURVE",
"402 354 CURVE SMOOTH",
"402 290 LINE",
"250 290 LINE SMOOTH",
"197 290 OFFCURVE",
"155 284 OFFCURVE",
"123 272 CURVE SMOOTH",
"69 252 OFFCURVE",
"42 199 OFFCURVE",
"42 114 CURVE SMOOTH",
"42 82 OFFCURVE",
"51 55 OFFCURVE",
"70 32 CURVE SMOOTH",
"89 11 OFFCURVE",
"113 0 OFFCURVE",
"144 0 CURVE SMOOTH"
);
},
{
closed = 1;
nodes = (
"90 42 OFFCURVE",
"72 126 OFFCURVE",
"94 187 CURVE SMOOTH",
"113 243 OFFCURVE",
"166 248 OFFCURVE",
"250 248 CURVE SMOOTH",
"402 248 LINE",
"402 228 LINE SMOOTH",
"402 108 OFFCURVE",
"342 42 OFFCURVE",
"237 42 CURVE SMOOTH",
"144 42 LINE SMOOTH"
);
}
);
};
guideLines = (
{
angle = 90;
position = "{175, 164}";
},
{
angle = 90;
position = "{50, 269}";
},
{
position = "{201, 144}";
}
);
layerId = "FE29F521-D432-4C15-9EC3-B0597B32B4E0";
name = "2";
paths = (
{
closed = 0;
nodes = (
"439 270 LINE",
"175 270 LINE",
"86 270 OFFCURVE",
"51 235 OFFCURVE",
"51 146 CURVE",
"51 57 OFFCURVE",
"86 22 OFFCURVE",
"175 22 CURVE",
"241 22 LINE",
"356 22 OFFCURVE",
"439 62 OFFCURVE",
"439 172 CURVE"
);
},
{
closed = 0;
nodes = (
"439 20 LINE",
"439 287 LINE",
"439 397 OFFCURVE",
"395 441 OFFCURVE",
"285 441 CURVE",
"217 441 LINE",
"104 441 OFFCURVE",
"59 410 OFFCURVE",
"59 331 CURVE"
);
}
);
width = 489;
},
{
associatedMasterId = "0E6FACCE-B85C-44A4-8B06-9EFDFED90B40";
background = {
components = (
{
name = n;
transform = "{1, 0, 0, 1, -51, 0}";
}
);
paths = (
{
closed = 1;
nodes = (
"237 0 LINE SMOOTH",
"311 0 OFFCURVE",
"366 24 OFFCURVE",
"402 72 CURVE",
"402 23 LINE SMOOTH",
"402 -17 OFFCURVE",
"444 -17 OFFCURVE",
"444 23 CURVE SMOOTH",
"444 337 LINE SMOOTH",
"444 430 OFFCURVE",
"422 461 OFFCURVE",
"349 461 CURVE SMOOTH",
"194 461 LINE SMOOTH",
"105 461 OFFCURVE",
"42 426 OFFCURVE",
"42 354 CURVE SMOOTH",
"42 314 OFFCURVE",
"84 314 OFFCURVE",
"84 354 CURVE SMOOTH",
"84 397 OFFCURVE",
"123 419 OFFCURVE",
"201 419 CURVE SMOOTH",
"342 419 LINE SMOOTH",
"387 419 OFFCURVE",
"402 401 OFFCURVE",
"402 354 CURVE SMOOTH",
"402 290 LINE",
"250 290 LINE SMOOTH",
"197 290 OFFCURVE",
"155 284 OFFCURVE",
"123 272 CURVE SMOOTH",
"69 252 OFFCURVE",
"42 199 OFFCURVE",
"42 114 CURVE SMOOTH",
"42 82 OFFCURVE",
"51 55 OFFCURVE",
"70 32 CURVE SMOOTH",
"89 11 OFFCURVE",
"113 0 OFFCURVE",
"144 0 CURVE SMOOTH"
);
},
{
closed = 1;
nodes = (
"90 42 OFFCURVE",
"72 126 OFFCURVE",
"94 187 CURVE SMOOTH",
"113 243 OFFCURVE",
"166 248 OFFCURVE",
"250 248 CURVE SMOOTH",
"402 248 LINE",
"402 228 LINE SMOOTH",
"402 108 OFFCURVE",
"342 42 OFFCURVE",
"237 42 CURVE SMOOTH",
"144 42 LINE SMOOTH"
);
}
);
};
guideLines = (
{
angle = 90;
position = "{248, 159}";
},
{
angle = 90;
position = "{50, 269}";
}
);
layerId = "DAEAEC8D-6269-4657-9C58-A664A98117A9";
name = "3";
paths = (
{
closed = 0;
nodes = (
"439 19 LINE",
"439 286 LINE",
"439 397 OFFCURVE",
"396 442 OFFCURVE",
"290 442 CURVE",
"165 442 LINE",
"83 442 OFFCURVE",
"50 409 OFFCURVE",
"50 327 CURVE"
);
},
{
closed = 0;
nodes = (
"439 269 LINE",
"201 269 LINE",
"94 269 OFFCURVE",
"51 236 OFFCURVE",
"51 153 CURVE",
"51 57 OFFCURVE",
"94 19 OFFCURVE",
"202 19 CURVE",
"241 19 LINE",
"382 19 OFFCURVE",
"439 62 OFFCURVE",
"439 259 CURVE"
);
}
);
width = 489;
}
);
leftMetricsKey = "=n-10";
rightMetricsKey = n;
unicode = 0061;
},
{
color = 4;
glyphname = ae;
lastChange = "2016-07-21 23:16:26 +0000";
layers = (
{
hints = (
{
place = "{1035.922, 0}";
}
);
layerId = "0E6FACCE-B85C-44A4-8B06-9EFDFED90B40";
paths = (
{
closed = 0;
nodes = (
"59 331 LINE",
"59 410 OFFCURVE",
"104 441 OFFCURVE",
"217 441 CURVE",
"255 441 LINE",
"365 441 OFFCURVE",
"409 397 OFFCURVE",
"409 287 CURVE",
"409 172 LINE",
"409 62 OFFCURVE",
"326 22 OFFCURVE",
"211 22 CURVE",
"175 22 LINE",
"86 22 OFFCURVE",
"51 57 OFFCURVE",
"51 146 CURVE",
"51 235 OFFCURVE",
"86 270 OFFCURVE",
"175 270 CURVE",
"409 270 LINE",
"769 270 LINE",
"769 389 OFFCURVE",
"726 440 OFFCURVE",
"619 440 CURVE",
"559 440 LINE",
"452 441 OFFCURVE",
"409 397 OFFCURVE",
"409 286 CURVE",
"409 176 LINE",
"409 65 OFFCURVE",
"452 20 OFFCURVE",
"558 20 CURVE",
"619 20 LINE",
"726 20 OFFCURVE",
"769 53 OFFCURVE",
"769 135 CURVE"
);
}
);
width = 819;
},
{
anchors = (
{
name = bottom;
position = "{455, 0}";
},
{
name = top;
position = "{455, 461}";
}
);
layerId = "B309FD91-69BF-47D2-8142-D25EBE917F3C";
paths = (
{
closed = 1;
nodes = (
"669 -1 LINE SMOOTH",
"787 -1 OFFCURVE",
"840 40 OFFCURVE",
"840 135 CURVE SMOOTH",
"840 147 OFFCURVE",
"831 156 OFFCURVE",
"819 156 CURVE SMOOTH",
"807 156 OFFCURVE",
"798 147 OFFCURVE",
"798 135 CURVE SMOOTH",
"798 66 OFFCURVE",
"765 41 OFFCURVE",
"669 41 CURVE SMOOTH",
"608 41 LINE SMOOTH",
"514 41 OFFCURVE",
"480 77 OFFCURVE",
"480 176 CURVE SMOOTH",
"480 249 LINE",
"819 249 LINE SMOOTH",
"832 249 OFFCURVE",
"840 256 OFFCURVE",
"840 270 CURVE SMOOTH",
"840 402 OFFCURVE",
"787 461 OFFCURVE",
"669 461 CURVE SMOOTH",
"609 461 LINE SMOOTH",
"533 462 OFFCURVE",
"484 437 OFFCURVE",
"459 382 CURVE",
"433 437 OFFCURVE",
"383 462 OFFCURVE",
"305 462 CURVE SMOOTH",
"267 462 LINE SMOOTH",
"143 462 OFFCURVE",
"88 423 OFFCURVE",
"88 331 CURVE SMOOTH",
"88 319 OFFCURVE",
"97 310 OFFCURVE",
"109 310 CURVE SMOOTH",
"121 310 OFFCURVE",
"130 319 OFFCURVE",
"130 331 CURVE SMOOTH",
"130 396 OFFCURVE",
"164 420 OFFCURVE",
"267 420 CURVE SMOOTH",
"305 420 LINE SMOOTH",
"402 420 OFFCURVE",
"437 386 OFFCURVE",
"438 291 CURVE",
"225 291 LINE SMOOTH",
"124 291 OFFCURVE",
"80 247 OFFCURVE",
"80 146 CURVE SMOOTH",
"80 45 OFFCURVE",
"124 1 OFFCURVE",
"225 1 CURVE SMOOTH",
"261 1 LINE SMOOTH",
"356 1 OFFCURVE",
"421 31 OFFCURVE",
"455 88 CURVE",
"478 27 OFFCURVE",
"528 -1 OFFCURVE",
"608 -1 CURVE SMOOTH"
);
},
{
closed = 1;
nodes = (
"148 43 OFFCURVE",
"122 69 OFFCURVE",
"122 146 CURVE SMOOTH",
"122 223 OFFCURVE",
"148 249 OFFCURVE",
"225 249 CURVE SMOOTH",
"438 249 LINE",
"438 172 LINE SMOOTH",
"438 86 OFFCURVE",
"380 43 OFFCURVE",
"261 43 CURVE SMOOTH",
"225 43 LINE SMOOTH"
);
},
{
closed = 1;
nodes = (
"481 386 OFFCURVE",
"515 420 OFFCURVE",
"609 419 CURVE SMOOTH",
"669 419 LINE SMOOTH",
"757 419 OFFCURVE",
"793 384 OFFCURVE",
"798 291 CURVE",
"480 291 LINE"
);
}
);
width = 910;
},
{
anchors = (
{
name = bottom;
position = "{469, 0}";
},
{
name = top;
position = "{469, 494}";
}
);
guideLines = (
{
angle = 90;
position = "{469, 458}";
}
);
layerId = "3776B938-A14A-42B9-91A8-ACB6A1608662";
paths = (
{
closed = 1;
nodes = (
"679 -16 LINE SMOOTH",
"805 -16 OFFCURVE",
"865 31 OFFCURVE",
"865 135 CURVE SMOOTH",
"865 155 OFFCURVE",
"849 171 OFFCURVE",
"829 171 CURVE SMOOTH",
"809 171 OFFCURVE",
"793 155 OFFCURVE",
"793 135 CURVE SMOOTH",
"793 76 OFFCURVE",
"768 56 OFFCURVE",
"679 56 CURVE SMOOTH",
"618 56 LINE SMOOTH",
"533 56 OFFCURVE",
"505 84 OFFCURVE",
"505 176 CURVE SMOOTH",
"505 234 LINE",
"828 234 LINE SMOOTH",
"852 234 OFFCURVE",
"865 247 OFFCURVE",
"865 270 CURVE SMOOTH",
"865 410 OFFCURVE",
"806 476 OFFCURVE",
"679 476 CURVE SMOOTH",
"619 476 LINE SMOOTH",
"548 477 OFFCURVE",
"499 452 OFFCURVE",
"469 399 CURVE",
"438 452 OFFCURVE",
"387 477 OFFCURVE",
"315 477 CURVE SMOOTH",
"277 477 LINE SMOOTH",
"145 477 OFFCURVE",
"83 432 OFFCURVE",
"83 331 CURVE SMOOTH",
"83 311 OFFCURVE",
"99 295 OFFCURVE",
"119 295 CURVE SMOOTH",
"139 295 OFFCURVE",
"155 311 OFFCURVE",
"155 331 CURVE SMOOTH",
"155 386 OFFCURVE",
"181 405 OFFCURVE",
"277 405 CURVE SMOOTH",
"315 405 LINE SMOOTH",
"398 405 OFFCURVE",
"428 381 OFFCURVE",
"433 306 CURVE",
"235 306 LINE SMOOTH",
"126 306 OFFCURVE",
"75 255 OFFCURVE",
"75 146 CURVE SMOOTH",
"75 37 OFFCURVE",
"126 -14 OFFCURVE",
"235 -14 CURVE SMOOTH",
"271 -14 LINE SMOOTH",
"358 -14 OFFCURVE",
"423 15 OFFCURVE",
"462 71 CURVE",
"492 12 OFFCURVE",
"543 -16 OFFCURVE",
"618 -16 CURVE SMOOTH"
);
},
{
closed = 1;
nodes = (
"166 58 OFFCURVE",
"147 77 OFFCURVE",
"147 146 CURVE SMOOTH",
"147 215 OFFCURVE",
"166 234 OFFCURVE",
"235 234 CURVE SMOOTH",
"433 234 LINE",
"433 172 LINE SMOOTH",
"433 95 OFFCURVE",
"383 58 OFFCURVE",
"271 58 CURVE SMOOTH",
"235 58 LINE SMOOTH"
);
},
{
closed = 1;
nodes = (
"510 381 OFFCURVE",
"539 405 OFFCURVE",
"619 404 CURVE SMOOTH",
"679 404 LINE SMOOTH",
"753 404 OFFCURVE",
"784 379 OFFCURVE",
"791 306 CURVE",
"506 306 LINE"
);
}
);
width = 965;
}
);
leftMetricsKey = a;
rightMetricsKey = e;
unicode = 00E6;
},
{
color = 4;
glyphname = b;
lastChange = "2016-07-19 23:53:56 +0000";
layers = (
{
background = {
hints = (
{
place = "{546.922, 0}";
},
{
place = "{546.922, 0}";
}
);
paths = (
{
closed = 1;
nodes = (
"396 22 OFFCURVE",
"440 66 OFFCURVE",
"440 176 CURVE",
"440 286 LINE",
"440 396 OFFCURVE",
"396 440 OFFCURVE",
"286 440 CURVE",
"204 440 LINE",
"94 441 OFFCURVE",
"50 397 OFFCURVE",
"50 286 CURVE",
"50 175 LINE",
"50 66 OFFCURVE",
"94 22 OFFCURVE",
"204 22 CURVE",
"286 22 LINE"
);
}
);
};
hints = (
{
place = "{47.078, 0}";
}
);
layerId = "0E6FACCE-B85C-44A4-8B06-9EFDFED90B40";
paths = (
{
closed = 0;
nodes = (
"50 674 LINE",
"50 20 LINE"
);
},
{
closed = 0;
nodes = (
"50 172 LINE",
"50 62 OFFCURVE",
"133 22 OFFCURVE",
"248 22 CURVE",
"286 22 LINE",
"396 22 OFFCURVE",
"440 66 OFFCURVE",
"440 176 CURVE",
"440 287 LINE",
"440 397 OFFCURVE",
"396 441 OFFCURVE",
"286 441 CURVE",
"248 441 LINE",
"133 441 OFFCURVE",
"50 401 OFFCURVE",
"50 291 CURVE"
);
}
);
width = 490;
},
{
anchors = (
{
name = bottom;
position = "{301, 0}";
},
{
name = top;
position = "{301, 461}";
}
);
background = {
paths = (
{
closed = 1;
nodes = (
"443 0 LINE SMOOTH",
"583 0 OFFCURVE",
"650 35 OFFCURVE",
"650 175 CURVE SMOOTH",
"650 286 LINE SMOOTH",
"650 426 OFFCURVE",
"583 461 OFFCURVE",
"443 461 CURVE SMOOTH",
"414 461 LINE SMOOTH",
"341 461 OFFCURVE",
"285 437 OFFCURVE",
"248 389 CURVE",
"248 612 LINE SMOOTH",
"248 633 OFFCURVE",
"240 643 OFFCURVE",
"225 643 CURVE SMOOTH",
"212 643 OFFCURVE",
"206 633 OFFCURVE",
"206 612 CURVE SMOOTH",
"206 23 LINE SMOOTH",
"206 -17 OFFCURVE",
"248 -17 OFFCURVE",
"248 23 CURVE SMOOTH",
"248 72 LINE",
"285 24 OFFCURVE",
"341 0 OFFCURVE",
"414 0 CURVE SMOOTH"
);
},
{
closed = 1;
nodes = (
"307 42 OFFCURVE",
"248 108 OFFCURVE",
"248 228 CURVE SMOOTH",
"248 232 LINE SMOOTH",
"248 352 OFFCURVE",
"307 419 OFFCURVE",
"414 419 CURVE SMOOTH",
"443 419 LINE SMOOTH",
"554 419 OFFCURVE",
"608 408 OFFCURVE",
"608 286 CURVE SMOOTH",
"608 175 LINE SMOOTH",
"608 53 OFFCURVE",
"554 42 OFFCURVE",
"443 42 CURVE SMOOTH",
"414 42 LINE SMOOTH"
);
},
{
closed = 1;
nodes = (
"594 0 OFFCURVE",
"643 51 OFFCURVE",
"643 177 CURVE SMOOTH",
"643 286 LINE SMOOTH",
"643 412 OFFCURVE",
"594 460 OFFCURVE",
"472 461 CURVE SMOOTH",
"253 462 LINE",
"253 739 LINE SMOOTH",
"253 754 OFFCURVE",
"247 760 OFFCURVE",
"232 760 CURVE SMOOTH",
"217 760 OFFCURVE",
"211 754 OFFCURVE",
"211 739 CURVE SMOOTH",
"211 21 LINE SMOOTH",
"211 6 OFFCURVE",
"217 0 OFFCURVE",
"232 0 CURVE SMOOTH",
"247 0 OFFCURVE",
"253 6 OFFCURVE",
"253 21 CURVE SMOOTH",
"253 58 LINE",
"281 12 OFFCURVE",
"323 0 OFFCURVE",
"382 0 CURVE SMOOTH",
"473 0 LINE SMOOTH"
);
},
{
closed = 1;
nodes = (
"377 42 LINE SMOOTH",
"278 42 OFFCURVE",
"248 73 OFFCURVE",
"248 176 CURVE SMOOTH",
"248 420 LINE",
"467 419 LINE SMOOTH",
"559 419 OFFCURVE",
"596 382 OFFCURVE",
"596 286 CURVE SMOOTH",
"596 177 LINE SMOOTH",
"596 81 OFFCURVE",
"559 42 OFFCURVE",
"468 42 CURVE SMOOTH"
);
}
);
};
layerId = "B309FD91-69BF-47D2-8142-D25EBE917F3C";
paths = (
{
closed = 1;
nodes = (
"122 -1 OFFCURVE",
"131 8 OFFCURVE",
"131 20 CURVE SMOOTH",
"131 67 LINE",
"168 24 OFFCURVE",
"227 1 OFFCURVE",
"308 1 CURVE SMOOTH",
"346 1 LINE SMOOTH",
"468 1 OFFCURVE",
"521 54 OFFCURVE",
"521 176 CURVE SMOOTH",
"521 287 LINE SMOOTH",
"521 409 OFFCURVE",
"468 462 OFFCURVE",
"346 462 CURVE SMOOTH",
"308 462 LINE SMOOTH",
"227 462 OFFCURVE",
"168 439 OFFCURVE",
"131 396 CURVE",
"131 674 LINE SMOOTH",
"131 686 OFFCURVE",
"122 695 OFFCURVE",
"110 695 CURVE SMOOTH",
"98 695 OFFCURVE",
"89 686 OFFCURVE",
"89 674 CURVE SMOOTH",
"89 20 LINE SMOOTH",
"89 8 OFFCURVE",
"98 -1 OFFCURVE",
"110 -1 CURVE SMOOTH"
);
},
{
closed = 1;
nodes = (
"189 43 OFFCURVE",
"131 86 OFFCURVE",
"131 172 CURVE SMOOTH",
"131 291 LINE SMOOTH",
"131 377 OFFCURVE",
"189 420 OFFCURVE",
"308 420 CURVE SMOOTH",
"346 420 LINE SMOOTH",
"444 420 OFFCURVE",
"479 385 OFFCURVE",
"479 287 CURVE SMOOTH",
"479 176 LINE SMOOTH",
"479 78 OFFCURVE",
"444 43 OFFCURVE",
"346 43 CURVE SMOOTH",
"308 43 LINE SMOOTH"
);
}
);
width = 601;
},
{
background = {
paths = (
{
closed = 1;
nodes = (
"171 -7 OFFCURVE",
"183 8 OFFCURVE",
"183 38 CURVE SMOOTH",
"183 50 LINE",
"224 17 OFFCURVE",
"285 0 OFFCURVE",
"364 0 CURVE SMOOTH",
"393 0 LINE SMOOTH",
"572 0 OFFCURVE",
"645 38 OFFCURVE",
"645 178 CURVE SMOOTH",
"645 283 LINE SMOOTH",
"645 423 OFFCURVE",
"572 461 OFFCURVE",
"393 461 CURVE SMOOTH",
"364 461 LINE SMOOTH",
"285 461 OFFCURVE",
"224 444 OFFCURVE",
"183 411 CURVE",
"183 597 LINE SMOOTH",
"183 628 OFFCURVE",
"170 643 OFFCURVE",
"145 643 CURVE SMOOTH",
"122 643 OFFCURVE",
"111 628 OFFCURVE",
"111 597 CURVE SMOOTH",
"111 35 LINE SMOOTH",
"111 7 OFFCURVE",
"123 -7 OFFCURVE",
"147 -7 CURVE SMOOTH"
);
},
{
closed = 1;
nodes = (
"229 72 OFFCURVE",
"183 133 OFFCURVE",
"183 228 CURVE SMOOTH",
"183 232 LINE SMOOTH",
"183 328 OFFCURVE",
"228 389 OFFCURVE",
"364 389 CURVE SMOOTH",
"393 389 LINE SMOOTH",
"541 389 OFFCURVE",
"573 376 OFFCURVE",
"573 280 CURVE SMOOTH",
"573 181 LINE SMOOTH",
"573 85 OFFCURVE",
"541 72 OFFCURVE",
"393 72 CURVE SMOOTH",
"364 72 LINE SMOOTH"
);
}
);
};
layerId = "3776B938-A14A-42B9-91A8-ACB6A1608662";
paths = (
{
closed = 1;
nodes = (
"153 0 OFFCURVE",
"165 15 OFFCURVE",
"170 45 CURVE",
"199 14 OFFCURVE",
"237 0 OFFCURVE",
"286 0 CURVE SMOOTH",
"377 0 LINE SMOOTH",
"506 0 OFFCURVE",
"562 58 OFFCURVE",
"562 192 CURVE SMOOTH",
"562 304 LINE SMOOTH",
"562 438 OFFCURVE",
"506 494 OFFCURVE",
"376 494 CURVE SMOOTH",
"286 494 LINE SMOOTH",
"238 494 OFFCURVE",
"201 481 OFFCURVE",
"172 451 CURVE",
"172 744 LINE SMOOTH",
"172 768 OFFCURVE",
"160 780 OFFCURVE",
"136 780 CURVE SMOOTH",
"112 780 OFFCURVE",
"100 768 OFFCURVE",
"100 744 CURVE SMOOTH",
"100 36 LINE SMOOTH",
"100 12 OFFCURVE",
"112 0 OFFCURVE",
"136 0 CURVE SMOOTH"
);
},
{
closed = 1;
nodes = (
"196 72 OFFCURVE",
"172 97 OFFCURVE",
"172 191 CURVE SMOOTH",
"172 304 LINE SMOOTH",
"172 398 OFFCURVE",
"196 422 OFFCURVE",
"286 422 CURVE SMOOTH",
"376 422 LINE SMOOTH",
"466 422 OFFCURVE",
"490 398 OFFCURVE",
"490 304 CURVE SMOOTH",
"490 192 LINE SMOOTH",
"490 97 OFFCURVE",
"465 72 OFFCURVE",
"377 72 CURVE SMOOTH",
"286 72 LINE SMOOTH"
);
}
);
width = 662;
}
);
leftMetricsKey = n;
rightMetricsKey = o;
unicode = 0062;
},
{
color = 4;
glyphname = c;
lastChange = "2016-07-19 23:54:03 +0000";
layers = (
{
background = {
guideLines = (
{
angle = 90;
position = "{440, 255}";
}
);
paths = (
{
closed = 0;
nodes = (
"440 325 LINE",
"440 411 OFFCURVE",
"410 440 OFFCURVE",
"328 440 CURVE",
"200 440 LINE",
"92 441 OFFCURVE",
"50 402 OFFCURVE",
"50 286 CURVE",
"50 178 LINE",
"50 62 OFFCURVE",
"92 22 OFFCURVE",
"199 22 CURVE",
"328 22 LINE",
"410 22 OFFCURVE",
"440 51 OFFCURVE",
"440 137 CURVE"
);
}
);
};
hints = (
{
place = "{546.922, 0}";
},
{
place = "{546.922, 0}";
}
);
layerId = "0E6FACCE-B85C-44A4-8B06-9EFDFED90B40";
paths = (
{
closed = 0;
nodes = (
"420 336 LINE",
"420 410 OFFCURVE",
"382 440 OFFCURVE",
"286 440 CURVE",
"204 440 LINE",
"94 441 OFFCURVE",
"50 397 OFFCURVE",
"50 286 CURVE",
"50 175 LINE",
"50 66 OFFCURVE",
"94 22 OFFCURVE",
"204 22 CURVE",
"286 22 LINE",
"382 22 OFFCURVE",
"420 52 OFFCURVE",
"420 126 CURVE"
);
}
);
width = 490;
},
{
anchors = (
{
name = bottom;
position = "{298, 0}";
},
{
name = top;
position = "{301, 461}";
}
);
background = {
paths = (
{
closed = 1;
nodes = (
"337 1 LINE SMOOTH",
"459 1 OFFCURVE",
"512 54 OFFCURVE",
"512 176 CURVE SMOOTH",
"512 286 LINE SMOOTH",
"512 408 OFFCURVE",
"459 461 OFFCURVE",
"337 461 CURVE SMOOTH",
"255 461 LINE SMOOTH",
"133 461 OFFCURVE",
"80 409 OFFCURVE",
"80 286 CURVE SMOOTH",
"80 175 LINE SMOOTH",
"80 54 OFFCURVE",
"133 1 OFFCURVE",
"255 1 CURVE SMOOTH"
);
},
{
closed = 1;
nodes = (
"157 43 OFFCURVE",
"122 78 OFFCURVE",
"122 175 CURVE SMOOTH",
"122 286 LINE SMOOTH",
"122 385 OFFCURVE",
"157 419 OFFCURVE",
"255 419 CURVE SMOOTH",
"337 419 LINE SMOOTH",
"435 419 OFFCURVE",
"470 384 OFFCURVE",
"470 286 CURVE SMOOTH",
"470 176 LINE SMOOTH",
"470 78 OFFCURVE",
"435 43 OFFCURVE",
"337 43 CURVE SMOOTH",
"255 43 LINE SMOOTH"
);
}
);
};
layerId = "B309FD91-69BF-47D2-8142-D25EBE917F3C";
paths = (
{
closed = 1;
nodes = (
"337 1 LINE SMOOTH",
"444 1 OFFCURVE",
"492 39 OFFCURVE",
"492 126 CURVE SMOOTH",
"492 138 OFFCURVE",
"483 147 OFFCURVE",
"471 147 CURVE SMOOTH",
"459 147 OFFCURVE",
"450 138 OFFCURVE",
"450 126 CURVE SMOOTH",
"450 65 OFFCURVE",
"422 43 OFFCURVE",
"337 43 CURVE SMOOTH",
"255 43 LINE SMOOTH",
"157 43 OFFCURVE",
"122 78 OFFCURVE",
"122 175 CURVE SMOOTH",
"122 286 LINE SMOOTH",
"122 385 OFFCURVE",
"157 420 OFFCURVE",
"255 419 CURVE SMOOTH",
"337 419 LINE SMOOTH",
"422 419 OFFCURVE",
"450 397 OFFCURVE",
"450 336 CURVE SMOOTH",
"450 324 OFFCURVE",
"459 315 OFFCURVE",
"471 315 CURVE SMOOTH",
"483 315 OFFCURVE",
"492 324 OFFCURVE",
"492 336 CURVE SMOOTH",
"492 423 OFFCURVE",
"444 461 OFFCURVE",
"337 461 CURVE SMOOTH",
"255 461 LINE SMOOTH",
"133 462 OFFCURVE",
"80 409 OFFCURVE",
"80 286 CURVE SMOOTH",
"80 175 LINE SMOOTH",
"80 54 OFFCURVE",
"133 1 OFFCURVE",
"255 1 CURVE SMOOTH"
);
}
);
width = 562;
},
{
background = {
paths = (
{
closed = 1;
nodes = (
"501 0 LINE SMOOTH",
"588 0 OFFCURVE",
"611 49 OFFCURVE",
"611 116 CURVE SMOOTH",
"611 149 OFFCURVE",
"599 166 OFFCURVE",
"575 167 CURVE",
"556 167 OFFCURVE",
"539 155 OFFCURVE",
"539 120 CURVE SMOOTH",
"539 85 OFFCURVE",
"530 72 OFFCURVE",
"494 72 CURVE SMOOTH",
"360 72 LINE SMOOTH",
"285 72 OFFCURVE",
"237 78 OFFCURVE",
"214 91 CURVE SMOOTH",
"191 103 OFFCURVE",
"179 133 OFFCURVE",
"179 181 CURVE SMOOTH",
"179 280 LINE SMOOTH",
"179 328 OFFCURVE",
"191 358 OFFCURVE",
"214 371 CURVE SMOOTH",
"237 383 OFFCURVE",
"285 389 OFFCURVE",
"360 389 CURVE SMOOTH",
"494 389 LINE SMOOTH",
"530 389 OFFCURVE",
"539 375 OFFCURVE",
"539 340 CURVE SMOOTH",
"539 305 OFFCURVE",
"556 294 OFFCURVE",
"575 294 CURVE SMOOTH",
"599 294 OFFCURVE",
"611 311 OFFCURVE",
"611 344 CURVE SMOOTH",
"611 377 OFFCURVE",
"604 405 OFFCURVE",
"589 428 CURVE SMOOTH",
"574 450 OFFCURVE",
"544 461 OFFCURVE",
"501 461 CURVE SMOOTH",
"360 461 LINE SMOOTH",
"180 461 OFFCURVE",
"107 423 OFFCURVE",
"107 283 CURVE SMOOTH",
"107 178 LINE SMOOTH",
"107 38 OFFCURVE",
"180 0 OFFCURVE",
"360 0 CURVE SMOOTH"
);
}
);
};
layerId = "3776B938-A14A-42B9-91A8-ACB6A1608662";
paths = (
{
closed = 1;
nodes = (
"376 0 LINE SMOOTH",
"509 0 OFFCURVE",
"562 43 OFFCURVE",
"562 151 CURVE SMOOTH",
"562 175 OFFCURVE",
"550 187 OFFCURVE",
"526 187 CURVE SMOOTH",
"502 187 OFFCURVE",
"490 175 OFFCURVE",
"490 151 CURVE SMOOTH",
"490 95 OFFCURVE",
"457 72 OFFCURVE",
"376 72 CURVE SMOOTH",
"285 72 LINE SMOOTH",
"204 72 OFFCURVE",
"172 106 OFFCURVE",
"172 192 CURVE SMOOTH",
"172 304 LINE SMOOTH",
"172 388 OFFCURVE",
"205 422 OFFCURVE",
"286 422 CURVE SMOOTH",
"376 422 LINE SMOOTH",
"457 422 OFFCURVE",
"490 399 OFFCURVE",
"490 343 CURVE SMOOTH",
"490 319 OFFCURVE",
"502 307 OFFCURVE",
"526 307 CURVE SMOOTH",
"550 307 OFFCURVE",
"562 319 OFFCURVE",
"562 343 CURVE SMOOTH",
"562 451 OFFCURVE",
"509 494 OFFCURVE",
"376 494 CURVE SMOOTH",
"286 494 LINE SMOOTH",
"153 494 OFFCURVE",
"100 440 OFFCURVE",
"100 304 CURVE SMOOTH",
"100 192 LINE SMOOTH",
"100 55 OFFCURVE",
"153 0 OFFCURVE",
"285 0 CURVE SMOOTH"
);
}
);
width = 662;
},
{
associatedMasterId = "0E6FACCE-B85C-44A4-8B06-9EFDFED90B40";
background = {
paths = (
{
closed = 1;
nodes = (
"371 0 LINE SMOOTH",
"455 0 OFFCURVE",
"466 49 OFFCURVE",
"466 110 CURVE SMOOTH",
"466 127 OFFCURVE",
"459 136 OFFCURVE",
"445 137 CURVE",
"431 137 OFFCURVE",
"424 126 OFFCURVE",
"424 105 CURVE SMOOTH",
"424 83 OFFCURVE",
"420 67 OFFCURVE",
"411 57 CURVE SMOOTH",
"402 47 OFFCURVE",
"387 42 OFFCURVE",
"364 42 CURVE SMOOTH",
"230 42 LINE SMOOTH",
"117 42 OFFCURVE",
"64 53 OFFCURVE",
"64 175 CURVE SMOOTH",
"64 286 LINE SMOOTH",
"64 408 OFFCURVE",
"117 419 OFFCURVE",
"230 419 CURVE SMOOTH",
"364 419 LINE SMOOTH",
"409 419 OFFCURVE",
"424 399 OFFCURVE",
"424 356 CURVE SMOOTH",
"424 335 OFFCURVE",
"431 324 OFFCURVE",
"445 324 CURVE SMOOTH",
"473 324 OFFCURVE",
"471 385 OFFCURVE",
"450 429 CURVE SMOOTH",
"440 450 OFFCURVE",
"415 461 OFFCURVE",
"375 461 CURVE",
"374 461 OFFCURVE",
"372 461 OFFCURVE",
"371 461 CURVE",
"230 461 LINE SMOOTH",
"89 461 OFFCURVE",
"22 426 OFFCURVE",
"22 286 CURVE SMOOTH",
"22 175 LINE SMOOTH",
"22 35 OFFCURVE",
"89 0 OFFCURVE",
"230 0 CURVE SMOOTH"
);
}
);
};
hints = (
{
place = "{546.922, 0}";
}
);
layerId = "AE6912A3-148A-478D-A454-8113B9A86CB2";
name = "Light Jul 19 16, 17:36";
paths = (
{
closed = 0;
nodes = (
"440 325 LINE",
"440 410 OFFCURVE",
"400 440 OFFCURVE",
"290 440 CURVE",
"200 440 LINE",
"92 441 OFFCURVE",
"50 402 OFFCURVE",
"50 286 CURVE",
"50 176 LINE",
"50 60 OFFCURVE",
"92 20 OFFCURVE",
"199 20 CURVE",
"290 20 LINE",
"400 20 OFFCURVE",
"440 50 OFFCURVE",
"440 135 CURVE"
);
}
);
width = 490;
},
{
associatedMasterId = "B309FD91-69BF-47D2-8142-D25EBE917F3C";
background = {
paths = (
{
closed = 1;
nodes = (
"422 0 LINE SMOOTH",
"506 0 OFFCURVE",
"517 49 OFFCURVE",
"517 110 CURVE SMOOTH",
"517 127 OFFCURVE",
"510 136 OFFCURVE",
"496 137 CURVE",
"482 137 OFFCURVE",
"475 126 OFFCURVE",
"475 105 CURVE SMOOTH",
"475 83 OFFCURVE",
"471 67 OFFCURVE",
"462 57 CURVE SMOOTH",
"453 47 OFFCURVE",
"438 42 OFFCURVE",
"415 42 CURVE SMOOTH",
"281 42 LINE SMOOTH",
"168 42 OFFCURVE",
"115 53 OFFCURVE",
"115 175 CURVE SMOOTH",
"115 286 LINE SMOOTH",
"115 408 OFFCURVE",
"168 419 OFFCURVE",
"281 419 CURVE SMOOTH",
"415 419 LINE SMOOTH",
"460 419 OFFCURVE",
"475 399 OFFCURVE",
"475 356 CURVE SMOOTH",
"475 335 OFFCURVE",
"482 324 OFFCURVE",
"496 324 CURVE SMOOTH",
"524 324 OFFCURVE",
"522 385 OFFCURVE",
"501 429 CURVE SMOOTH",
"491 450 OFFCURVE",
"466 461 OFFCURVE",
"426 461 CURVE",
"425 461 OFFCURVE",
"423 461 OFFCURVE",
"422 461 CURVE",
"281 461 LINE SMOOTH",
"140 461 OFFCURVE",
"73 426 OFFCURVE",
"73 286 CURVE SMOOTH",
"73 175 LINE SMOOTH",
"73 35 OFFCURVE",
"140 0 OFFCURVE",
"281 0 CURVE SMOOTH"
);
},
{
closed = 1;
nodes = (
"341 -1 LINE SMOOTH",
"463 -1 OFFCURVE",
"512 49 OFFCURVE",
"512 175 CURVE SMOOTH",
"512 285 LINE SMOOTH",
"512 411 OFFCURVE",
"463 461 OFFCURVE",
"341 461 CURVE SMOOTH",
"251 461 LINE SMOOTH",
"129 461 OFFCURVE",
"80 412 OFFCURVE",
"80 286 CURVE SMOOTH",
"80 176 LINE SMOOTH",
"80 51 OFFCURVE",
"129 -1 OFFCURVE",
"250 -1 CURVE SMOOTH"
);
},
{
closed = 1;
nodes = (
"153 41 OFFCURVE",
"122 73 OFFCURVE",
"122 176 CURVE SMOOTH",
"122 286 LINE SMOOTH",
"122 389 OFFCURVE",
"153 419 OFFCURVE",
"251 419 CURVE SMOOTH",
"341 419 LINE SMOOTH",
"440 419 OFFCURVE",
"470 388 OFFCURVE",
"470 285 CURVE SMOOTH",
"470 175 LINE SMOOTH",
"470 72 OFFCURVE",
"440 41 OFFCURVE",
"341 41 CURVE SMOOTH",
"250 41 LINE SMOOTH"
);
}
);
};
layerId = "A60EC719-CF2A-412C-A8E0-5286508F9CB3";
name = "SemiLight Jul 19 16, 17:38";
paths = (
{
closed = 1;
nodes = (
"341 -1 LINE SMOOTH",
"463 -1 OFFCURVE",
"512 38 OFFCURVE",
"512 135 CURVE SMOOTH",
"512 147 OFFCURVE",
"503 156 OFFCURVE",
"491 156 CURVE SMOOTH",
"479 156 OFFCURVE",
"470 147 OFFCURVE",
"470 135 CURVE SMOOTH",
"470 64 OFFCURVE",
"441 41 OFFCURVE",
"341 41 CURVE SMOOTH",
"250 41 LINE SMOOTH",
"153 41 OFFCURVE",
"122 73 OFFCURVE",
"122 176 CURVE SMOOTH",
"122 286 LINE SMOOTH",
"122 389 OFFCURVE",
"153 420 OFFCURVE",
"251 419 CURVE SMOOTH",
"341 419 LINE SMOOTH",
"441 419 OFFCURVE",
"470 396 OFFCURVE",
"470 325 CURVE SMOOTH",
"470 313 OFFCURVE",
"479 304 OFFCURVE",
"491 304 CURVE SMOOTH",
"503 304 OFFCURVE",
"512 313 OFFCURVE",
"512 325 CURVE SMOOTH",
"512 422 OFFCURVE",
"463 461 OFFCURVE",
"341 461 CURVE SMOOTH",
"251 461 LINE SMOOTH",
"129 462 OFFCURVE",
"80 412 OFFCURVE",
"80 286 CURVE SMOOTH",
"80 176 LINE SMOOTH",
"80 50 OFFCURVE",
"129 -1 OFFCURVE",
"250 -1 CURVE SMOOTH"
);
}
);
width = 567;
}
);
leftMetricsKey = o;
rightMetricsKey = "=o-10";
unicode = 0063;
},
{
color = 4;
glyphname = d;
lastChange = "2016-07-21 22:15:51 +0000";
layers = (
{
background = {
paths = (
{
closed = 1;
nodes = (
"249 0 LINE SMOOTH",
"323 0 OFFCURVE",
"378 24 OFFCURVE",
"414 72 CURVE",
"414 23 LINE SMOOTH",
"414 -17 OFFCURVE",
"456 -17 OFFCURVE",
"456 23 CURVE SMOOTH",
"456 612 LINE SMOOTH",
"456 633 OFFCURVE",
"450 643 OFFCURVE",
"437 643 CURVE SMOOTH",
"422 643 OFFCURVE",
"414 633 OFFCURVE",
"414 612 CURVE SMOOTH",
"414 461 LINE",
"220 461 LINE SMOOTH",
"79 461 OFFCURVE",
"12 426 OFFCURVE",
"12 286 CURVE SMOOTH",
"12 175 LINE SMOOTH",
"12 35 OFFCURVE",
"79 0 OFFCURVE",
"220 0 CURVE SMOOTH"
);
},
{
closed = 1;
nodes = (
"107 42 OFFCURVE",
"54 53 OFFCURVE",
"54 175 CURVE SMOOTH",
"54 286 LINE SMOOTH",
"54 408 OFFCURVE",
"107 419 OFFCURVE",
"220 419 CURVE SMOOTH",
"414 419 LINE",
"414 228 LINE SMOOTH",
"414 108 OFFCURVE",
"354 42 OFFCURVE",
"249 42 CURVE SMOOTH",
"220 42 LINE SMOOTH"
);
}
);
};
hints = (
{
place = "{546.922, 0}";
}
);
layerId = "0E6FACCE-B85C-44A4-8B06-9EFDFED90B40";
paths = (
{
closed = 0;
nodes = (
"444 20 LINE",
"444 674 LINE"
);
},
{
closed = 0;
nodes = (
"444 441 LINE",
"208 441 LINE",
"98 441 OFFCURVE",
"54 397 OFFCURVE",
"54 287 CURVE",
"54 176 LINE",
"54 66 OFFCURVE",
"98 22 OFFCURVE",
"208 22 CURVE",
"246 22 LINE",
"361 22 OFFCURVE",
"444 62 OFFCURVE",
"444 172 CURVE"
);
}
);
width = 504;
},
{
anchors = (
{
name = bottom;
position = "{296, 0}";
},
{
name = center;
position = "{461, 571}";
},
{
name = top;
position = "{296, 461}";
},
{
name = topright;
position = "{560, 461}";
}
);
background = {
paths = (
{
closed = 1;
nodes = (
"343 0 LINE SMOOTH",
"417 0 OFFCURVE",
"472 24 OFFCURVE",
"508 72 CURVE",
"508 23 LINE SMOOTH",
"508 -17 OFFCURVE",
"550 -17 OFFCURVE",
"550 23 CURVE SMOOTH",
"550 612 LINE SMOOTH",
"550 633 OFFCURVE",
"544 643 OFFCURVE",
"531 643 CURVE SMOOTH",
"516 643 OFFCURVE",
"508 633 OFFCURVE",
"508 612 CURVE SMOOTH",
"508 461 LINE",
"314 461 LINE SMOOTH",
"173 461 OFFCURVE",
"106 426 OFFCURVE",
"106 286 CURVE SMOOTH",
"106 175 LINE SMOOTH",
"106 35 OFFCURVE",
"173 0 OFFCURVE",
"314 0 CURVE SMOOTH"
);
},
{
closed = 1;
nodes = (
"201 42 OFFCURVE",
"148 53 OFFCURVE",
"148 175 CURVE SMOOTH",
"148 286 LINE SMOOTH",
"148 408 OFFCURVE",
"201 419 OFFCURVE",
"314 419 CURVE SMOOTH",
"508 419 LINE",
"508 228 LINE SMOOTH",
"508 108 OFFCURVE",
"448 42 OFFCURVE",
"343 42 CURVE SMOOTH",
"314 42 LINE SMOOTH"
);
}
);
};
layerId = "B309FD91-69BF-47D2-8142-D25EBE917F3C";
paths = (
{
closed = 1;
nodes = (
"503 -1 OFFCURVE",
"512 8 OFFCURVE",
"512 20 CURVE SMOOTH",
"512 674 LINE SMOOTH",
"512 686 OFFCURVE",
"503 695 OFFCURVE",
"491 695 CURVE SMOOTH",
"479 695 OFFCURVE",
"470 686 OFFCURVE",
"470 674 CURVE SMOOTH",
"470 462 LINE",
"255 462 LINE SMOOTH",
"133 462 OFFCURVE",
"80 409 OFFCURVE",
"80 287 CURVE SMOOTH",
"80 176 LINE SMOOTH",
"80 54 OFFCURVE",
"133 1 OFFCURVE",
"255 1 CURVE SMOOTH",
"293 1 LINE SMOOTH",
"374 1 OFFCURVE",
"433 20 OFFCURVE",
"470 77 CURVE",
"470 20 LINE SMOOTH",
"470 8 OFFCURVE",
"479 -1 OFFCURVE",
"491 -1 CURVE SMOOTH"
);
},
{
closed = 1;
nodes = (
"157 43 OFFCURVE",
"122 78 OFFCURVE",
"122 176 CURVE SMOOTH",
"122 287 LINE SMOOTH",
"122 385 OFFCURVE",
"157 420 OFFCURVE",
"255 420 CURVE SMOOTH",
"470 420 LINE",
"470 172 LINE SMOOTH",
"470 86 OFFCURVE",
"412 43 OFFCURVE",
"293 43 CURVE SMOOTH",
"255 43 LINE SMOOTH"
);
}
);
width = 592;
},
{
anchors = (
{
name = bottom;
position = "{338, 0}";
},
{
name = center;
position = "{497, 588}";
},
{
name = top;
position = "{338, 494}";
},
{
name = topright;
position = "{656, 494}";
}
);
background = {
paths = (
{
closed = 1;
nodes = (
"629 -7 OFFCURVE",
"641 7 OFFCURVE",
"641 35 CURVE SMOOTH",
"641 598 LINE SMOOTH",
"641 628 OFFCURVE",
"630 643 OFFCURVE",
"607 643 CURVE SMOOTH",
"582 643 OFFCURVE",
"569 628 OFFCURVE",
"569 598 CURVE SMOOTH",
"569 461 LINE",
"351 461 LINE SMOOTH",
"180 461 OFFCURVE",
"107 423 OFFCURVE",
"107 283 CURVE SMOOTH",
"107 178 LINE SMOOTH",
"107 38 OFFCURVE",
"180 0 OFFCURVE",
"359 0 CURVE SMOOTH",
"388 0 LINE SMOOTH",
"467 0 OFFCURVE",
"528 17 OFFCURVE",
"569 50 CURVE",
"569 38 LINE SMOOTH",
"569 8 OFFCURVE",
"581 -7 OFFCURVE",
"605 -7 CURVE SMOOTH"
);
},
{
closed = 1;
nodes = (
"211 72 OFFCURVE",
"179 85 OFFCURVE",
"179 181 CURVE SMOOTH",
"179 280 LINE SMOOTH",
"179 376 OFFCURVE",
"211 389 OFFCURVE",
"351 389 CURVE SMOOTH",
"569 389 LINE",
"569 229 LINE SMOOTH",
"569 133 OFFCURVE",
"524 72 OFFCURVE",
"388 72 CURVE SMOOTH",
"359 72 LINE SMOOTH"
);
}
);
};
layerId = "3776B938-A14A-42B9-91A8-ACB6A1608662";
paths = (
{
closed = 1;
nodes = (
"422 0 OFFCURVE",
"469 21 OFFCURVE",
"504 73 CURVE",
"506 24 OFFCURVE",
"518 0 OFFCURVE",
"540 0 CURVE SMOOTH",
"564 0 OFFCURVE",
"576 12 OFFCURVE",
"576 36 CURVE SMOOTH",
"576 664 LINE SMOOTH",
"576 688 OFFCURVE",
"564 700 OFFCURVE",
"540 700 CURVE SMOOTH",
"516 700 OFFCURVE",
"504 688 OFFCURVE",
"504 664 CURVE SMOOTH",
"504 494 LINE",
"338 494 LINE SMOOTH",
"168 494 OFFCURVE",
"100 444 OFFCURVE",
"100 318 CURVE SMOOTH",
"100 176 LINE SMOOTH",
"100 50 OFFCURVE",
"168 0 OFFCURVE",
"338 0 CURVE SMOOTH"
);
},
{
closed = 1;
nodes = (
"219 72 OFFCURVE",
"172 102 OFFCURVE",
"172 176 CURVE SMOOTH",
"172 318 LINE SMOOTH",
"172 392 OFFCURVE",
"219 422 OFFCURVE",
"338 422 CURVE SMOOTH",
"504 422 LINE",
"504 176 LINE SMOOTH",
"504 102 OFFCURVE",
"457 72 OFFCURVE",
"338 72 CURVE SMOOTH"
);
}
);
width = 676;
},
{
associatedMasterId = "0E6FACCE-B85C-44A4-8B06-9EFDFED90B40";
background = {
paths = (
{
closed = 1;
nodes = (
"299 0 LINE SMOOTH",
"373 0 OFFCURVE",
"428 24 OFFCURVE",
"464 72 CURVE",
"464 23 LINE SMOOTH",
"464 -17 OFFCURVE",
"506 -17 OFFCURVE",
"506 23 CURVE SMOOTH",
"506 612 LINE SMOOTH",
"506 632.667 OFFCURVE",
"499.667 643 OFFCURVE",
"487 643 CURVE SMOOTH",
"471.667 643 OFFCURVE",
"464 632.667 OFFCURVE",
"464 612 CURVE SMOOTH",
"464 461 LINE",
"270 461 LINE SMOOTH",
"128.667 461 OFFCURVE",
"62 426 OFFCURVE",
"62 286 CURVE SMOOTH",
"62 175 LINE SMOOTH",
"62 35 OFFCURVE",
"128.667 0 OFFCURVE",
"270 0 CURVE SMOOTH"
);
},
{
closed = 1;
nodes = (
"157.186 42 OFFCURVE",
"104 52.983 OFFCURVE",
"104 175 CURVE SMOOTH",
"104 286 LINE SMOOTH",
"104 408.017 OFFCURVE",
"157.186 419 OFFCURVE",
"270 419 CURVE SMOOTH",
"464 419 LINE",
"464 228 LINE SMOOTH",
"464 108 OFFCURVE",
"404.333 42 OFFCURVE",
"299 42 CURVE SMOOTH",
"270 42 LINE SMOOTH"
);
}
);
};
layerId = "C82BEC36-ED0D-41A8-A8F7-FD1DE0FF4EE5";
name = "Light Jul 15 16, 19:16";
paths = (
{
closed = 0;
nodes = (
"494 20 LINE",
"494 623 LINE"
);
},
{
closed = 1;
nodes = (
"292 441 LINE",
"147.7 441 OFFCURVE",
"90 401 OFFCURVE",
"90 301 CURVE",
"90 160 LINE",
"90 60 OFFCURVE",
"147.7 20 OFFCURVE",
"292 20 CURVE",
"436.3 20 OFFCURVE",
"494 60 OFFCURVE",
"494 160 CURVE",
"494 441 LINE"
);
}
);
width = 594;
},
{
associatedMasterId = "B309FD91-69BF-47D2-8142-D25EBE917F3C";
background = {
paths = (
{
closed = 1;
nodes = (
"299 0 LINE SMOOTH",
"373 0 OFFCURVE",
"428 24 OFFCURVE",
"464 72 CURVE",
"464 23 LINE SMOOTH",
"464 -17 OFFCURVE",
"506 -17 OFFCURVE",
"506 23 CURVE SMOOTH",
"506 612 LINE SMOOTH",
"506 632.667 OFFCURVE",
"499.667 643 OFFCURVE",
"487 643 CURVE SMOOTH",
"471.667 643 OFFCURVE",
"464 632.667 OFFCURVE",
"464 612 CURVE SMOOTH",
"464 461 LINE",
"270 461 LINE SMOOTH",
"128.667 461 OFFCURVE",
"62 426 OFFCURVE",
"62 286 CURVE SMOOTH",
"62 175 LINE SMOOTH",
"62 35 OFFCURVE",
"128.667 0 OFFCURVE",
"270 0 CURVE SMOOTH"
);
},
{
closed = 1;
nodes = (
"157.186 42 OFFCURVE",
"104 52.983 OFFCURVE",
"104 175 CURVE SMOOTH",
"104 286 LINE SMOOTH",
"104 408.017 OFFCURVE",
"157.186 419 OFFCURVE",
"270 419 CURVE SMOOTH",
"464 419 LINE",
"464 228 LINE SMOOTH",
"464 108 OFFCURVE",
"404.333 42 OFFCURVE",
"299 42 CURVE SMOOTH",
"270 42 LINE SMOOTH"
);
}
);
};
layerId = "B8555D2A-4484-4DC8-8C1D-140BB2894095";
name = "SemiLight Jul 15 16, 19:17";
paths = (
{
closed = 1;
nodes = (
"378.172 -1 OFFCURVE",
"437.371 13.785 OFFCURVE",
"473 46.245 CURVE",
"473 20 LINE SMOOTH",
"473 8.402 OFFCURVE",
"482.402 -1 OFFCURVE",
"494 -1 CURVE SMOOTH",
"505.598 -1 OFFCURVE",
"515 8.402 OFFCURVE",
"515 20 CURVE SMOOTH",
"515 623 LINE SMOOTH",
"515 634.598 OFFCURVE",
"505.598 644 OFFCURVE",
"494 644 CURVE SMOOTH",
"482.402 644 OFFCURVE",
"473 634.598 OFFCURVE",
"473 623 CURVE SMOOTH",
"473 462 LINE",
"292 462 LINE SMOOTH",
"132.7 462 OFFCURVE",
"69 416 OFFCURVE",
"69 301 CURVE SMOOTH",
"69 160 LINE SMOOTH",
"69 45 OFFCURVE",
"132.7 -1 OFFCURVE",
"292 -1 CURVE SMOOTH"
);
},
{
closed = 1;
nodes = (
"162.7 41 OFFCURVE",
"111 75 OFFCURVE",
"111 160 CURVE SMOOTH",
"111 301 LINE SMOOTH",
"111 386 OFFCURVE",
"162.7 420 OFFCURVE",
"292 420 CURVE SMOOTH",
"473 420 LINE",
"473 160 LINE SMOOTH",
"473 73.513 OFFCURVE",
"425.911 41 OFFCURVE",
"292 41 CURVE SMOOTH"
);
}
);
width = 600;
}
);
leftMetricsKey = o;
rightMetricsKey = n;
unicode = 0064;
},
{
color = 4;
glyphname = e;
lastChange = "2016-07-21 23:13:57 +0000";
layers = (
{
background = {
paths = (
{
closed = 1;
nodes = (
"371 0 LINE SMOOTH",
"455 0 OFFCURVE",
"466 49 OFFCURVE",
"466 110 CURVE SMOOTH",
"466 127 OFFCURVE",
"459 136 OFFCURVE",
"445 137 CURVE",
"431 137 OFFCURVE",
"424 126 OFFCURVE",
"424 105 CURVE SMOOTH",
"424 83 OFFCURVE",
"420 67 OFFCURVE",
"411 57 CURVE SMOOTH",
"402 47 OFFCURVE",
"387 42 OFFCURVE",
"364 42 CURVE SMOOTH",
"230 42 LINE SMOOTH",
"117 42 OFFCURVE",
"64 53 OFFCURVE",
"64 175 CURVE SMOOTH",
"64 250 LINE",
"466 250 LINE",
"466 286 LINE SMOOTH",
"466 426 OFFCURVE",
"399 461 OFFCURVE",
"259 461 CURVE SMOOTH",
"230 461 LINE SMOOTH",
"89 461 OFFCURVE",
"22 426 OFFCURVE",
"22 286 CURVE SMOOTH",
"22 175 LINE SMOOTH",
"22 35 OFFCURVE",
"89 0 OFFCURVE",
"230 0 CURVE SMOOTH"
);
},
{
closed = 1;
nodes = (
"64 400 OFFCURVE",
"107 419 OFFCURVE",
"230 419 CURVE SMOOTH",
"259 419 LINE SMOOTH",
"380 419 OFFCURVE",
"424 400 OFFCURVE",
"424 292 CURVE",
"64 292 LINE"
);
}
);
};
hints = (
{
place = "{546.922, 0}";
}
);
layerId = "0E6FACCE-B85C-44A4-8B06-9EFDFED90B40";
paths = (
{
closed = 0;
nodes = (
"50 262 LINE",
"440 262 LINE",
"440 390 OFFCURVE",
"397 441 OFFCURVE",
"290 441 CURVE",
"200 441 LINE",
"93 442 OFFCURVE",
"50 398 OFFCURVE",
"50 287 CURVE",
"50 178 LINE",
"50 67 OFFCURVE",
"93 22 OFFCURVE",
"199 22 CURVE",
"290 22 LINE",
"397 22 OFFCURVE",
"440 55 OFFCURVE",
"440 137 CURVE"
);
}
);
width = 490;
},
{
anchors = (
{
name = bottom;
position = "{291, 0}";
},
{
name = ogonek;
position = "{377, 10}";
},
{
name = top;
position = "{291, 461}";
}
);
background = {
paths = (
{
closed = 1;
nodes = (
"341 -1 LINE SMOOTH",
"463 -1 OFFCURVE",
"512 49 OFFCURVE",
"512 175 CURVE SMOOTH",
"512 285 LINE SMOOTH",
"512 411 OFFCURVE",
"463 461 OFFCURVE",
"341 461 CURVE SMOOTH",
"251 461 LINE SMOOTH",
"129 462 OFFCURVE",
"80 412 OFFCURVE",
"80 286 CURVE SMOOTH",
"80 176 LINE SMOOTH",
"80 51 OFFCURVE",
"129 -1 OFFCURVE",
"250 -1 CURVE SMOOTH"
);
},
{
closed = 1;
nodes = (
"153 41 OFFCURVE",
"122 73 OFFCURVE",
"122 176 CURVE SMOOTH",
"122 286 LINE SMOOTH",
"122 389 OFFCURVE",
"153 420 OFFCURVE",
"251 419 CURVE SMOOTH",
"341 419 LINE SMOOTH",
"440 419 OFFCURVE",
"470 388 OFFCURVE",
"470 285 CURVE SMOOTH",
"470 175 LINE SMOOTH",
"470 72 OFFCURVE",
"440 41 OFFCURVE",
"341 41 CURVE SMOOTH",
"250 41 LINE SMOOTH"
);
}
);
};
layerId = "B309FD91-69BF-47D2-8142-D25EBE917F3C";
paths = (
{
closed = 1;
nodes = (
"341 -1 LINE SMOOTH",
"453 -1 OFFCURVE",
"512 45 OFFCURVE",
"512 135 CURVE SMOOTH",
"512 149 OFFCURVE",
"505 156 OFFCURVE",
"491 156 CURVE SMOOTH",
"477 156 OFFCURVE",
"470 149 OFFCURVE",
"470 135 CURVE SMOOTH",
"470 70 OFFCURVE",
"431 41 OFFCURVE",
"341 41 CURVE SMOOTH",
"250 41 LINE SMOOTH",
"153 41 OFFCURVE",
"122 73 OFFCURVE",
"122 176 CURVE SMOOTH",
"122 240 LINE",
"512 240 LINE",
"512 252 LINE",
"512 405 OFFCURVE",
"472 461 OFFCURVE",
"341 461 CURVE SMOOTH",
"251 461 LINE SMOOTH",
"129 462 OFFCURVE",
"80 412 OFFCURVE",
"80 286 CURVE SMOOTH",
"80 176 LINE SMOOTH",
"80 50 OFFCURVE",
"129 -1 OFFCURVE",
"250 -1 CURVE SMOOTH"
);
},
{
closed = 1;
nodes = (
"122 286 LINE SMOOTH",
"122 389 OFFCURVE",
"153 420 OFFCURVE",
"251 419 CURVE SMOOTH",
"341 419 LINE SMOOTH",
"435 419 OFFCURVE",
"466 388 OFFCURVE",
"470 282 CURVE",
"122 282 LINE"
);
}
);
width = 582;
},
{
anchors = (
{
name = bottom;
position = "{331, 0}";
},
{
name = ogonek;
position = "{520, 61}";
},
{
name = top;
position = "{331, 494}";
}
);
layerId = "3776B938-A14A-42B9-91A8-ACB6A1608662";
paths = (
{
closed = 1;
nodes = (
"376 0 LINE SMOOTH",
"496 0 OFFCURVE",
"562 53 OFFCURVE",
"562 151 CURVE SMOOTH",
"562 175 OFFCURVE",
"550 187 OFFCURVE",
"526 187 CURVE SMOOTH",
"502 187 OFFCURVE",
"490 175 OFFCURVE",
"490 151 CURVE SMOOTH",
"490 96 OFFCURVE",
"458 72 OFFCURVE",
"376 72 CURVE SMOOTH",
"285 72 LINE SMOOTH",
"197 72 OFFCURVE",
"172 97 OFFCURVE",
"172 192 CURVE SMOOTH",
"172 243 LINE",
"562 243 LINE",
"562 280 LINE",
"562 433 OFFCURVE",
"509 494 OFFCURVE",
"376 494 CURVE SMOOTH",
"286 494 LINE SMOOTH",
"156 494 OFFCURVE",
"100 438 OFFCURVE",
"100 304 CURVE SMOOTH",
"100 192 LINE SMOOTH",
"100 58 OFFCURVE",
"156 0 OFFCURVE",
"285 0 CURVE SMOOTH"
);
},
{
closed = 1;
nodes = (
"174 398 OFFCURVE",
"200 422 OFFCURVE",
"286 422 CURVE SMOOTH",
"376 422 LINE SMOOTH",
"456 422 OFFCURVE",
"484 399 OFFCURVE",
"489 305 CURVE",
"172 305 LINE"
);
}
);
width = 662;
},
{
associatedMasterId = "0E6FACCE-B85C-44A4-8B06-9EFDFED90B40";
background = {
paths = (
{
closed = 1;
nodes = (
"411 0 LINE SMOOTH",
"495 0 OFFCURVE",
"506 48.667 OFFCURVE",
"506 110 CURVE SMOOTH",
"506 127.333 OFFCURVE",
"499 136.333 OFFCURVE",
"485 137 CURVE",
"471 137 OFFCURVE",
"464 126.167 OFFCURVE",
"464 104.5 CURVE SMOOTH",
"464 82.833 OFFCURVE",
"459.667 67 OFFCURVE",
"451 57 CURVE SMOOTH",
"442.333 47 OFFCURVE",
"426.667 42 OFFCURVE",
"404 42 CURVE SMOOTH",
"270 42 LINE SMOOTH",
"157.186 42 OFFCURVE",
"104 52.983 OFFCURVE",
"104 175 CURVE SMOOTH",
"104 250 LINE",
"506 250 LINE",
"506 286 LINE SMOOTH",
"506 426 OFFCURVE",
"439 461 OFFCURVE",
"299 461 CURVE SMOOTH",
"270 461 LINE SMOOTH",
"128.667 461 OFFCURVE",
"62 426 OFFCURVE",
"62 286 CURVE SMOOTH",
"62 175 LINE SMOOTH",
"62 35 OFFCURVE",
"128.667 0 OFFCURVE",
"270 0 CURVE SMOOTH"
);
},
{
closed = 1;
nodes = (
"104 400 OFFCURVE",
"147.333 419 OFFCURVE",
"270 419 CURVE SMOOTH",
"299 419 LINE SMOOTH",
"420.333 419 OFFCURVE",
"464 400 OFFCURVE",
"464 292 CURVE",
"104 292 LINE"
);
}
);
};
layerId = "7ED84003-3BA5-4C2B-BC29-69D0B689B9E0";
name = "Light Jul 15 16, 20:20";
paths = (
{
closed = 0;
nodes = (
"90 231 LINE",
"400 231 LINE",
"460 231 OFFCURVE",
"487 259 OFFCURVE",
"487 331 CURVE",
"487 408 OFFCURVE",
"424 443 OFFCURVE",
"290 443 CURVE",
"153 443 OFFCURVE",
"90 406 OFFCURVE",
"90 324 CURVE SMOOTH",
"90 182 LINE",
"90 71 OFFCURVE",
"135 20 OFFCURVE",
"233 20 CURVE",
"366 20 LINE",
"450 20 OFFCURVE",
"489 50 OFFCURVE",
"489 117 CURVE"
);
}
);
width = 593;
}
);
leftMetricsKey = o;
rightMetricsKey = c;
unicode = 0065;
},
{
color = 4;
glyphname = f;
lastChange = "2016-07-19 23:54:25 +0000";
layers = (
{
background = {
paths = (
{
closed = 1;
nodes = (
"128 -7 OFFCURVE",
"136 3 OFFCURVE",
"136 24 CURVE SMOOTH",
"136 419 LINE",
"279 419 LINE SMOOTH",
"300 419 OFFCURVE",
"310 425 OFFCURVE",
"310 438 CURVE SMOOTH",
"310 453 OFFCURVE",
"300 461 OFFCURVE",
"279 461 CURVE SMOOTH",
"136 461 LINE",
"136 583 OFFCURVE",
"189 594 OFFCURVE",
"302 594 CURVE SMOOTH",
"323 594 OFFCURVE",
"333 600 OFFCURVE",
"333 613 CURVE SMOOTH",
"333 628 OFFCURVE",
"323 636 OFFCURVE",
"302 636 CURVE SMOOTH",
"233 636 OFFCURVE",
"192 630 OFFCURVE",
"152 606 CURVE SMOOTH",
"113 583 OFFCURVE",
"94 534 OFFCURVE",
"94 461 CURVE",
"53 461 OFFCURVE",
"53 419 OFFCURVE",
"94 419 CURVE",
"94 24 LINE SMOOTH",
"94 3 OFFCURVE",
"100 -7 OFFCURVE",
"113 -7 CURVE SMOOTH"
);
}
);
};
guideLines = (
{
angle = 90;
position = "{266, 534}";
}
);
layerId = "0E6FACCE-B85C-44A4-8B06-9EFDFED90B40";
paths = (
{
closed = 0;
nodes = (
"266 441 LINE",
"50 441 LINE"
);
},
{
closed = 0;
nodes = (
"266 616 LINE",
"160 616 OFFCURVE",
"115 576 OFFCURVE",
"115 466 CURVE",
"115 20 LINE"
);
}
);
width = 316;
},
{
anchors = (
{
name = bottom;
position = "{126, -1}";
},
{
name = top;
position = "{164, 690}";
}
);
background = {
paths = (
{
closed = 1;
nodes = (
"139 -7 OFFCURVE",
"147 3 OFFCURVE",
"147 24 CURVE SMOOTH",
"147 419 LINE",
"290 419 LINE SMOOTH",
"311 419 OFFCURVE",
"321 425 OFFCURVE",
"321 438 CURVE SMOOTH",
"321 453 OFFCURVE",
"311 461 OFFCURVE",
"290 461 CURVE SMOOTH",
"147 461 LINE",
"147 583 OFFCURVE",
"200 594 OFFCURVE",
"313 594 CURVE SMOOTH",
"334 594 OFFCURVE",
"344 600 OFFCURVE",
"344 613 CURVE SMOOTH",
"344 628 OFFCURVE",
"334 636 OFFCURVE",
"313 636 CURVE SMOOTH",
"244 636 OFFCURVE",
"203 630 OFFCURVE",
"163 606 CURVE SMOOTH",
"124 583 OFFCURVE",
"105 534 OFFCURVE",
"105 461 CURVE",
"64 461 OFFCURVE",
"64 419 OFFCURVE",
"105 419 CURVE",
"105 24 LINE SMOOTH",
"105 3 OFFCURVE",
"111 -7 OFFCURVE",
"124 -7 CURVE SMOOTH"
);
}
);
};
layerId = "B309FD91-69BF-47D2-8142-D25EBE917F3C";
paths = (
{
closed = 1;
nodes = (
"140 -1 OFFCURVE",
"147 6 OFFCURVE",
"147 20 CURVE SMOOTH",
"147 420 LINE",
"277 420 LINE SMOOTH",
"291 420 OFFCURVE",
"298 427 OFFCURVE",
"298 441 CURVE SMOOTH",
"298 455 OFFCURVE",
"291 462 OFFCURVE",
"277 462 CURVE SMOOTH",
"147 462 LINE",
"147 519 LINE SMOOTH",
"147 615 OFFCURVE",
"180 648 OFFCURVE",
"277 648 CURVE SMOOTH",
"291 648 OFFCURVE",
"298 655 OFFCURVE",
"298 669 CURVE SMOOTH",
"298 683 OFFCURVE",
"291 690 OFFCURVE",
"277 690 CURVE SMOOTH",
"157 690 OFFCURVE",
"105 638 OFFCURVE",
"105 519 CURVE SMOOTH",
"105 462 LINE",
"61 462 LINE SMOOTH",
"47 462 OFFCURVE",
"40 455 OFFCURVE",
"40 441 CURVE SMOOTH",
"40 427 OFFCURVE",
"47 420 OFFCURVE",
"61 420 CURVE SMOOTH",
"105 420 LINE",
"105 20 LINE SMOOTH",
"105 6 OFFCURVE",
"112 -1 OFFCURVE",
"126 -1 CURVE SMOOTH"
);
}
);
width = 328;
},
{
background = {
paths = (
{
closed = 1;
nodes = (
"190 -7 OFFCURVE",
"203 7 OFFCURVE",
"203 36 CURVE SMOOTH",
"203 389 LINE",
"331 389 LINE SMOOTH",
"362 389 OFFCURVE",
"377 400 OFFCURVE",
"377 423 CURVE SMOOTH",
"377 448 OFFCURVE",
"362 461 OFFCURVE",
"331 461 CURVE SMOOTH",
"203 461 LINE",
"206 550 OFFCURVE",
"241 564 OFFCURVE",
"354 564 CURVE SMOOTH",
"385 564 OFFCURVE",
"400 575 OFFCURVE",
"400 598 CURVE SMOOTH",
"400 623 OFFCURVE",
"385 636 OFFCURVE",
"354 636 CURVE SMOOTH",
"209 636 OFFCURVE",
"136 599 OFFCURVE",
"131 460 CURVE",
"90 455 OFFCURVE",
"90 402 OFFCURVE",
"131 394 CURVE",
"131 36 LINE SMOOTH",
"131 7 OFFCURVE",
"142 -7 OFFCURVE",
"165 -7 CURVE SMOOTH"
);
},
{
closed = 1;
nodes = (
"201 -1 OFFCURVE",
"208 6 OFFCURVE",
"208 20 CURVE SMOOTH",
"208 420 LINE",
"338 420 LINE SMOOTH",
"352 420 OFFCURVE",
"359 427 OFFCURVE",
"359 441 CURVE SMOOTH",
"359 455 OFFCURVE",
"352 462 OFFCURVE",
"338 462 CURVE SMOOTH",
"208 462 LINE",
"208 519 LINE SMOOTH",
"208 615 OFFCURVE",
"241 648 OFFCURVE",
"338 648 CURVE SMOOTH",
"352 648 OFFCURVE",
"359 655 OFFCURVE",
"359 669 CURVE SMOOTH",
"359 683 OFFCURVE",
"352 690 OFFCURVE",
"338 690 CURVE SMOOTH",
"218 690 OFFCURVE",
"166 638 OFFCURVE",
"166 519 CURVE SMOOTH",
"166 462 LINE",
"122 462 LINE SMOOTH",
"108 462 OFFCURVE",
"101 455 OFFCURVE",
"101 441 CURVE SMOOTH",
"101 427 OFFCURVE",
"108 420 OFFCURVE",
"122 420 CURVE SMOOTH",
"166 420 LINE",
"166 20 LINE SMOOTH",
"166 6 OFFCURVE",
"173 -1 OFFCURVE",
"187 -1 CURVE SMOOTH"
);
}
);
};
layerId = "3776B938-A14A-42B9-91A8-ACB6A1608662";
paths = (
{
closed = 1;
nodes = (
"175 0 OFFCURVE",
"187 12 OFFCURVE",
"187 36 CURVE SMOOTH",
"187 422 LINE",
"302 422 LINE SMOOTH",
"326 422 OFFCURVE",
"338 434 OFFCURVE",
"338 458 CURVE SMOOTH",
"338 482 OFFCURVE",
"326 494 OFFCURVE",
"302 494 CURVE SMOOTH",
"187 494 LINE",
"187 514 LINE",
"189 593 OFFCURVE",
"218 617 OFFCURVE",
"302 617 CURVE SMOOTH",
"326 617 OFFCURVE",
"338 629 OFFCURVE",
"338 653 CURVE SMOOTH",
"338 677 OFFCURVE",
"326 689 OFFCURVE",
"302 689 CURVE SMOOTH",
"177 689 OFFCURVE",
"118 634 OFFCURVE",
"115 514 CURVE",
"115 494 LINE",
"86 494 LINE SMOOTH",
"62 494 OFFCURVE",
"50 482 OFFCURVE",
"50 458 CURVE SMOOTH",
"50 434 OFFCURVE",
"62 422 OFFCURVE",
"86 422 CURVE SMOOTH",
"115 422 LINE",
"115 36 LINE SMOOTH",
"115 12 OFFCURVE",
"127 0 OFFCURVE",
"151 0 CURVE SMOOTH"
);
}
);
width = 378;
}
);
unicode = 0066;
},
{
color = 4;
glyphname = g;
lastChange = "2016-07-19 23:54:30 +0000";
layers = (
{
background = {
hints = (
{
place = "{-9.078, 0}";
}
);
paths = (
{
closed = 1;
nodes = (
"104 -205 OFFCURVE",
"106 -205 OFFCURVE",
"107 -205 CURVE",
"370 -205 LINE SMOOTH",
"437 -205 OFFCURVE",
"456 -177 OFFCURVE",
"456 -92 CURVE SMOOTH",
"456 438 LINE SMOOTH",
"456 478 OFFCURVE",
"414 478 OFFCURVE",
"414 438 CURVE SMOOTH",
"414 389 LINE",
"378 437 OFFCURVE",
"323 461 OFFCURVE",
"249 461 CURVE SMOOTH",
"220 461 LINE SMOOTH",
"79 461 OFFCURVE",
"12 426 OFFCURVE",
"12 286 CURVE SMOOTH",
"12 175 LINE SMOOTH",
"12 35 OFFCURVE",
"79 0 OFFCURVE",
"220 0 CURVE SMOOTH",
"361 0 LINE SMOOTH",
"384 0 OFFCURVE",
"401 3 OFFCURVE",
"414 9 CURVE",
"414 -108 LINE SMOOTH",
"414 -151 OFFCURVE",
"404 -163 OFFCURVE",
"363 -163 CURVE SMOOTH",
"114 -163 LINE SMOOTH",
"69 -163 OFFCURVE",
"54 -143 OFFCURVE",
"54 -100 CURVE SMOOTH",
"54 -79 OFFCURVE",
"47 -68 OFFCURVE",
"33 -68 CURVE SMOOTH",
"5 -68 OFFCURVE",
"7 -129 OFFCURVE",
"28 -173 CURVE SMOOTH",
"38 -194 OFFCURVE",
"63 -205 OFFCURVE",
"103 -205 CURVE"
);
},
{
closed = 1;
nodes = (
"107 42 OFFCURVE",
"54 53 OFFCURVE",
"54 175 CURVE SMOOTH",
"54 286 LINE SMOOTH",
"54 408 OFFCURVE",
"107 419 OFFCURVE",
"220 419 CURVE SMOOTH",
"249 419 LINE SMOOTH",
"354 419 OFFCURVE",
"414 352 OFFCURVE",
"414 232 CURVE SMOOTH",
"414 106 LINE SMOOTH",
"414 59 OFFCURVE",
"399 42 OFFCURVE",
"354 42 CURVE SMOOTH",
"220 42 LINE SMOOTH"
);
}
);
};
layerId = "0E6FACCE-B85C-44A4-8B06-9EFDFED90B40";
paths = (
{
closed = 0;
nodes = (
"440 441 LINE",
"440 -79 LINE",
"440 -153 OFFCURVE",
"411 -182 OFFCURVE",
"338 -182 CURVE",
"152 -182 LINE",
"79 -182 OFFCURVE",
"50 -153 OFFCURVE",
"50 -79 CURVE"
);
},
{
closed = 0;
nodes = (
"440 285 LINE",
"440 400 OFFCURVE",
"400 440 OFFCURVE",
"290 440 CURVE",
"200 440 LINE",
"92 441 OFFCURVE",
"50 402 OFFCURVE",
"50 286 CURVE",
"50 170 LINE",
"50 60 OFFCURVE",
"95 20 OFFCURVE",
"201 20 CURVE",
"242 20 LINE",
"357 20 OFFCURVE",
"440 60 OFFCURVE",
"440 170 CURVE"
);
}
);
width = 490;
},
{
anchors = (
{
name = bottom;
position = "{296, 0}";
},
{
name = top;
position = "{285, 461}";
}
);
background = {
paths = (
{
closed = 1;
nodes = (
"155 -205 OFFCURVE",
"157 -205 OFFCURVE",
"158 -205 CURVE",
"421 -205 LINE SMOOTH",
"488 -205 OFFCURVE",
"507 -177 OFFCURVE",
"507 -92 CURVE SMOOTH",
"507 438 LINE SMOOTH",
"507 478 OFFCURVE",
"465 478 OFFCURVE",
"465 438 CURVE SMOOTH",
"465 389 LINE",
"429 437 OFFCURVE",
"374 461 OFFCURVE",
"300 461 CURVE SMOOTH",
"271 461 LINE SMOOTH",
"130 461 OFFCURVE",
"63 426 OFFCURVE",
"63 286 CURVE SMOOTH",
"63 175 LINE SMOOTH",
"63 35 OFFCURVE",
"130 0 OFFCURVE",
"271 0 CURVE SMOOTH",
"412 0 LINE SMOOTH",
"435 0 OFFCURVE",
"452 3 OFFCURVE",
"465 9 CURVE",
"465 -108 LINE SMOOTH",
"465 -151 OFFCURVE",
"455 -163 OFFCURVE",
"414 -163 CURVE SMOOTH",
"165 -163 LINE SMOOTH",
"120 -163 OFFCURVE",
"105 -143 OFFCURVE",
"105 -100 CURVE SMOOTH",
"105 -79 OFFCURVE",
"98 -68 OFFCURVE",
"84 -68 CURVE SMOOTH",
"56 -68 OFFCURVE",
"58 -129 OFFCURVE",
"79 -173 CURVE SMOOTH",
"89 -194 OFFCURVE",
"114 -205 OFFCURVE",
"154 -205 CURVE"
);
},
{
closed = 1;
nodes = (
"158 42 OFFCURVE",
"105 53 OFFCURVE",
"105 175 CURVE SMOOTH",
"105 286 LINE SMOOTH",
"105 408 OFFCURVE",
"158 419 OFFCURVE",
"271 419 CURVE SMOOTH",
"300 419 LINE SMOOTH",
"405 419 OFFCURVE",
"465 352 OFFCURVE",
"465 232 CURVE SMOOTH",
"465 106 LINE SMOOTH",
"465 59 OFFCURVE",
"450 42 OFFCURVE",
"405 42 CURVE SMOOTH",
"271 42 LINE SMOOTH"
);
}
);
};
layerId = "B309FD91-69BF-47D2-8142-D25EBE917F3C";
paths = (
{
closed = 1;
nodes = (
"389 -203 LINE SMOOTH",
"474 -203 OFFCURVE",
"512 -165 OFFCURVE",
"512 -79 CURVE SMOOTH",
"512 441 LINE SMOOTH",
"512 455 OFFCURVE",
"505 462 OFFCURVE",
"491 462 CURVE SMOOTH",
"477 462 OFFCURVE",
"470 455 OFFCURVE",
"470 441 CURVE SMOOTH",
"470 403 LINE",
"442 443 OFFCURVE",
"400 461 OFFCURVE",
"341 461 CURVE SMOOTH",
"251 461 LINE SMOOTH",
"129 462 OFFCURVE",
"80 412 OFFCURVE",
"80 286 CURVE SMOOTH",
"80 170 LINE SMOOTH",
"80 51 OFFCURVE",
"132 -1 OFFCURVE",
"252 -1 CURVE SMOOTH",
"293 -1 LINE SMOOTH",
"374 -1 OFFCURVE",
"433 25 OFFCURVE",
"470 75 CURVE",
"470 -79 LINE SMOOTH",
"470 -142 OFFCURVE",
"450 -161 OFFCURVE",
"389 -161 CURVE SMOOTH",
"203 -161 LINE SMOOTH",
"142 -161 OFFCURVE",
"122 -142 OFFCURVE",
"122 -79 CURVE SMOOTH",
"122 -65 OFFCURVE",
"115 -58 OFFCURVE",
"101 -58 CURVE SMOOTH",
"87 -58 OFFCURVE",
"80 -65 OFFCURVE",
"80 -79 CURVE SMOOTH",
"80 -165 OFFCURVE",
"118 -203 OFFCURVE",
"203 -203 CURVE SMOOTH"
);
},
{
closed = 1;
nodes = (
"155 41 OFFCURVE",
"122 74 OFFCURVE",
"122 170 CURVE SMOOTH",
"122 286 LINE SMOOTH",
"122 389 OFFCURVE",
"153 420 OFFCURVE",
"251 419 CURVE SMOOTH",
"341 419 LINE SMOOTH",
"440 419 OFFCURVE",
"470 388 OFFCURVE",
"470 285 CURVE SMOOTH",
"470 170 LINE SMOOTH",
"470 84 OFFCURVE",
"412 41 OFFCURVE",
"293 41 CURVE SMOOTH",
"252 41 LINE SMOOTH"
);
}
);
width = 592;
},
{
background = {
paths = (
{
closed = 1;
nodes = (
"530 -205 LINE SMOOTH",
"607 -205 OFFCURVE",
"631 -169 OFFCURVE",
"631 -77 CURVE SMOOTH",
"631 426 LINE SMOOTH",
"631 454 OFFCURVE",
"619 468 OFFCURVE",
"595 468 CURVE SMOOTH",
"571 468 OFFCURVE",
"559 453 OFFCURVE",
"559 423 CURVE SMOOTH",
"559 411 LINE",
"518 444 OFFCURVE",
"457 461 OFFCURVE",
"378 461 CURVE SMOOTH",
"349 461 LINE SMOOTH",
"170 461 OFFCURVE",
"97 423 OFFCURVE",
"97 283 CURVE SMOOTH",
"97 178 LINE SMOOTH",
"97 38 OFFCURVE",
"171 0 OFFCURVE",
"347 0 CURVE SMOOTH",
"559 0 LINE",
"559 -93 LINE SMOOTH",
"559 -126 OFFCURVE",
"554 -133 OFFCURVE",
"523 -133 CURVE SMOOTH",
"214 -133 LINE SMOOTH",
"178 -133 OFFCURVE",
"169 -121 OFFCURVE",
"169 -81 CURVE SMOOTH",
"169 -52 OFFCURVE",
"157 -38 OFFCURVE",
"133 -38 CURVE SMOOTH",
"109 -38 OFFCURVE",
"97 -55 OFFCURVE",
"97 -88 CURVE SMOOTH",
"97 -155 OFFCURVE",
"120 -205 OFFCURVE",
"207 -205 CURVE SMOOTH"
);
},
{
closed = 1;
nodes = (
"202 72 OFFCURVE",
"169 85 OFFCURVE",
"169 181 CURVE SMOOTH",
"169 280 LINE SMOOTH",
"169 376 OFFCURVE",
"201 389 OFFCURVE",
"349 389 CURVE SMOOTH",
"378 389 LINE SMOOTH",
"513 389 OFFCURVE",
"559 328 OFFCURVE",
"559 233 CURVE SMOOTH",
"559 72 LINE",
"347 72 LINE SMOOTH"
);
}
);
};
layerId = "3776B938-A14A-42B9-91A8-ACB6A1608662";
paths = (
{
closed = 1;
nodes = (
"424 -200 LINE SMOOTH",
"517 -200 OFFCURVE",
"562 -155 OFFCURVE",
"562 -61 CURVE SMOOTH",
"562 459 LINE SMOOTH",
"562 483 OFFCURVE",
"550 495 OFFCURVE",
"526 495 CURVE SMOOTH",
"508 495 OFFCURVE",
"497 480 OFFCURVE",
"492 450 CURVE",
"463 480 OFFCURVE",
"425 494 OFFCURVE",
"376 494 CURVE SMOOTH",
"286 494 LINE SMOOTH",
"156 494 OFFCURVE",
"100 438 OFFCURVE",
"100 304 CURVE SMOOTH",
"100 186 LINE SMOOTH",
"100 58 OFFCURVE",
"159 0 OFFCURVE",
"287 0 CURVE SMOOTH",
"328 0 LINE SMOOTH",
"396 0 OFFCURVE",
"451 20 OFFCURVE",
"490 60 CURVE",
"490 -61 LINE SMOOTH",
"490 -115 OFFCURVE",
"477 -128 OFFCURVE",
"424 -128 CURVE SMOOTH",
"238 -128 LINE SMOOTH",
"185 -128 OFFCURVE",
"172 -115 OFFCURVE",
"172 -61 CURVE SMOOTH",
"172 -37 OFFCURVE",
"160 -25 OFFCURVE",
"136 -25 CURVE SMOOTH",
"112 -25 OFFCURVE",
"100 -37 OFFCURVE",
"100 -61 CURVE SMOOTH",
"100 -155 OFFCURVE",
"145 -200 OFFCURVE",
"238 -200 CURVE SMOOTH"
);
},
{
closed = 1;
nodes = (
"199 72 OFFCURVE",
"172 98 OFFCURVE",
"172 186 CURVE SMOOTH",
"172 304 LINE SMOOTH",
"172 398 OFFCURVE",
"196 422 OFFCURVE",
"286 422 CURVE SMOOTH",
"376 422 LINE SMOOTH",
"466 422 OFFCURVE",
"490 397 OFFCURVE",
"490 303 CURVE SMOOTH",
"490 186 LINE SMOOTH",
"490 109 OFFCURVE",
"440 72 OFFCURVE",
"328 72 CURVE SMOOTH",
"287 72 LINE SMOOTH"
);
}
);
width = 662;
}
);
leftMetricsKey = o;
rightMetricsKey = n;
unicode = 0067;
},
{
color = 4;
glyphname = h;
lastChange = "2016-07-21 22:50:29 +0000";
layers = (
{
background = {
paths = (
{
closed = 1;
nodes = (
"24 -17 OFFCURVE",
"66 -17 OFFCURVE",
"66 23 CURVE SMOOTH",
"66 232 LINE SMOOTH",
"66 352 OFFCURVE",
"125 419 OFFCURVE",
"232 419 CURVE SMOOTH",
"261 419 LINE SMOOTH",
"372 419 OFFCURVE",
"426 408 OFFCURVE",
"426 286 CURVE SMOOTH",
"426 23 LINE SMOOTH",
"426 -17 OFFCURVE",
"468 -17 OFFCURVE",
"468 23 CURVE SMOOTH",
"468 286 LINE SMOOTH",
"468 426 OFFCURVE",
"401 461 OFFCURVE",
"261 461 CURVE SMOOTH",
"232 461 LINE SMOOTH",
"159 461 OFFCURVE",
"103 437 OFFCURVE",
"66 389 CURVE",
"66 612 LINE SMOOTH",
"66 633 OFFCURVE",
"58 643 OFFCURVE",
"43 643 CURVE SMOOTH",
"30 643 OFFCURVE",
"24 633 OFFCURVE",
"24 612 CURVE SMOOTH",
"24 23 LINE SMOOTH"
);
}
);
};
layerId = "0E6FACCE-B85C-44A4-8B06-9EFDFED90B40";
paths = (
{
closed = 0;
nodes = (
"50 674 LINE",
"50 16 LINE"
);
},
{
closed = 0;
nodes = (
"430 20 LINE",
"430 287 LINE",
"430 397 OFFCURVE",
"386 441 OFFCURVE",
"276 441 CURVE",
"248 441 LINE",
"133 441 OFFCURVE",
"50 401 OFFCURVE",
"50 291 CURVE"
);
}
);
width = 490;
},
{
anchors = (
{
name = bottom;
position = "{316, 0}";
},
{
name = center;
position = "{151, 571}";
},
{
name = top;
position = "{114, 673}";
}
);
background = {
paths = (
{
closed = 1;
nodes = (
"145 -17 OFFCURVE",
"187 -17 OFFCURVE",
"187 23 CURVE SMOOTH",
"187 232 LINE SMOOTH",
"187 352 OFFCURVE",
"246 419 OFFCURVE",
"353 419 CURVE SMOOTH",
"382 419 LINE SMOOTH",
"493 419 OFFCURVE",
"547 408 OFFCURVE",
"547 286 CURVE SMOOTH",
"547 23 LINE SMOOTH",
"547 -17 OFFCURVE",
"589 -17 OFFCURVE",
"589 23 CURVE SMOOTH",
"589 286 LINE SMOOTH",
"589 426 OFFCURVE",
"522 461 OFFCURVE",
"382 461 CURVE SMOOTH",
"353 461 LINE SMOOTH",
"280 461 OFFCURVE",
"224 437 OFFCURVE",
"187 389 CURVE",
"187 612 LINE SMOOTH",
"187 633 OFFCURVE",
"179 643 OFFCURVE",
"164 643 CURVE SMOOTH",
"151 643 OFFCURVE",
"145 633 OFFCURVE",
"145 612 CURVE SMOOTH",
"145 23 LINE SMOOTH"
);
}
);
};
layerId = "B309FD91-69BF-47D2-8142-D25EBE917F3C";
paths = (
{
closed = 1;
nodes = (
"123 -5 OFFCURVE",
"132 4 OFFCURVE",
"132 16 CURVE SMOOTH",
"132 291 LINE SMOOTH",
"132 377 OFFCURVE",
"190 420 OFFCURVE",
"309 420 CURVE SMOOTH",
"337 420 LINE SMOOTH",
"435 420 OFFCURVE",
"470 385 OFFCURVE",
"470 287 CURVE SMOOTH",
"470 20 LINE SMOOTH",
"470 8 OFFCURVE",
"479 -1 OFFCURVE",
"491 -1 CURVE SMOOTH",
"503 -1 OFFCURVE",
"512 8 OFFCURVE",
"512 20 CURVE SMOOTH",
"512 287 LINE SMOOTH",
"512 409 OFFCURVE",
"459 462 OFFCURVE",
"337 462 CURVE SMOOTH",
"309 462 LINE SMOOTH",
"228 462 OFFCURVE",
"169 436 OFFCURVE",
"132 386 CURVE",
"132 669 LINE SMOOTH",
"132 681 OFFCURVE",
"123 690 OFFCURVE",
"111 690 CURVE SMOOTH",
"99 690 OFFCURVE",
"90 681 OFFCURVE",
"90 669 CURVE SMOOTH",
"90 16 LINE SMOOTH",
"90 4 OFFCURVE",
"99 -5 OFFCURVE",
"111 -5 CURVE SMOOTH"
);
}
);
width = 592;
},
{
anchors = (
{
name = center;
position = "{174, 588}";
}
);
background = {
paths = (
{
closed = 1;
nodes = (
"165 -7 OFFCURVE",
"177 7 OFFCURVE",
"177 35 CURVE SMOOTH",
"177 229 LINE SMOOTH",
"177 326 OFFCURVE",
"223 389 OFFCURVE",
"358 389 CURVE SMOOTH",
"387 389 LINE SMOOTH",
"535 389 OFFCURVE",
"567 376 OFFCURVE",
"567 280 CURVE SMOOTH",
"567 35 LINE SMOOTH",
"567 7 OFFCURVE",
"579 -7 OFFCURVE",
"603 -7 CURVE SMOOTH",
"627 -7 OFFCURVE",
"639 7 OFFCURVE",
"639 35 CURVE SMOOTH",
"639 283 LINE SMOOTH",
"639 423 OFFCURVE",
"566 461 OFFCURVE",
"387 461 CURVE SMOOTH",
"358 461 LINE SMOOTH",
"279 461 OFFCURVE",
"218 444 OFFCURVE",
"177 411 CURVE",
"177 597 LINE SMOOTH",
"177 628 OFFCURVE",
"164 643 OFFCURVE",
"139 643 CURVE SMOOTH",
"116 643 OFFCURVE",
"105 628 OFFCURVE",
"105 597 CURVE SMOOTH",
"105 35 LINE SMOOTH",
"105 7 OFFCURVE",
"117 -7 OFFCURVE",
"141 -7 CURVE SMOOTH"
);
},
{
closed = 1;
nodes = (
"145 -1 OFFCURVE",
"152 6 OFFCURVE",
"152 20 CURVE SMOOTH",
"152 291 LINE SMOOTH",
"152 383 OFFCURVE",
"200 420 OFFCURVE",
"319 420 CURVE SMOOTH",
"351 420 LINE SMOOTH",
"443 420 OFFCURVE",
"480 383 OFFCURVE",
"480 291 CURVE SMOOTH",
"480 20 LINE SMOOTH",
"480 6 OFFCURVE",
"487 -1 OFFCURVE",
"501 -1 CURVE SMOOTH",
"515 -1 OFFCURVE",
"522 6 OFFCURVE",
"522 20 CURVE SMOOTH",
"522 291 LINE SMOOTH",
"522 413 OFFCURVE",
"473 462 OFFCURVE",
"351 462 CURVE SMOOTH",
"319 462 LINE SMOOTH",
"234 462 OFFCURVE",
"187 443 OFFCURVE",
"152 396 CURVE",
"152 689 LINE SMOOTH",
"152 703 OFFCURVE",
"145 710 OFFCURVE",
"131 710 CURVE SMOOTH",
"117 710 OFFCURVE",
"110 703 OFFCURVE",
"110 689 CURVE SMOOTH",
"110 20 LINE SMOOTH",
"110 6 OFFCURVE",
"117 -1 OFFCURVE",
"131 -1 CURVE SMOOTH"
);
}
);
};
layerId = "3776B938-A14A-42B9-91A8-ACB6A1608662";
paths = (
{
closed = 1;
nodes = (
"160 0 OFFCURVE",
"172 12 OFFCURVE",
"172 36 CURVE SMOOTH",
"172 308 LINE SMOOTH",
"172 389 OFFCURVE",
"218 422 OFFCURVE",
"334 422 CURVE SMOOTH",
"375 422 LINE SMOOTH",
"457 422 OFFCURVE",
"490 389 OFFCURVE",
"490 308 CURVE SMOOTH",
"490 36 LINE SMOOTH",
"490 12 OFFCURVE",
"502 0 OFFCURVE",
"526 0 CURVE SMOOTH",
"550 0 OFFCURVE",
"562 12 OFFCURVE",
"562 36 CURVE SMOOTH",
"562 308 LINE SMOOTH",
"562 441 OFFCURVE",
"509 494 OFFCURVE",
"375 494 CURVE SMOOTH",
"334 494 LINE SMOOTH",
"253 494 OFFCURVE",
"207 474 OFFCURVE",
"172 424 CURVE",
"172 664 LINE SMOOTH",
"172 688 OFFCURVE",
"160 700 OFFCURVE",
"136 700 CURVE SMOOTH",
"112 700 OFFCURVE",
"100 688 OFFCURVE",
"100 664 CURVE SMOOTH",
"100 36 LINE SMOOTH",
"100 12 OFFCURVE",
"112 0 OFFCURVE",
"136 0 CURVE SMOOTH"
);
}
);
width = 662;
}
);
leftMetricsKey = n;
rightMetricsKey = n;
unicode = 0068;
},
{
color = 4;
glyphname = i;
lastChange = "2016-07-21 22:39:05 +0000";
layers = (
{
background = {
paths = (
{
closed = 1;
nodes = (
"24 -16 OFFCURVE",
"66 -16 OFFCURVE",
"66 20 CURVE SMOOTH",
"66 440 LINE SMOOTH",
"66 477 OFFCURVE",
"24 477 OFFCURVE",
"24 440 CURVE SMOOTH",
"24 20 LINE SMOOTH"
);
},
{
closed = 1;
nodes = (
"-1 555 OFFCURVE",
"91 555 OFFCURVE",
"91 601 CURVE SMOOTH",
"91 648 OFFCURVE",
"2 646 OFFCURVE",
"-1 601 CURVE"
);
}
);
};
layerId = "0E6FACCE-B85C-44A4-8B06-9EFDFED90B40";
paths = (
{
closed = 0;
nodes = (
"74 441 LINE",
"74 20 LINE"
);
},
{
closed = 1;
nodes = (
"88 587 OFFCURVE",
"99 593 OFFCURVE",
"99 601 CURVE SMOOTH",
"99 609 OFFCURVE",
"88 615 OFFCURVE",
"75 615 CURVE SMOOTH",
"61 615 OFFCURVE",
"50 609 OFFCURVE",
"50 601 CURVE SMOOTH",
"50 593 OFFCURVE",
"61 587 OFFCURVE",
"75 587 CURVE SMOOTH"
);
}
);
width = 149;
},
{
anchors = (
{
name = _top;
position = "{124, 461}";
},
{
name = bottom;
position = "{124, 0}";
},
{
name = top;
position = "{124, 633}";
}
);
background = {
paths = (
{
closed = 1;
nodes = (
"30 -16 OFFCURVE",
"72 -16 OFFCURVE",
"72 20 CURVE SMOOTH",
"72 440 LINE SMOOTH",
"72 477 OFFCURVE",
"30 477 OFFCURVE",
"30 440 CURVE SMOOTH",
"30 20 LINE SMOOTH"
);
},
{
closed = 1;
nodes = (
"5 554 OFFCURVE",
"97 554 OFFCURVE",
"97 601 CURVE SMOOTH",
"97 648 OFFCURVE",
"8 646 OFFCURVE",
"5 601 CURVE"
);
}
);
};
components = (
{
name = idotless;
},
{
name = dotaccentcomb;
transform = "{1, 0, 0, 1, 34, 0}";
}
);
guideLines = (
{
angle = 90;
position = "{124, 539}";
}
);
layerId = "B309FD91-69BF-47D2-8142-D25EBE917F3C";
width = 247;
},
{
background = {
paths = (
{
closed = 1;
nodes = (
"155 -22 OFFCURVE",
"167 -8 OFFCURVE",
"167 20 CURVE SMOOTH",
"167 440 LINE SMOOTH",
"167 498 OFFCURVE",
"95 498 OFFCURVE",
"95 440 CURVE SMOOTH",
"95 20 LINE SMOOTH",
"95 -11 OFFCURVE",
"111 -22 OFFCURVE",
"130 -22 CURVE SMOOTH"
);
},
{
closed = 1;
nodes = (
"236 610 OFFCURVE",
"134 686 OFFCURVE",
"90 638 CURVE",
"28 592 OFFCURVE",
"126 516 OFFCURVE",
"172 565 CURVE"
);
}
);
};
components = (
{
name = idotless;
},
{
name = dotaccentcomb;
transform = "{1, 0, 0, 1, 30, 0}";
}
);
guideLines = (
{
angle = 90;
position = "{146, 539}";
}
);
layerId = "3776B938-A14A-42B9-91A8-ACB6A1608662";
width = 272;
}
);
unicode = 0069;
},
{
color = 4;
glyphname = idotless;
lastChange = "2016-07-21 22:56:16 +0000";
layers = (
{
layerId = "0E6FACCE-B85C-44A4-8B06-9EFDFED90B40";
width = 600;
},
{
anchors = (
{
name = bottom;
position = "{124, 0}";
},
{
name = ogonek;
position = "{222, 10}";
},
{
name = top;
position = "{124, 461}";
}
);
layerId = "B309FD91-69BF-47D2-8142-D25EBE917F3C";
paths = (
{
closed = 1;
nodes = (
"138 0 OFFCURVE",
"145 7 OFFCURVE",
"145 21 CURVE SMOOTH",
"145 440 LINE SMOOTH",
"145 454 OFFCURVE",
"138 461 OFFCURVE",
"124 461 CURVE SMOOTH",
"110 461 OFFCURVE",
"103 454 OFFCURVE",
"103 440 CURVE SMOOTH",
"103 21 LINE SMOOTH",
"103 7 OFFCURVE",
"110 0 OFFCURVE",
"124 0 CURVE SMOOTH"
);
}
);
width = 247;
},
{
anchors = (
{
name = bottom;
position = "{136, 0}";
},
{
name = ogonek;
position = "{245, 10}";
},
{
name = top;
position = "{136, 494}";
}
);
layerId = "3776B938-A14A-42B9-91A8-ACB6A1608662";
paths = (
{
closed = 1;
nodes = (
"160 0 OFFCURVE",
"172 12 OFFCURVE",
"172 36 CURVE",
"172 458 LINE",
"172 482 OFFCURVE",
"160 494 OFFCURVE",
"136 494 CURVE SMOOTH",
"112 494 OFFCURVE",
"100 482 OFFCURVE",
"100 458 CURVE SMOOTH",
"100 36 LINE SMOOTH",
"100 12 OFFCURVE",
"112 0 OFFCURVE",
"136 0 CURVE SMOOTH"
);
}
);
width = 272;
}
);
unicode = 0131;
},
{
color = 4;
glyphname = j;
lastChange = "2016-07-21 22:24:21 +0000";
layers = (
{
background = {
paths = (
{
closed = 1;
nodes = (
"42 -175 OFFCURVE",
"83 -170 OFFCURVE",
"123 -146 CURVE SMOOTH",
"162 -123 OFFCURVE",
"181 -75 OFFCURVE",
"181 0 CURVE SMOOTH",
"181 437 LINE SMOOTH",
"181 478 OFFCURVE",
"139 478 OFFCURVE",
"139 437 CURVE SMOOTH",
"139 0 LINE SMOOTH",
"139 -122 OFFCURVE",
"86 -133 OFFCURVE",
"-27 -133 CURVE SMOOTH",
"-68 -133 OFFCURVE",
"-68 -175 OFFCURVE",
"-27 -175 CURVE SMOOTH"
);
},
{
closed = 1;
nodes = (
"165 540 OFFCURVE",
"238 596 OFFCURVE",
"191 626 CURVE",
"158 662 OFFCURVE",
"81 606 OFFCURVE",
"130 576 CURVE"
);
}
);
};
layerId = "0E6FACCE-B85C-44A4-8B06-9EFDFED90B40";
paths = (
{
closed = 0;
nodes = (
"160 441 LINE",
"160 -70 LINE SMOOTH",
"160 -135 OFFCURVE",
"129 -161 OFFCURVE",
"50 -161 CURVE"
);
}
);
width = 210;
},
{
anchors = (
{
name = _top;
position = "{122, 461}";
},
{
name = top;
position = "{122, 633}";
}
);
background = {
paths = (
{
closed = 1;
nodes = (
"3 -175 OFFCURVE",
"44 -170 OFFCURVE",
"84 -146 CURVE SMOOTH",
"123 -123 OFFCURVE",
"142 -75 OFFCURVE",
"142 0 CURVE SMOOTH",
"142 437 LINE SMOOTH",
"142 478 OFFCURVE",
"100 478 OFFCURVE",
"100 437 CURVE SMOOTH",
"100 0 LINE SMOOTH",
"100 -122 OFFCURVE",
"47 -133 OFFCURVE",
"-66 -133 CURVE SMOOTH",
"-107 -133 OFFCURVE",
"-107 -175 OFFCURVE",
"-66 -175 CURVE SMOOTH"
);
},
{
closed = 1;
nodes = (
"126 540 OFFCURVE",
"199 596 OFFCURVE",
"152 626 CURVE",
"119 662 OFFCURVE",
"42 606 OFFCURVE",
"91 576 CURVE"
);
},
{
closed = 1;
nodes = (
"135 0 OFFCURVE",
"142 7 OFFCURVE",
"142 21 CURVE SMOOTH",
"142 440 LINE SMOOTH",
"142 454 OFFCURVE",
"135 461 OFFCURVE",
"121 461 CURVE SMOOTH",
"107 461 OFFCURVE",
"100 454 OFFCURVE",
"100 440 CURVE SMOOTH",
"100 21 LINE SMOOTH",
"100 7 OFFCURVE",
"107 0 OFFCURVE",
"121 0 CURVE SMOOTH"
);
}
);
};
components = (
{
name = jdotless;
},
{
name = dotaccentcomb;
transform = "{1, 0, 0, 1, 32, 0}";
}
);
layerId = "B309FD91-69BF-47D2-8142-D25EBE917F3C";
width = 244;
},
{
background = {
paths = (
{
closed = 1;
nodes = (
"126 -175 OFFCURVE",
"197 -140 OFFCURVE",
"197 0 CURVE SMOOTH",
"197 422 LINE SMOOTH",
"197 453 OFFCURVE",
"185 468 OFFCURVE",
"161 468 CURVE SMOOTH",
"137 468 OFFCURVE",
"125 453 OFFCURVE",
"125 422 CURVE SMOOTH",
"125 0 LINE SMOOTH",
"125 -89 OFFCURVE",
"94 -103 OFFCURVE",
"-26 -103 CURVE SMOOTH",
"-57 -103 OFFCURVE",
"-72 -115 OFFCURVE",
"-72 -139 CURVE SMOOTH",
"-72 -163 OFFCURVE",
"-57 -175 OFFCURVE",
"-26 -175 CURVE SMOOTH"
);
},
{
closed = 1;
nodes = (
"266 610 OFFCURVE",
"164 686 OFFCURVE",
"120 638 CURVE",
"58 592 OFFCURVE",
"156 516 OFFCURVE",
"202 565 CURVE"
);
}
);
};
components = (
{
name = jdotless;
},
{
name = dotaccentcomb;
transform = "{1, 0, 0, 1, 60, 0}";
}
);
layerId = "3776B938-A14A-42B9-91A8-ACB6A1608662";
width = 302;
}
);
rightMetricsKey = i;
unicode = 006A;
},
{
color = 4;
glyphname = jdotless;
lastChange = "2016-07-20 20:48:54 +0000";
layers = (
{
layerId = "0E6FACCE-B85C-44A4-8B06-9EFDFED90B40";
width = 600;
},
{
anchors = (
{
name = bottom;
position = "{122, 0}";
},
{
name = top;
position = "{122, 461}";
}
);
layerId = "B309FD91-69BF-47D2-8142-D25EBE917F3C";
paths = (
{
closed = 1;
nodes = (
"101 -182 OFFCURVE",
"142 -147 OFFCURVE",
"142 -70 CURVE SMOOTH",
"142 440 LINE SMOOTH",
"142 454 OFFCURVE",
"135 461 OFFCURVE",
"121 461 CURVE SMOOTH",
"107 461 OFFCURVE",
"100 454 OFFCURVE",
"100 440 CURVE SMOOTH",
"100 -70 LINE SMOOTH",
"100 -122 OFFCURVE",
"79 -140 OFFCURVE",
"11 -140 CURVE SMOOTH",
"-3 -140 OFFCURVE",
"-10 -147 OFFCURVE",
"-10 -161 CURVE SMOOTH",
"-10 -175 OFFCURVE",
"-3 -182 OFFCURVE",
"11 -182 CURVE SMOOTH"
);
}
);
width = 244;
},
{
anchors = (
{
name = bottom;
position = "{151, -150}";
},
{
name = top;
position = "{166, 494}";
}
);
layerId = "3776B938-A14A-42B9-91A8-ACB6A1608662";
paths = (
{
closed = 1;
nodes = (
"154 -180 OFFCURVE",
"202 -139 OFFCURVE",
"202 -53 CURVE SMOOTH",
"202 458 LINE SMOOTH",
"202 478 OFFCURVE",
"186 494 OFFCURVE",
"166 494 CURVE SMOOTH",
"146 494 OFFCURVE",
"130 478 OFFCURVE",
"130 458 CURVE SMOOTH",
"130 -53 LINE SMOOTH",
"130 -96 OFFCURVE",
"116 -108 OFFCURVE",
"56 -108 CURVE SMOOTH",
"36 -108 OFFCURVE",
"20 -124 OFFCURVE",
"20 -144 CURVE SMOOTH",
"20 -164 OFFCURVE",
"36 -180 OFFCURVE",
"56 -180 CURVE SMOOTH"
);
}
);
width = 302;
}
);
unicode = 0237;
},
{
color = 4;
glyphname = k;
lastChange = "2016-07-19 23:55:02 +0000";
layers = (
{
background = {
paths = (
{
closed = 1;
nodes = (
"359 -23 OFFCURVE",
"386 10 OFFCURVE",
"361 35 CURVE SMOOTH",
"129 266 LINE",
"288 425 LINE SMOOTH",
"315 452 OFFCURVE",
"287 480 OFFCURVE",
"258 455 CURVE",
"66 262 LINE",
"66 615 LINE SMOOTH",
"66 652 OFFCURVE",
"24 652 OFFCURVE",
"24 615 CURVE SMOOTH",
"24 20 LINE SMOOTH",
"24 -16 OFFCURVE",
"66 -16 OFFCURVE",
"66 20 CURVE SMOOTH",
"66 203 LINE",
"100 237 LINE",
"331 5 LINE SMOOTH"
);
}
);
};
guideLines = (
{
angle = 90;
position = "{317, 191}";
}
);
layerId = "0E6FACCE-B85C-44A4-8B06-9EFDFED90B40";
paths = (
{
closed = 0;
nodes = (
"50 623 LINE",
"50 20 LINE"
);
},
{
closed = 0;
nodes = (
"143 274 LINE",
"365 20 LINE"
);
},
{
closed = 0;
nodes = (
"51 196 LINE",
"336 441 LINE"
);
}
);
width = 366;
},
{
anchors = (
{
name = bottom;
position = "{234, 0}";
},
{
name = top;
position = "{111, 669}";
}
);
layerId = "B309FD91-69BF-47D2-8142-D25EBE917F3C";
paths = (
{
closed = 1;
nodes = (
"194 253 LINE",
"410 7 LINE SMOOTH",
"415 2 OFFCURVE",
"420 0 OFFCURVE",
"426 0 CURVE SMOOTH",
"440 0 OFFCURVE",
"447 7 OFFCURVE",
"447 21 CURVE SMOOTH",
"447 26 OFFCURVE",
"445 31 OFFCURVE",
"442 35 CURVE SMOOTH",
"226 280 LINE"
);
},
{
closed = 1;
nodes = (
"132 669 LINE SMOOTH",
"132 683 OFFCURVE",
"125 690 OFFCURVE",
"111 690 CURVE SMOOTH",
"97 690 OFFCURVE",
"90 683 OFFCURVE",
"90 669 CURVE SMOOTH",
"90 21 LINE SMOOTH",
"90 7 OFFCURVE",
"97 0 OFFCURVE",
"111 0 CURVE SMOOTH",
"125 0 OFFCURVE",
"132 7 OFFCURVE",
"132 21 CURVE SMOOTH"
);
},
{
closed = 1;
nodes = (
"121 176 LINE",
"411 424 LINE",
"416 429 OFFCURVE",
"418 434 OFFCURVE",
"418 440 CURVE SMOOTH",
"418 454 OFFCURVE",
"411 461 OFFCURVE",
"397 461 CURVE SMOOTH",
"392 461 OFFCURVE",
"387 459 OFFCURVE",
"383 456 CURVE SMOOTH",
"121 232 LINE"
);
}
);
width = 467;
},
{
background = {
paths = (
{
closed = 1;
nodes = (
"346 0 OFFCURVE",
"358 12 OFFCURVE",
"358 36 CURVE SMOOTH",
"358 60 OFFCURVE",
"346 72 OFFCURVE",
"322 72 CURVE SMOOTH",
"262 72 OFFCURVE",
"248 84 OFFCURVE",
"248 127 CURVE SMOOTH",
"248 744 LINE SMOOTH",
"248 768 OFFCURVE",
"236 780 OFFCURVE",
"212 780 CURVE SMOOTH",
"188 780 OFFCURVE",
"176 768 OFFCURVE",
"176 744 CURVE SMOOTH",
"176 127 LINE SMOOTH",
"176 41 OFFCURVE",
"224 0 OFFCURVE",
"322 0 CURVE SMOOTH"
);
}
);
};
layerId = "3776B938-A14A-42B9-91A8-ACB6A1608662";
paths = (
{
closed = 1;
nodes = (
"156 0 OFFCURVE",
"172 16 OFFCURVE",
"172 36 CURVE SMOOTH",
"172 195 LINE",
"225 240 LINE",
"424 12 LINE SMOOTH",
"430 5 OFFCURVE",
"440 0 OFFCURVE",
"451 0 CURVE SMOOTH",
"471 0 OFFCURVE",
"487 16 OFFCURVE",
"487 36 CURVE SMOOTH",
"487 45 OFFCURVE",
"484 53 OFFCURVE",
"478 60 CURVE SMOOTH",
"279 287 LINE",
"445 430 LINE SMOOTH",
"453 437 OFFCURVE",
"458 446 OFFCURVE",
"458 457 CURVE SMOOTH",
"458 477 OFFCURVE",
"442 493 OFFCURVE",
"422 493 CURVE SMOOTH",
"413 493 OFFCURVE",
"405 490 OFFCURVE",
"398 484 CURVE SMOOTH",
"172 290 LINE",
"172 745 LINE SMOOTH",
"172 765 OFFCURVE",
"156 781 OFFCURVE",
"136 781 CURVE SMOOTH",
"116 781 OFFCURVE",
"100 765 OFFCURVE",
"100 745 CURVE SMOOTH",
"100 36 LINE SMOOTH",
"100 16 OFFCURVE",
"116 0 OFFCURVE",
"136 0 CURVE SMOOTH"
);
}
);
width = 507;
}
);
leftMetricsKey = n;
unicode = 006B;
},
{
color = 4;
glyphname = l;
lastChange = "2016-07-20 23:09:25 +0000";
layers = (
{
background = {
paths = (
{
closed = 1;
nodes = (
"142 0 LINE SMOOTH",
"182 0 OFFCURVE",
"183 42 OFFCURVE",
"140 42 CURVE SMOOTH",
"97 42 OFFCURVE",
"82 59 OFFCURVE",
"82 106 CURVE SMOOTH",
"82 613 LINE SMOOTH",
"82 653 OFFCURVE",
"40 653 OFFCURVE",
"40 613 CURVE SMOOTH",
"40 124 LINE SMOOTH",
"40 31 OFFCURVE",
"62 0 OFFCURVE",
"135 0 CURVE SMOOTH"
);
},
{
closed = 0;
nodes = (
"201 440 LINE",
"201 20 LINE",
"95 20 OFFCURVE",
"50 60 OFFCURVE",
"50 170 CURVE"
);
},
{
closed = 0;
nodes = (
"622 20 LINE",
"622 291 LINE",
"622 401 OFFCURVE",
"577 441 OFFCURVE",
"471 441 CURVE",
"430 441 LINE",
"315 441 OFFCURVE",
"232 401 OFFCURVE",
"232 291 CURVE"
);
}
);
};
layerId = "0E6FACCE-B85C-44A4-8B06-9EFDFED90B40";
paths = (
{
closed = 0;
nodes = (
"50 674 LINE",
"50 111 LINE SMOOTH",
"50 46 OFFCURVE",
"81 20 OFFCURVE",
"160 20 CURVE"
);
}
);
width = 210;
},
{
anchors = (
{
name = bottom;
position = "{136, 0}";
},
{
name = center;
position = "{111, 231}";
},
{
name = top;
position = "{136, 669}";
},
{
name = topright;
position = "{221, 461}";
}
);
background = {
paths = (
{
closed = 1;
nodes = (
"203 0 LINE SMOOTH",
"243 0 OFFCURVE",
"244 42 OFFCURVE",
"201 42 CURVE SMOOTH",
"158 42 OFFCURVE",
"143 59 OFFCURVE",
"143 106 CURVE SMOOTH",
"143 613 LINE SMOOTH",
"143 653 OFFCURVE",
"101 653 OFFCURVE",
"101 613 CURVE SMOOTH",
"101 124 LINE SMOOTH",
"101 31 OFFCURVE",
"123 0 OFFCURVE",
"196 0 CURVE SMOOTH"
);
}
);
};
layerId = "B309FD91-69BF-47D2-8142-D25EBE917F3C";
paths = (
{
closed = 1;
nodes = (
"235 -1 OFFCURVE",
"242 6 OFFCURVE",
"242 20 CURVE SMOOTH",
"242 34 OFFCURVE",
"235 41 OFFCURVE",
"221 41 CURVE SMOOTH",
"157 41 OFFCURVE",
"132 61 OFFCURVE",
"132 111 CURVE SMOOTH",
"132 669 LINE SMOOTH",
"132 683 OFFCURVE",
"125 690 OFFCURVE",
"111 690 CURVE SMOOTH",
"97 690 OFFCURVE",
"90 683 OFFCURVE",
"90 669 CURVE SMOOTH",
"90 111 LINE SMOOTH",
"90 31 OFFCURVE",
"127 -1 OFFCURVE",
"221 -1 CURVE SMOOTH"
);
}
);
width = 272;
},
{
background = {
paths = (
{
closed = 1;
nodes = (
"244 0 LINE SMOOTH",
"274 0 OFFCURVE",
"289 12 OFFCURVE",
"289 36 CURVE SMOOTH",
"289 60 OFFCURVE",
"274 72 OFFCURVE",
"244 72 CURVE SMOOTH",
"208 72 OFFCURVE",
"199 82 OFFCURVE",
"199 118 CURVE SMOOTH",
"199 598 LINE SMOOTH",
"199 628 OFFCURVE",
"187 643 OFFCURVE",
"163 643 CURVE SMOOTH",
"139 643 OFFCURVE",
"127 628 OFFCURVE",
"127 598 CURVE SMOOTH",
"127 133 LINE SMOOTH",
"127 38 OFFCURVE",
"153 0 OFFCURVE",
"237 0 CURVE SMOOTH"
);
},
{
closed = 1;
nodes = (
"265 -1 OFFCURVE",
"272 6 OFFCURVE",
"272 20 CURVE SMOOTH",
"272 34 OFFCURVE",
"265 41 OFFCURVE",
"251 41 CURVE SMOOTH",
"187 41 OFFCURVE",
"162 61 OFFCURVE",
"162 111 CURVE SMOOTH",
"162 669 LINE SMOOTH",
"162 683 OFFCURVE",
"155 690 OFFCURVE",
"141 690 CURVE SMOOTH",
"127 690 OFFCURVE",
"120 683 OFFCURVE",
"120 669 CURVE SMOOTH",
"120 111 LINE SMOOTH",
"120 31 OFFCURVE",
"157 -1 OFFCURVE",
"251 -1 CURVE SMOOTH"
);
}
);
};
layerId = "3776B938-A14A-42B9-91A8-ACB6A1608662";
paths = (
{
closed = 1;
nodes = (
"270 0 OFFCURVE",
"282 12 OFFCURVE",
"282 36 CURVE SMOOTH",
"282 60 OFFCURVE",
"270 72 OFFCURVE",
"246 72 CURVE SMOOTH",
"186 72 OFFCURVE",
"172 84 OFFCURVE",
"172 127 CURVE SMOOTH",
"172 665 LINE SMOOTH",
"172 689 OFFCURVE",
"160 701 OFFCURVE",
"136 701 CURVE SMOOTH",
"112 701 OFFCURVE",
"100 689 OFFCURVE",
"100 665 CURVE SMOOTH",
"100 127 LINE SMOOTH",
"100 41 OFFCURVE",
"148 0 OFFCURVE",
"246 0 CURVE SMOOTH"
);
}
);
width = 332;
}
);
leftMetricsKey = n;
unicode = 006C;
},
